<svg width="16" height="16" viewBox="0 0 16 16" fill="none" xmlns="http://www.w3.org/2000/svg">
<path d="M0.5 7.21191C0.536855 6.92589 0.57371 6.64623 0.62285 6.36021C0.782555 5.45131 1.06511 4.58055 1.55651 3.80513C1.84521 3.34115 2.45946 3.22038 2.92015 3.49369C3.38084 3.76699 3.58968 4.37081 3.36855 4.86657C3.15971 5.33055 2.93243 5.77547 2.80958 6.27759C2.39189 7.98733 2.66216 9.56996 3.65111 11.0064C4.33292 12.0043 5.2543 12.678 6.37224 13.053C7.19533 13.3263 8.03685 13.3899 8.88452 13.2373C10.3894 12.964 11.5749 12.1695 12.4472 10.8856C12.9263 10.1738 13.2211 9.38564 13.3317 8.52759C13.5098 7.14199 13.2273 5.86445 12.4902 4.6886C12.484 4.68225 12.4779 4.67589 12.4595 4.65047C12.4287 4.71403 12.398 4.77759 12.3673 4.83479C12.2629 5.06996 12.1646 5.31784 12.0479 5.54665C11.9128 5.80725 11.6671 5.88352 11.4275 5.72462C11.2555 5.61021 11.0958 5.45767 10.973 5.28606C10.2236 4.23733 9.48034 3.17589 8.74324 2.11445C8.64496 1.97462 8.56511 1.80937 8.52826 1.63776C8.46683 1.3136 8.65725 1.0403 9.00123 0.970383C9.29607 0.906823 9.59705 0.8814 9.89803 0.84962C10.6044 0.766993 11.3108 0.690722 12.0233 0.620806C12.4103 0.582671 12.7973 0.544535 13.1904 0.5064C13.2764 0.500044 13.3685 0.5064 13.4545 0.519112C13.8231 0.582671 14.0135 0.894112 13.8907 1.2564C13.774 1.59326 13.6265 1.91742 13.4853 2.24157C13.4423 2.34326 13.4423 2.40682 13.5221 2.48945C14.4865 3.57631 15.1192 4.84115 15.371 6.2903C15.7887 8.71826 15.2359 10.8983 13.6941 12.7861C12.5885 14.1399 11.1757 15.0106 9.48649 15.3475C7.12776 15.8115 5.00246 15.2522 3.15971 13.6505C1.8145 12.481 0.979115 10.981 0.641278 9.19496C0.592138 8.92801 0.57371 8.65471 0.536855 8.38776C0.530713 8.34962 0.518428 8.31148 0.506143 8.27335C0.5 7.91742 0.5 7.56148 0.5 7.21191Z" fill="white"/>
</svg>
