<svg width="16" height="17" viewBox="0 0 16 17" fill="none" xmlns="http://www.w3.org/2000/svg">
<path d="M13.9164 7.28249C13.4433 7.22335 13.0793 7.55545 13.0793 8.06042C13.0793 9.94385 13.0702 11.8318 13.0839 13.7153C13.0884 14.2384 12.7199 14.5478 12.2468 14.5478C8.93034 14.5387 5.61842 14.5432 2.30196 14.5432C1.74239 14.5432 1.45579 14.2566 1.45579 13.6925C1.45579 10.3851 1.46034 7.07322 1.45124 3.76585C1.45124 3.31091 1.72875 2.91057 2.30651 2.91967C4.18539 2.93787 6.06426 2.92877 7.94313 2.92422C8.40262 2.92422 8.73017 2.61032 8.72562 2.18268C8.72107 1.75959 8.39807 1.46388 7.94313 1.46388C6.03241 1.46388 4.11715 1.46388 2.20643 1.46388C0.973557 1.45933 0.00454933 2.42379 0 3.66121C0 7.04137 0 10.417 0.00454933 13.7971C0.00454933 13.9973 0.0363947 14.2066 0.0909866 14.4022C0.354848 15.3576 1.21012 15.999 2.21098 16.0036C3.90333 16.0081 5.59568 16.0036 7.28348 16.0036C8.97128 16.0036 10.6545 16.0081 12.3423 16.0036C13.5798 15.999 14.5397 15.03 14.5397 13.7926C14.5397 12.6962 14.5397 11.5998 14.5397 10.508C14.5397 9.67544 14.5397 8.83836 14.5397 8.00583C14.5351 7.62824 14.2713 7.32798 13.9164 7.28249Z" fill="#0061A8"/>
<path d="M15.9953 0.754052C15.9953 0.317316 15.6768 0.003412 15.2401 0.003412C13.8071 -0.00113733 12.3695 -0.00113733 10.9319 0.003412C10.7954 0.003412 10.6453 0.044356 10.5315 0.112596C10.113 0.349161 10.0539 0.90418 10.4087 1.26358C10.9501 1.81405 11.5005 2.35542 12.0874 2.94228C12.0237 2.98322 11.96 3.01507 11.91 3.06056C10.2222 4.74382 8.53893 6.43162 6.85568 8.11487C6.80564 8.16491 6.7556 8.21041 6.71466 8.26045C6.43715 8.60165 6.50994 9.08843 6.87388 9.33409C7.18324 9.54336 7.54263 9.48877 7.84289 9.19306C9.54434 7.49161 11.2458 5.79016 12.9472 4.08871C12.9927 4.04322 13.0428 3.99773 13.0928 3.94768C13.6433 4.49815 14.1847 5.03952 14.726 5.58544C14.958 5.81746 15.231 5.89025 15.5358 5.77196C15.8497 5.64913 15.9998 5.39437 15.9998 5.06227C15.9998 3.62468 15.9998 2.18709 15.9953 0.754052Z" fill="#0061A8"/>
</svg>
