<svg width="90" height="14" viewBox="0 0 90 14" fill="none" xmlns="http://www.w3.org/2000/svg">
<path d="M6.45914 1.46353C6.60882 1.00287 7.26052 1.00287 7.4102 1.46353L8.37934 4.44625C8.44628 4.65226 8.63826 4.79174 8.85487 4.79174L11.9911 4.79174C12.4755 4.79174 12.6768 5.41155 12.285 5.69625L9.74773 7.53967C9.57249 7.667 9.49916 7.89268 9.5661 8.09869L10.5352 11.0814C10.6849 11.5421 10.1577 11.9251 9.76582 11.6404L7.22856 9.79701C7.05332 9.66968 6.81602 9.66968 6.64078 9.79701L4.10352 11.6404C3.71167 11.9251 3.18443 11.5421 3.3341 11.0814L4.30325 8.09869C4.37018 7.89268 4.29686 7.667 4.12161 7.53967L1.58436 5.69625C1.1925 5.41155 1.39389 4.79174 1.87825 4.79174L5.01447 4.79174C5.23108 4.79174 5.42306 4.65226 5.49 4.44625L6.45914 1.46353Z" fill="#70A42F"/>
<path d="M25.4919 1.46353C25.6415 1.00287 26.2932 1.00287 26.4429 1.46353L27.4121 4.44625C27.479 4.65226 27.671 4.79174 27.8876 4.79174L31.0238 4.79174C31.5082 4.79174 31.7096 5.41155 31.3177 5.69625L28.7804 7.53967C28.6052 7.667 28.5319 7.89268 28.5988 8.09869L29.568 11.0814C29.7176 11.5421 29.1904 11.9251 28.7985 11.6404L26.2613 9.79701C26.086 9.66968 25.8487 9.66968 25.6735 9.79701L23.1362 11.6404C22.7444 11.9251 22.2171 11.5421 22.3668 11.0814L23.336 8.09869C23.4029 7.89268 23.3296 7.667 23.1543 7.53967L20.6171 5.69625C20.2252 5.41155 20.4266 4.79174 20.911 4.79174L24.0472 4.79174C24.2638 4.79174 24.4558 4.65226 24.5227 4.44625L25.4919 1.46353Z" fill="#70A42F"/>
<path d="M44.5246 1.46353C44.6742 1.00287 45.326 1.00287 45.4756 1.46353L46.4448 4.44625C46.5117 4.65226 46.7037 4.79174 46.9203 4.79174L50.0565 4.79174C50.5409 4.79174 50.7423 5.41155 50.3504 5.69625L47.8132 7.53967C47.6379 7.667 47.5646 7.89268 47.6315 8.09869L48.6007 11.0814C48.7503 11.5421 48.2231 11.9251 47.8312 11.6404L45.294 9.79701C45.1188 9.66968 44.8815 9.66968 44.7062 9.79701L42.169 11.6404C41.7771 11.9251 41.2499 11.5421 41.3995 11.0814L42.3687 8.09869C42.4356 7.89268 42.3623 7.667 42.187 7.53967L39.6498 5.69625C39.2579 5.41155 39.4593 4.79174 39.9437 4.79174L43.0799 4.79174C43.2965 4.79174 43.4885 4.65226 43.5554 4.44625L44.5246 1.46353Z" fill="#70A42F"/>
<path d="M63.557 1.46353C63.7067 1.00287 64.3584 1.00287 64.5081 1.46353L65.4772 4.44625C65.5442 4.65226 65.7362 4.79174 65.9528 4.79174L69.089 4.79174C69.5734 4.79174 69.7747 5.41155 69.3829 5.69625L66.8456 7.53967C66.6704 7.667 66.5971 7.89268 66.664 8.09869L67.6331 11.0814C67.7828 11.5421 67.2556 11.9251 66.8637 11.6404L64.3265 9.79701C64.1512 9.66968 63.9139 9.66968 63.7387 9.79701L61.2014 11.6404C60.8096 11.9251 60.2823 11.5421 60.432 11.0814L61.4011 8.09869C61.4681 7.89268 61.3948 7.667 61.2195 7.53967L58.6823 5.69625C58.2904 5.41155 58.4918 4.79174 58.9761 4.79174L62.1124 4.79174C62.329 4.79174 62.521 4.65226 62.5879 4.44625L63.557 1.46353Z" fill="#70A42F"/>
<path d="M82.5898 1.46353C82.7394 1.00287 83.3911 1.00287 83.5408 1.46353L84.51 4.44625C84.5769 4.65226 84.7689 4.79174 84.9855 4.79174L88.1217 4.79174C88.6061 4.79174 88.8075 5.41155 88.4156 5.69625L85.8783 7.53967C85.7031 7.667 85.6298 7.89268 85.6967 8.09869L86.6659 11.0814C86.8155 11.5421 86.2883 11.9251 85.8964 11.6404L83.3592 9.79701C83.1839 9.66968 82.9466 9.66968 82.7714 9.79701L80.2341 11.6404C79.8423 11.9251 79.315 11.5421 79.4647 11.0814L80.4339 8.09869C80.5008 7.89268 80.4275 7.667 80.2522 7.53967L77.715 5.69625C77.3231 5.41155 77.5245 4.79174 78.0089 4.79174L81.1451 4.79174C81.3617 4.79174 81.5537 4.65226 81.6206 4.44625L82.5898 1.46353Z" fill="#70A42F"/>
</svg>
