<svg width="24" height="23" viewBox="0 0 24 23" fill="none" xmlns="http://www.w3.org/2000/svg">
<path d="M22.9362 12.5661C23.296 10.2771 23.6402 8.0822 24 5.84806C23.2569 6.13027 22.5764 6.38896 21.9036 6.63981C19.338 1.20733 13.2523 -1.18358 7.91752 0.56453C2.91913 2.19506 -0.483537 7.11799 0.0561957 12.6367C0.548995 17.6459 4.29584 21.9417 9.56019 22.8353C14.7776 23.7211 19.205 20.8912 21.051 17.7478C20.3157 17.2617 19.5805 16.7757 18.8452 16.2897C16.0057 20.5306 10.8274 21.1264 7.36215 19.245C3.84997 17.3401 2.02739 13.3187 2.96606 9.45403C3.92037 5.51098 7.40126 2.77515 11.5236 2.72811C14.715 2.69676 18.5949 5.15038 19.2754 7.65889C18.7591 7.8627 18.2507 8.06652 17.664 8.29385C19.4396 9.7284 21.1684 11.1316 22.9362 12.5661Z" fill="white"/>
<path d="M11.3285 4.17838C10.7888 4.17838 10.3507 4.61737 10.3507 5.15827V9.81467C9.81098 10.1831 9.45898 10.8024 9.45898 11.5001C9.45898 12.6211 10.3664 13.5382 11.4928 13.5382C11.5553 13.5382 11.6179 13.5382 11.6805 13.5304L13.331 15.3804C13.5265 15.5999 13.7925 15.7096 14.0584 15.7096C14.2931 15.7096 14.52 15.6313 14.7077 15.4588C15.1144 15.0982 15.1457 14.4789 14.7859 14.0791L13.2997 12.4172C13.4405 12.1429 13.5187 11.8293 13.5187 11.5079C13.5187 10.677 13.0181 9.95577 12.3063 9.64221V5.15827C12.3063 4.61737 11.8682 4.17838 11.3285 4.17838Z" fill="white"/>
</svg>
