<svg width="35" height="35" viewBox="0 0 35 35" fill="none" xmlns="http://www.w3.org/2000/svg">
<path d="M20.3652 33.7493C22.4991 33.3731 24.538 32.5802 26.3654 31.416C28.1929 30.2517 29.7732 28.739 31.016 26.964C32.2588 25.1891 33.1399 23.1867 33.6089 21.0713C34.0779 18.9558 34.1256 16.7687 33.7493 14.6348C33.3731 12.5009 32.5802 10.462 31.416 8.63456C30.2517 6.80709 28.739 5.22682 26.964 3.98399C25.1891 2.74116 23.1867 1.8601 21.0713 1.39112C18.9558 0.922132 16.7687 0.874409 14.6348 1.25067C12.5009 1.62694 10.462 2.41982 8.63455 3.58404C6.80708 4.74827 5.22682 6.26104 3.98399 8.03599C2.74116 9.81094 1.8601 11.8133 1.39112 13.9287C0.922132 16.0442 0.874409 18.2313 1.25067 20.3652C1.62694 22.4991 2.41982 24.538 3.58404 26.3654C4.74827 28.1929 6.26104 29.7732 8.03599 31.016C9.81094 32.2588 11.8133 33.1399 13.9288 33.6089C16.0442 34.0779 18.2313 34.1256 20.3652 33.7493L20.3652 33.7493Z" stroke="#672900" stroke-width="2"/>
<path d="M17.5 17.501L17.5 27.4011" stroke="#672900" stroke-width="2" stroke-linecap="square"/>
<path d="M17.5 9.24902L17.5 7.59901" stroke="#672900" stroke-width="2" stroke-linecap="square"/>
</svg>
