<svg width="53" height="53" viewBox="0 0 53 53" fill="none" xmlns="http://www.w3.org/2000/svg">
<g filter="url(#filter0_d_2329:1653)">
<rect x="4" y="2" width="45" height="45" rx="10" fill="#70A42F"/>
<path fill-rule="evenodd" clip-rule="evenodd" d="M29.6957 18.3517C32.0527 20.7087 32.0527 24.5302 29.6957 26.8871C27.3387 29.2441 23.5173 29.2441 21.1603 26.8871C18.8033 24.5302 18.8033 20.7087 21.1603 18.3517C23.5173 15.9947 27.3387 15.9947 29.6957 18.3517ZM32.9466 27.6336C35.2936 24.1226 34.9171 19.3304 31.8171 16.2304C28.2885 12.7018 22.5676 12.7018 19.039 16.2304C15.5104 19.759 15.5104 25.4799 19.039 29.0085C22.2728 32.2422 27.3479 32.5124 30.8893 29.819L36.0461 34.9758C36.6319 35.5616 37.5817 35.5616 38.1675 34.9758C38.7532 34.39 38.7532 33.4403 38.1675 32.8545L32.9466 27.6336Z" fill="white"/>
</g>
<defs>
<filter id="filter0_d_2329:1653" x="0" y="0" width="53" height="53" filterUnits="userSpaceOnUse" color-interpolation-filters="sRGB">
<feFlood flood-opacity="0" result="BackgroundImageFix"/>
<feColorMatrix in="SourceAlpha" type="matrix" values="0 0 0 0 0 0 0 0 0 0 0 0 0 0 0 0 0 0 127 0" result="hardAlpha"/>
<feOffset dy="2"/>
<feGaussianBlur stdDeviation="2"/>
<feComposite in2="hardAlpha" operator="out"/>
<feColorMatrix type="matrix" values="0 0 0 0 0.68294 0 0 0 0 0.754167 0 0 0 0 0.593906 0 0 0 1 0"/>
<feBlend mode="normal" in2="BackgroundImageFix" result="effect1_dropShadow_2329:1653"/>
<feBlend mode="normal" in="SourceGraphic" in2="effect1_dropShadow_2329:1653" result="shape"/>
</filter>
</defs>
</svg>
