<svg width="23" height="23" viewBox="0 0 23 23" fill="none" xmlns="http://www.w3.org/2000/svg">
<path fill-rule="evenodd" clip-rule="evenodd" d="M13.6957 5.35173C16.0527 7.70872 16.0527 11.5302 13.6957 13.8871C11.3387 16.2441 7.51731 16.2441 5.16032 13.8871C2.80333 11.5302 2.80333 7.70872 5.16032 5.35173C7.51731 2.99474 11.3387 2.99474 13.6957 5.35173ZM16.9466 14.6336C19.2936 11.1226 18.9171 6.33041 15.8171 3.23041C12.2885 -0.298156 6.56756 -0.298156 3.039 3.23041C-0.489563 6.75897 -0.489563 12.4799 3.039 16.0085C6.27276 19.2422 11.3479 19.5124 14.8893 16.819L20.0461 21.9758C20.6319 22.5616 21.5817 22.5616 22.1675 21.9758C22.7532 21.39 22.7532 20.4403 22.1675 19.8545L16.9466 14.6336Z" fill="white"/>
</svg>
