<svg width="32" height="33" viewBox="0 0 32 33" fill="none" xmlns="http://www.w3.org/2000/svg">
<path d="M15.9662 32.4895C24.7841 32.4895 31.9324 25.3412 31.9324 16.5233C31.9324 7.70544 24.7841 0.557129 15.9662 0.557129C7.14831 0.557129 0 7.70544 0 16.5233C0 25.3412 7.14831 32.4895 15.9662 32.4895Z" fill="white"/>
<path fill-rule="evenodd" clip-rule="evenodd" d="M18.4653 9.00372L18.6682 8.70546L18.871 8.4115L19.3229 7.75062C19.3792 7.66908 19.356 7.55965 19.2722 7.50601C19.1896 7.45129 19.076 7.47382 19.022 7.55536L18.332 8.56063L18.1247 8.86318C17.4688 8.61535 16.738 8.47695 15.9663 8.47695C15.1958 8.47695 14.4639 8.61535 13.808 8.86318L13.6018 8.56063L13.3979 8.26345L12.9129 7.55536C12.8567 7.47382 12.7442 7.45236 12.6604 7.50601C12.5778 7.55965 12.5546 7.66908 12.6097 7.75062L13.0617 8.4115L13.2645 8.70546L13.4685 9.00372C11.9285 9.70215 10.8868 11.025 10.8868 12.5388H21.0459C21.0459 11.025 20.0042 9.70215 18.4653 9.00372ZM13.2449 10.5959C13.2449 10.8888 13.4885 11.1259 13.7894 11.1259C14.0904 11.1259 14.334 10.8888 14.334 10.5959C14.334 10.303 14.0904 10.067 13.7894 10.067C13.4885 10.067 13.2449 10.303 13.2449 10.5959ZM17.5991 10.5959C17.5991 10.8888 17.8428 11.1259 18.1437 11.1259C18.4446 11.1259 18.6883 10.8888 18.6883 10.5959C18.6883 10.303 18.4446 10.067 18.1437 10.067C17.8428 10.067 17.5991 10.303 17.5991 10.5959ZM10.8868 13.2447H10.9651H21.0459V21.0144C21.0459 21.6312 20.5322 22.1333 19.8973 22.1333H19.0672C19.0959 22.2267 19.1124 22.3243 19.1124 22.4273V24.6642C19.1124 25.2489 18.6241 25.7231 18.0222 25.7231C17.4214 25.7231 16.9342 25.2489 16.9342 24.6642V22.4273C16.9342 22.3243 16.9496 22.2267 16.9772 22.1333H14.9555C14.9831 22.2267 14.9996 22.3243 14.9996 22.4273V24.6642C14.9996 25.2489 14.5113 25.7231 13.9105 25.7231C13.3097 25.7231 12.8214 25.2489 12.8214 24.6642V22.4273C12.8214 22.3243 12.8368 22.2267 12.8655 22.1333H12.0365C11.4016 22.1333 10.8868 21.6312 10.8868 21.0144V13.2447ZM9.0725 13.2447C8.47063 13.2447 7.9834 13.7189 7.9834 14.3036V18.8364C7.9834 19.4212 8.47063 19.8954 9.0725 19.8954C9.67328 19.8954 10.1605 19.4212 10.1605 18.8364V14.3036C10.1605 13.7189 9.67328 13.2447 9.0725 13.2447ZM21.7725 14.3036C21.7725 13.7189 22.2597 13.2447 22.8616 13.2447C23.4623 13.2447 23.9496 13.7189 23.9496 14.3036V18.8364C23.9496 19.4212 23.4623 19.8954 22.8616 19.8954C22.2597 19.8954 21.7725 19.4212 21.7725 18.8364V14.3036Z" fill="#87522F"/>
</svg>
