<svg width="33" height="33" viewBox="0 0 33 33" fill="none" xmlns="http://www.w3.org/2000/svg">
<path d="M0.958984 16.5233C0.958984 7.70544 8.1073 0.557129 16.9252 0.557129C25.7431 0.557129 32.8914 7.70544 32.8914 16.5233C32.8914 25.3412 25.7431 32.4895 16.9252 32.4895C8.1073 32.4895 0.958984 25.3412 0.958984 16.5233Z" fill="white"/>
<path fill-rule="evenodd" clip-rule="evenodd" d="M20.4293 6.94336C20.5965 8.07871 20.1344 9.19097 19.5248 9.97791C18.8725 10.822 17.7484 11.4749 16.6591 11.4408C16.4603 10.3538 16.9694 9.23384 17.5889 8.48097C18.2684 7.65007 19.433 7.0126 20.4293 6.94336ZM23.7014 22.9239C24.2629 22.0633 24.4727 21.6292 24.9086 20.6576C21.7382 19.4519 21.2301 14.9446 24.3678 13.2147C23.4108 12.0145 22.0659 11.3188 20.7964 11.3188C19.8817 11.3188 19.255 11.5575 18.6852 11.7745C18.2104 11.9553 17.7752 12.1211 17.2458 12.1211C16.6738 12.1211 16.1672 11.9395 15.6367 11.7493C15.0539 11.5403 14.4422 11.321 13.6832 11.321C12.2586 11.321 10.7422 12.1914 9.78077 13.6796C8.42935 15.7755 8.65987 19.7157 10.8514 23.0723C11.6347 24.2736 12.6814 25.6233 14.0502 25.6353C14.6183 25.641 14.9962 25.4715 15.4053 25.288C15.8734 25.078 16.3823 24.8498 17.2633 24.8451C18.1495 24.8398 18.6503 25.0708 19.1123 25.2839C19.5108 25.4677 19.8804 25.6382 20.4435 25.632C21.8135 25.6211 22.9181 24.1252 23.7014 22.9239Z" fill="#87522F"/>
</svg>
