<svg width="97" height="165" viewBox="0 0 97 165" fill="none" xmlns="http://www.w3.org/2000/svg">
<path d="M71.8726 25.0479C71.3494 25.0479 70.8262 25.2423 70.4665 25.6311C69.6817 26.4088 69.6817 27.6402 70.4665 28.4178L72.5593 30.4917C72.919 30.8481 73.4421 31.075 73.9653 31.075C74.4885 31.075 75.0117 30.8805 75.3714 30.4917C75.7311 30.1028 75.96 29.6168 75.96 29.0983C75.96 28.5799 75.7638 28.0614 75.3714 27.705L73.2786 25.6311C72.8863 25.2423 72.3958 25.0479 71.8726 25.0479Z" fill="#87522F"/>
<path d="M77.7261 38.9817C78.2493 38.9817 78.7725 38.7873 79.1322 38.3984L81.2249 36.3246C81.5846 35.9681 81.8135 35.4497 81.8135 34.9312C81.8135 34.4128 81.6173 33.8943 81.2249 33.5379C80.8652 33.1814 80.342 32.9546 79.8188 32.9546C79.2957 32.9546 78.7725 33.149 78.4128 33.5379L76.32 35.6117C75.5353 36.3894 75.5353 37.6207 76.32 38.3984C76.7124 38.7549 77.2029 38.9817 77.7261 38.9817Z" fill="#87522F"/>
<path d="M77.3657 23.6872C77.8889 23.6872 78.4121 23.4928 78.7718 23.104L79.6874 22.1967C80.4722 21.419 80.4722 20.1876 79.6874 19.4099C79.3277 19.0535 78.8045 18.8267 78.2813 18.8267C77.7581 18.8267 77.2349 19.0211 76.8753 19.4099L75.9597 20.3172C75.6 20.6737 75.3711 21.1921 75.3711 21.7106C75.3711 22.2291 75.5673 22.7475 75.9597 23.104C76.3194 23.4928 76.8099 23.6872 77.3657 23.6872Z" fill="#87522F"/>
<path d="M70.4665 43.9071L72.5593 45.9809C72.919 46.3374 73.4421 46.5642 73.9653 46.5642C74.4885 46.5642 75.0117 46.3698 75.3714 45.9809C75.7311 45.6245 75.96 45.106 75.96 44.5876C75.96 44.0691 75.7638 43.5507 75.3714 43.1942L73.2786 41.1204C72.919 40.7639 72.3958 40.5371 71.8726 40.5371C71.3494 40.5371 70.8262 40.7315 70.4665 41.1204C69.6817 41.8981 69.6817 43.1294 70.4665 43.9071Z" fill="#87522F"/>
<path d="M33.3862 23.8167C33.9094 23.8167 34.4326 23.6223 34.7923 23.2334L40.3185 17.7572C40.6782 17.4008 40.9071 16.8823 40.9071 16.3638C40.9071 15.8454 40.7109 15.3269 40.3185 14.9705C39.9588 14.614 39.4356 14.3872 38.9124 14.3872C38.3892 14.3872 37.866 14.5816 37.5063 14.9705L31.9802 20.4467C31.1954 21.2244 31.1954 22.4557 31.9802 23.2334C32.3726 23.5899 32.8631 23.8167 33.3862 23.8167Z" fill="#87522F"/>
<path d="M59.938 60.5626H60.6247C61.7365 60.5626 62.6193 59.6877 62.6193 58.586C62.6193 57.4843 61.7365 56.6094 60.6247 56.6094H59.938C58.8262 56.6094 57.9434 57.4843 57.9434 58.586C57.9434 59.6877 58.8589 60.5626 59.938 60.5626Z" fill="#87522F"/>
<path d="M70.0415 60.5626H70.7282C71.84 60.5626 72.7229 59.6877 72.7229 58.586C72.7229 57.4843 71.84 56.6094 70.7282 56.6094H70.0415C68.9297 56.6094 68.0469 57.4843 68.0469 58.586C68.0469 59.6877 68.9297 60.5626 70.0415 60.5626Z" fill="#87522F"/>
<path d="M55.8179 65.5851H56.5046C57.6163 65.5851 58.4992 64.7102 58.4992 63.6085C58.4992 62.5067 57.6163 61.6318 56.5046 61.6318H55.8179C54.7061 61.6318 53.8232 62.5067 53.8232 63.6085C53.8232 64.7102 54.7061 65.5851 55.8179 65.5851Z" fill="#87522F"/>
<path d="M65.9214 65.5851H66.6081C67.1313 65.5851 67.6545 65.3907 68.0142 65.0018C68.3738 64.613 68.6027 64.1269 68.6027 63.6085C68.6027 62.5067 67.7199 61.6318 66.6081 61.6318H65.9214C64.8096 61.6318 63.9268 62.5067 63.9268 63.6085C63.9268 64.7102 64.8096 65.5851 65.9214 65.5851Z" fill="#87522F"/>
<path d="M94.3371 69.7329L91.2961 67.9831L91.3288 67.6915C91.5904 64.4187 91.7866 61.1459 91.852 57.8731C91.852 57.3547 91.6558 56.8362 91.2961 56.4798C90.9364 56.0909 90.4459 55.8965 89.89 55.8641H89.8573C88.7782 55.8641 87.8954 56.739 87.8627 57.8083C87.83 59.1369 87.7973 60.5302 87.7319 61.8588L87.6665 63.317L86.8817 62.0856C84.9524 59.0721 82.3365 56.4474 79.2955 54.5355L78.805 54.2115L81.2574 51.7812C81.6171 51.4248 81.846 50.9063 81.846 50.3879C81.846 49.8694 81.6498 49.3509 81.2574 48.9945C80.865 48.6381 80.3745 48.4112 79.8514 48.4112C79.3282 48.4112 78.805 48.6057 78.4453 48.9945L76.3525 51.0683C76.091 51.3276 75.8948 51.684 75.7967 52.0729L75.6986 52.6237L75.1754 52.4293C72.7556 51.4572 70.2051 50.9063 67.6219 50.7443L67.1968 50.7119V24.4324V24.3676C69.5511 15.165 72.8864 9.4295 75.8621 9.4295C80.1457 9.4295 86.6855 22.8123 87.7319 47.8928C87.7646 48.9621 88.6474 49.7722 89.7265 49.7722C89.7592 49.7722 89.7919 49.7722 89.8246 49.7722C90.3478 49.7398 90.8383 49.513 91.198 49.1241C91.5577 48.7353 91.7539 48.2168 91.7212 47.6983C91.2307 36.4542 89.563 26.085 86.9798 18.5026C84.9524 12.5403 81.3882 5.44383 75.8621 5.44383C71.0226 5.44383 67.72 10.9525 65.7907 15.5538L65.4637 16.3315L64.9732 15.6186C62.6516 12.2486 58.8258 10.272 54.7384 10.272C52.8092 10.272 50.9453 10.6932 49.2122 11.5681L48.591 11.8598L48.5256 11.1793C48.0024 4.95778 42.5743 0 36.1653 0C29.3312 0 23.7396 5.50864 23.7396 12.3134V19.2478L23.1837 19.1506C22.4316 18.9886 21.6468 18.9238 20.8621 18.9238H19.6849C12.9816 18.9238 7.52081 24.3352 7.52081 30.978V34.8665L7.39001 34.9961C6.73603 35.6766 6.21284 36.4542 5.82045 37.2967C4.83948 39.403 4.70868 41.8009 5.52616 44.0043C6.08204 45.5273 7.06302 46.8559 8.33829 47.8604L8.79607 48.2168L8.33829 48.5732C7.25921 49.4157 6.40904 50.4851 5.82045 51.7164C4.83948 53.8227 4.70868 56.2205 5.52616 58.424C6.08204 59.947 7.06302 61.2755 8.33829 62.28L8.79607 62.6365L8.33829 62.9929C6.73603 64.2567 5.62426 66.0065 5.19917 67.9831L5.16647 68.1775L2.41974 69.7653C1.01367 70.543 0 72.2604 0 73.8806V161.403C0 163.38 1.63496 165 3.62961 165H93.1272C95.1219 165 96.7568 163.38 96.7568 161.403V73.8806C96.7241 72.2604 95.7432 70.543 94.3371 69.7329ZM55.3924 32.339C55.0327 31.9825 54.5095 31.7557 53.9863 31.7557C53.4631 31.7557 52.9399 31.9501 52.5803 32.339L48.591 36.2922V16.9148L48.7218 16.7852C50.324 15.165 52.4822 14.2577 54.7384 14.2577C59.022 14.2577 62.6189 17.4332 63.1094 21.6133L63.1421 21.8401L59.0874 25.8582C58.7277 26.2147 58.4988 26.7331 58.4988 27.2516C58.4988 27.77 58.695 28.2885 59.0874 28.6449C59.4471 29.0014 59.9703 29.2282 60.4935 29.2282C61.0166 29.2282 61.5398 29.0338 61.8995 28.6449L63.1748 27.3812V36.6811L48.5583 51.1656V41.8657L55.3597 35.1257C56.1772 34.3804 56.1772 33.1167 55.3924 32.339ZM63.1748 42.2545V50.7119L62.7497 50.7443C59.5452 50.9063 56.4388 51.684 53.5285 53.0774L53.0053 52.3321L63.1748 42.2545ZM45.6153 66.0713C49.1795 59.0397 56.2426 54.6652 64.0577 54.6652H66.085C73.9655 54.6652 81.0939 59.0721 84.6254 66.2009L84.7889 66.6222L84.3965 66.8166L80.7996 68.8904H80.7342C80.6034 68.9228 80.4726 68.9228 80.3745 68.9228C80.2765 68.9228 80.1457 68.9228 80.0149 68.8904H79.9822L76.3853 66.8166C76.1564 66.687 75.8948 66.5573 75.6005 66.4601L75.7967 65.5528C75.8621 65.5528 75.9275 65.5528 75.9929 65.5528H76.6795C77.7913 65.5528 78.6742 64.6779 78.6742 63.5762C78.6742 62.4745 77.7913 61.5996 76.6795 61.5996H75.9929C74.8811 61.5996 73.9982 62.4745 73.9982 63.5762C73.9982 64.3539 74.4887 65.0668 75.2081 65.3908L74.9465 66.2657C74.6195 66.2009 74.3252 66.1685 73.9982 66.1685C73.1153 66.1685 72.2652 66.3953 71.5785 66.7518L67.9816 68.8256H67.9489C67.8181 68.858 67.6873 68.858 67.5892 68.858C67.4911 68.858 67.3603 68.858 67.2295 68.8256H67.1641L63.5672 66.7518C62.9132 66.3629 62.0303 66.1685 61.1474 66.1685C60.2646 66.1685 59.4144 66.3953 58.7277 66.7518L55.1308 68.8256H55.0654C54.9346 68.858 54.8038 68.858 54.7057 68.858C54.6076 68.858 54.4768 68.858 54.346 68.8256H54.3133L50.7164 66.7842C50.0624 66.3953 49.1795 66.2009 48.2967 66.2009C47.5119 66.2009 46.7925 66.3629 46.1385 66.6546L44.9286 67.2378L45.6153 66.0713ZM27.7289 11.8598C27.9905 7.45287 31.6855 3.95326 36.1653 3.95326C40.8086 3.95326 44.6017 7.7121 44.6017 12.3134V60.271L44.5036 60.4006C42.8032 62.6041 41.4952 65.0668 40.6124 67.7239L40.4489 68.2747L37.9637 66.849C37.8329 66.7842 37.7021 66.7194 37.5386 66.6546L36.9174 66.3953L40.3181 63.0253C41.1029 62.2476 41.1029 61.0163 40.3181 60.2386C39.9584 59.8822 39.4352 59.6553 38.912 59.6553C38.3888 59.6553 37.8656 59.8498 37.5059 60.2386L35.1189 62.6041L34.8573 61.956C34.4649 61.0163 33.909 60.1414 33.2224 59.3637L32.9281 59.0397L40.3181 51.7164C41.1029 50.9387 41.1029 49.7074 40.3181 48.9297C39.9584 48.5732 39.4352 48.3464 38.912 48.3464C38.3888 48.3464 37.8656 48.5408 37.5059 48.9297L35.5767 50.8415L35.4786 49.9018C35.4132 49.1889 35.2497 48.5084 34.9881 47.828C34.8573 47.4391 34.6611 47.0503 34.4649 46.6614L34.2687 46.305L34.5957 46.0782C34.6611 46.0134 34.7265 45.9809 34.7919 45.9161L40.3181 40.4399C41.1029 39.6622 41.1029 38.4309 40.3181 37.6532C39.9584 37.2967 39.4352 37.0699 38.912 37.0699C38.3888 37.0699 37.8656 37.2643 37.5059 37.6532L34.7592 40.3751L35.217 38.7225C35.6094 37.3291 35.6094 35.8386 35.2824 34.4452L35.217 34.186L40.3181 29.131C40.6778 28.7745 40.9067 28.2561 40.9067 27.7376C40.9067 27.2192 40.7105 26.7007 40.3181 26.3443C39.9584 25.9878 39.4352 25.761 38.912 25.761C38.3888 25.761 37.8656 25.9554 37.5059 26.3443L33.0262 30.7836L32.9281 29.8115C32.5684 26.3767 30.7372 23.2659 27.8924 21.2569L27.6962 21.1273L27.7289 11.8598ZM9.45006 38.9493C10.0059 37.7828 10.9869 36.9079 12.1968 36.4542L14.78 35.5145C15.2705 35.3201 15.6629 34.9637 15.8918 34.51C16.1207 34.024 16.1534 33.5055 15.9572 32.987C15.6629 32.2093 14.9108 31.6909 14.0933 31.6909C13.8644 31.6909 13.6356 31.7233 13.4067 31.8205L11.5101 32.501V30.978C11.5101 26.5063 15.1724 22.8771 19.6849 22.8771H20.8621C23.7723 22.8771 26.4863 24.4324 27.9578 26.9599L28.4156 27.7376L27.5327 27.6728C27.2711 27.6404 27.0095 27.6404 26.7479 27.6404C25.7342 27.6404 24.6879 27.8348 23.7069 28.1589L22.5624 28.5153C22.0719 28.7097 21.6795 29.0662 21.4507 29.5198C21.2218 29.9735 21.1891 30.5244 21.3853 31.0428C21.6795 31.8205 22.4316 32.339 23.2491 32.339C23.478 32.339 23.7069 32.3066 23.9358 32.2093L25.0476 31.7881C25.5707 31.5937 26.1266 31.4965 26.7152 31.4965C28.7426 31.4965 30.5737 32.7602 31.2931 34.672C31.7509 35.871 31.6855 37.1995 31.1296 38.3661C30.5737 39.5326 29.5927 40.4075 28.3829 40.8612L15.0743 45.6245H15.0416C14.6492 45.7217 14.2568 45.7865 13.8317 45.7865C11.8044 45.7865 9.97324 44.5228 9.25386 42.611C8.82877 41.412 8.89417 40.1159 9.45006 38.9493ZM31.0969 67.2054C30.4429 68.5664 29.5927 68.858 29.4946 68.8904C29.3638 68.9228 29.2331 68.9228 29.135 68.9228C29.0369 68.9228 28.9061 68.9228 28.7753 68.8904H28.7426L25.1457 66.849C24.4917 66.4601 23.6088 66.2657 22.7259 66.2657C21.843 66.2657 20.9929 66.4925 20.3062 66.849L16.7093 68.9228H16.6439C16.5131 68.9552 16.3823 68.9552 16.2842 68.9552C16.1861 68.9552 16.0553 68.9552 15.9245 68.9228H15.8591L12.2622 66.849C12.0333 66.7194 11.739 66.5897 11.4774 66.4925L10.4637 66.1685L11.3793 65.65C11.6409 65.5204 11.8698 65.3908 12.1314 65.2936L25.44 60.5302H25.4727C25.865 60.433 26.2901 60.3682 26.6825 60.3682C28.7099 60.3682 30.541 61.632 31.2604 63.5438C31.7182 64.7427 31.6528 66.0713 31.0969 67.2054ZM9.45006 53.369C10.0059 52.2025 10.9869 51.3276 12.1968 50.8739L25.4727 46.1106H25.5053C25.8977 46.0134 26.3228 45.9485 26.7152 45.9485C28.7426 45.9485 30.5737 47.2123 31.2931 49.1241C31.7509 50.3231 31.6855 51.6516 31.1296 52.8181C30.5737 53.9847 29.5927 54.8596 28.3829 55.3132L15.0743 60.0766H15.0416C14.6492 60.1738 14.2241 60.2386 13.8317 60.2386C11.8044 60.2386 9.97324 58.9749 9.25386 57.063C8.82877 55.8317 8.89417 54.5355 9.45006 53.369ZM3.9893 161.047V73.8482V73.7834C4.022 73.589 4.18549 73.3297 4.34899 73.1677L4.38169 73.1353L9.51546 70.1866H9.54816C9.67895 70.1542 9.80975 70.1542 9.90785 70.1542C10.0059 70.1542 10.1367 70.1542 10.2675 70.1866H10.3002L13.8971 72.2604C14.5511 72.6493 15.434 72.8437 16.3169 72.8437C17.1998 72.8437 18.0499 72.6169 18.7366 72.2604L22.3335 70.219H22.3662C22.497 70.1866 22.6278 70.1866 22.7259 70.1866C22.824 70.1866 22.9548 70.1866 23.0856 70.219H23.1183L26.7152 72.2928C27.3692 72.6817 28.2521 72.8761 29.135 72.8761C30.0178 72.8761 30.868 72.6493 31.5547 72.2928L35.1516 70.219H35.1843C35.3151 70.1866 35.4459 70.1866 35.544 70.1866C35.6421 70.1866 35.7729 70.1866 35.9037 70.219H35.9364L39.5333 72.2928C40.1873 72.6817 41.0702 72.8761 41.953 72.8761C42.8359 72.8761 43.6861 72.6493 44.3728 72.2928L47.9697 70.219H48.0351C48.1659 70.1866 48.2967 70.1866 48.3948 70.1866C48.4929 70.1866 48.6237 70.1866 48.7545 70.219H48.7872L52.3841 72.2604C53.038 72.6493 53.9209 72.8437 54.8038 72.8437C55.6867 72.8437 56.5369 72.6169 57.2235 72.2604L60.8204 70.1866H60.8531C60.9839 70.1542 61.1147 70.1542 61.2128 70.1542C61.3109 70.1542 61.4417 70.1542 61.5725 70.1866H61.6052L65.2021 72.2604C65.8561 72.6493 66.739 72.8437 67.6219 72.8437C68.5048 72.8437 69.3549 72.6169 70.0416 72.2604L73.6385 70.219H73.6712C73.802 70.1866 73.9328 70.1866 74.0309 70.1866C74.129 70.1866 74.2598 70.1866 74.3906 70.219H74.4233L78.0202 72.2928C78.6742 72.6817 79.5571 72.8761 80.4399 72.8761C81.3228 72.8761 82.173 72.6493 82.8597 72.2928L86.4566 70.219H86.522C86.6528 70.1866 86.7836 70.1866 86.8817 70.1866C86.9798 70.1866 87.1106 70.1866 87.2414 70.219H87.2741L92.4078 73.1677L92.4405 73.2001C92.604 73.3297 92.7348 73.6214 92.8002 73.8158V73.8806V161.079H3.9893V161.047Z" fill="#87522F"/>
<path d="M67.4907 97.0494C67.1638 97.0494 66.8368 97.1142 66.5752 97.2762C65.5942 97.7947 65.2345 98.9936 65.7577 99.9333C67.2619 102.752 68.0466 105.928 68.0466 109.136C68.0466 119.926 59.2179 128.74 48.3944 128.74C37.571 128.74 28.7422 119.959 28.7422 109.136C28.7422 98.3455 37.571 89.5317 48.3944 89.5317C52.2202 89.5317 55.9479 90.6334 59.1198 92.7073C59.4468 92.9341 59.8064 93.0313 60.1988 93.0313C60.8855 93.0313 61.5068 92.7073 61.8665 92.1564C62.4551 91.2491 62.2262 90.0177 61.3106 89.4345C57.4848 86.9394 53.005 85.6108 48.3944 85.6108C35.3475 85.6108 24.7529 96.1745 24.7529 109.136C24.7529 122.097 35.3475 132.661 48.3944 132.661C61.4414 132.661 72.0359 122.097 72.0359 109.136C72.0359 105.28 71.0877 101.456 69.2565 98.0863C68.8968 97.4382 68.2101 97.0494 67.4907 97.0494Z" fill="#D98E49"/>
<path d="M56.6026 103.563C56.6026 99.6741 53.4308 96.4985 49.5069 96.4985H43.3921C42.2803 96.4985 41.3975 97.3734 41.3975 98.4752V119.829C41.3975 120.931 42.2803 121.806 43.3921 121.806H50.8802C55.0984 121.806 58.5318 118.403 58.5318 114.191C58.5318 111.793 57.4201 109.59 55.4908 108.131L55.1311 107.872L55.3927 107.516C56.1775 106.349 56.6026 104.956 56.6026 103.563ZM45.3868 100.452H49.5396C51.2399 100.452 52.646 101.845 52.646 103.563C52.646 105.021 51.6323 106.284 50.2262 106.609H50.1608H45.3868V100.452ZM50.8802 117.853H45.3868V110.594H49.5396C49.8338 110.594 50.1281 110.562 50.4551 110.529H50.4878H50.9129C52.9403 110.529 54.5752 112.182 54.5752 114.191C54.5752 116.2 52.8749 117.853 50.8802 117.853Z" fill="#D98E49"/>
<path d="M60.6894 137.781H36.0669C34.9551 137.781 34.0723 138.656 34.0723 139.758C34.0723 140.86 34.9551 141.735 36.0669 141.735H60.6894C61.8012 141.735 62.684 140.86 62.684 139.758C62.684 138.656 61.7685 137.781 60.6894 137.781Z" fill="#D98E49"/>
<path d="M55.5234 145.85H41.2339C40.1221 145.85 39.2393 146.725 39.2393 147.826C39.2393 148.928 40.1221 149.803 41.2339 149.803H55.5234C56.6352 149.803 57.5181 148.928 57.5181 147.826C57.5181 146.725 56.6025 145.85 55.5234 145.85Z" fill="#D98E49"/>
</svg>
