<svg width="180" height="167" viewBox="0 0 180 167" fill="none" xmlns="http://www.w3.org/2000/svg">
<path d="M3.99817 78.2637C3.37253 80.5382 3.05971 88.8091 6.81354 103.697C11.5058 122.306 16.1981 124.477 15.8853 135.333C15.6736 142.678 14.2535 150.837 13.2528 155.493M53.6799 75.1621C54.2335 74.3141 54.5471 73.4092 54.6749 72.6808C54.9877 71.0266 54.5498 67.346 50.2954 65.8573C46.0411 64.3685 43.1006 68.3386 42.1621 70.5097C43.4134 68.5246 43.1006 65.1336 42.7877 63.6862C42.2664 61.4116 39.597 56.8006 33.0904 56.5525C26.5837 56.3043 23.7058 62.2387 23.0801 65.2369C17.074 62.0113 13.6956 66.581 12.7571 69.269C12.0272 68.6487 9.94174 67.4701 7.43918 67.7182C4.31099 68.0284 0.557162 72.6808 4.62381 77.3332C7.87713 81.0551 12.6528 78.4704 14.634 76.7129C21.1407 79.9385 25.2699 75.7824 26.5212 73.3011C27.5222 75.5343 30.0664 76.5061 31.2134 76.7129C31.6305 78.5738 33.5283 82.4198 37.7826 82.9161C42.037 83.4123 44.7689 79.4009 45.6031 77.3332C49.9431 78.7101 52.4265 77.0823 53.6799 75.1621ZM53.6799 75.1621C53.885 93.0273 53.1108 100.905 48.7313 111.761C44.3518 122.617 42.6626 124.788 42.1621 133.472C41.5365 144.328 44.039 151.461 45.6031 157.044C46.8544 161.511 43.8305 163.661 42.1621 164.178C34.9673 164.798 19.6391 165.667 15.8853 164.178C12.1315 162.689 12.2357 159.215 12.7571 157.665C12.9018 157.075 13.0703 156.342 13.2528 155.493M34.3531 132.545C34.3531 130.167 35.5418 122.62 40.2967 111.454C43.384 104.204 44.792 97.2597 45.3428 92.2331M29.6493 155.493H13.2528" stroke="#87522F" stroke-width="4" stroke-linecap="round" stroke-linejoin="round"/>
<circle cx="23.2377" cy="85.2807" r="1.85393" fill="#1DA1F2"/>
<ellipse cx="35.2885" cy="93.16" rx="1.85393" ry="1.39045" fill="#1DA1F2"/>
<ellipse cx="15.3584" cy="96.4047" rx="2.31742" ry="1.85393" fill="#1DA1F2"/>
<circle cx="21.3842" cy="107.528" r="1.85393" fill="#1DA1F2"/>
<circle cx="35.2885" cy="108.455" r="1.85393" fill="#1DA1F2"/>
<circle cx="26.019" cy="127.921" r="1.85393" fill="#1DA1F2"/>
<circle cx="21.3842" cy="143.68" r="1.85393" fill="#1DA1F2"/>
<ellipse cx="32.9715" cy="142.753" rx="1.39045" ry="1.85393" fill="#1DA1F2"/>
<path d="M132.093 75.5986C112.363 67.7006 105.42 78.8895 104.416 85.4712L102.771 87.9393L104.416 102.474L106.882 104.668L113.733 165H153.467L161.14 104.668L163.332 102.474L164.976 87.9393M148.534 85.4712L154.837 74.6388M158.4 85.4712L176.607 55.5952L169.483 51.7559L154.837 74.6388M96.4688 86.8423H171.553M147.164 52.8369C151.183 56.0364 158.345 64.876 154.837 74.6388" stroke="#87522F" stroke-width="4" stroke-linecap="round"/>
<path d="M147.934 52.8369C147.661 55.8941 144.604 62.3322 134.557 63.627C121.998 65.2455 117.357 66.3245 117.084 72.7986M114.081 103.82H153.941" stroke="#87522F" stroke-width="4" stroke-linecap="round"/>
<path d="M148.567 130.702C148.798 130.377 148.979 130.024 149.104 129.652C149.328 128.989 149.366 128.286 149.216 127.606C149.066 126.926 148.732 126.29 148.244 125.755C147.755 125.219 147.128 124.8 146.417 124.534C145.706 124.269 144.933 124.166 144.167 124.234C143.401 124.302 142.666 124.539 142.026 124.924C141.386 125.309 140.862 125.83 140.499 126.442C140.281 126.809 140.126 127.201 140.036 127.606" stroke="#FF6F27" stroke-width="4" stroke-linecap="round"/>
<path d="M122.248 133.538C122.19 133.265 122.095 133.002 121.965 132.755C121.732 132.314 121.393 131.94 120.978 131.664C120.563 131.389 120.084 131.221 119.585 131.176C119.086 131.131 118.582 131.21 118.117 131.405C117.652 131.601 117.24 131.908 116.919 132.298C116.597 132.689 116.376 133.151 116.274 133.644C116.172 134.137 116.193 134.645 116.335 135.124C116.42 135.412 116.547 135.683 116.711 135.931" stroke="#FF6F27" stroke-width="4" stroke-linecap="round"/>
<circle cx="130.766" cy="140.899" r="4.48876" stroke="#FF6F27" stroke-width="4" stroke-linecap="round"/>
<circle cx="146.525" cy="140.899" r="4.48876" stroke="#FF6F27" stroke-width="4" stroke-linecap="round"/>
<path d="M144.525 153.876C144.525 156.498 142.586 158.365 140.5 158.365C138.414 158.365 136.475 156.498 136.475 153.876C136.475 151.255 138.414 149.388 140.5 149.388C142.586 149.388 144.525 151.255 144.525 153.876Z" stroke="#FF6F27" stroke-width="4" stroke-linecap="round"/>
<circle cx="124.278" cy="153.876" r="4.48876" stroke="#FF6F27" stroke-width="4" stroke-linecap="round"/>
<rect x="71.4082" y="2" width="36.7865" height="16.3933" rx="6" stroke="#87522F" stroke-width="4" stroke-linecap="round"/>
<path d="M76.4 19.4663V24.3457L64.9517 36.0139C64.033 36.9332 62.1956 39.9598 62.1956 44.712C62.1956 49.4641 62.1956 63.8053 62.1956 70.3819C61.9836 72.2912 63.0436 76.8736 68.9798 79.9286L64.9517 84.1715C64.033 85.303 62.1956 88.4145 62.1956 91.8089C62.1956 95.2032 62.1956 123.348 62.1956 136.996C62.1956 138.118 61.7292 141.664 64.9517 144.209C68.9798 147.392 69.8278 148.452 66.6478 150.998C63.4677 153.544 62.1956 156.726 62.1956 158.848C62.1956 160.969 63.0437 164.151 67.7078 165H104.759M102.851 148.665C101.833 148.665 89.7564 148.665 81.0641 148.665M103.325 19.4663V24.3457L113.713 36.0139C114.702 36.9332 116.681 39.9598 116.681 44.712C116.681 47.2064 116.681 52.0703 116.681 57.0084" stroke="#87522F" stroke-width="4" stroke-linecap="round" stroke-linejoin="round"/>
<path d="M62.9199 73.0628H97.2177M64.7739 38.0059H113.903M76.9814 90.3775C79.325 94.7239 84.0121 105.768 84.0121 115.174C84.0121 124.579 79.325 133.771 76.9814 137.191M96.6407 105.211C95.8295 108.274 95.3039 111.637 95.3039 115.174C95.3039 121.321 96.8916 126.425 98.808 130.239" stroke="#87522F" stroke-width="4" stroke-linecap="round" stroke-linejoin="round"/>
</svg>
