<svg width="21" height="21" viewBox="0 0 21 21" fill="none" xmlns="http://www.w3.org/2000/svg">
<path d="M2.67962 2.66698L4.08237 1.26424C4.47289 0.873711 5.10606 0.873711 5.49658 1.26423L8.71395 4.4816C9.10447 4.87213 9.10447 5.50529 8.71395 5.89581L6.52687 8.08289C6.1808 8.42896 6.095 8.95766 6.31388 9.39541C7.57918 11.926 9.63112 13.978 12.1617 15.2432C12.5995 15.4621 13.1282 15.3763 13.4742 15.0303L15.6613 12.8432C16.0518 12.4527 16.685 12.4527 17.0755 12.8432L20.2929 16.0605C20.6834 16.4511 20.6834 17.0842 20.2929 17.4748L18.8902 18.8775C16.7788 20.9889 13.4362 21.2264 11.0475 19.4349L8.57594 17.5812C6.83241 16.2735 5.28359 14.7247 3.97594 12.9812L2.12226 10.5096C0.330722 8.1209 0.568273 4.77833 2.67962 2.66698Z" fill="white"/>
</svg>
