<svg width="56" height="56" viewBox="0 0 56 56" fill="none" xmlns="http://www.w3.org/2000/svg">
<path d="M1.20483 0C1.75249 0 2.30016 0 2.84374 0C2.90096 0.167434 3.05627 0.106178 3.16662 0.13068C6.81636 0.857589 9.3299 2.93622 10.6705 6.41558C10.9565 7.16291 11.0628 7.95107 11.2345 8.7229C11.774 11.116 12.293 13.5172 12.7712 15.9226C12.8652 16.4004 13.0409 16.5147 13.5069 16.5147C26.9369 16.5025 40.367 16.5106 53.7971 16.4902C54.8148 16.4902 55.5668 16.7556 56 17.7031C56 17.993 56 18.2871 56 18.577C55.3992 19.9941 55.0804 21.5051 54.6308 22.967C54.1567 24.523 53.7194 26.0993 53.2821 27.6715C52.6895 29.791 52.0683 31.8982 51.447 34.0095C51.0383 35.4021 50.7727 36.8559 50.1187 38.1545C48.5616 41.2541 45.9908 42.8263 42.5209 42.8345C34.5552 42.8549 26.5895 42.859 18.6239 42.8223C17.2915 42.8141 16.4945 43.5573 16.5149 44.4803C16.5395 45.5175 17.2833 46.1097 18.6034 46.1097C29.3401 46.1097 40.0768 46.1097 50.8135 46.1097C51.8721 46.1097 52.6118 46.7876 52.6159 47.7473C52.62 48.707 51.8802 49.3889 50.8258 49.3971C50.2618 49.4012 49.6978 49.3971 49.1051 49.3971C49.5956 51.8229 49.1542 53.9015 46.9267 55.245C45.1979 56.2864 43.3833 56.2537 41.7157 55.1266C39.6886 53.7586 39.1 51.7902 39.7008 49.4502C39.6559 49.4298 39.6232 49.4053 39.5905 49.4053C35.1969 49.4012 30.8033 49.4012 26.4138 49.393C26.0705 49.393 26.1481 49.5482 26.1931 49.7646C26.3647 50.5691 26.3893 51.4022 26.2135 52.1904C25.6209 54.8326 22.8703 56.4783 20.2587 55.8086C17.5531 55.1144 15.9428 52.3946 16.7029 49.7442C16.8256 49.3195 16.7479 49.1929 16.3392 49.0296C13.2412 47.7881 12.244 43.9616 14.3284 41.3848C14.7207 40.8988 15.2071 40.5149 15.7507 40.1678C15.6321 40.0126 15.5259 39.8738 15.4114 39.7349C14.7126 38.861 14.1526 37.885 13.9074 36.8028C13.1145 33.2826 12.387 29.7461 11.635 26.2177C10.4538 20.672 9.27268 15.1303 8.08335 9.58457C7.8136 8.32678 7.59699 7.04856 6.79184 5.97453C5.53711 4.3002 3.88185 3.3691 1.7811 3.27517C0.841081 3.23433 0.207587 2.75245 0.0318438 1.92753C-0.119377 1.19654 0.27298 0.530888 1.10265 0.106178C1.14352 0.0857589 1.16805 0.0367538 1.20483 0ZM41.1272 36.1862C41.965 36.1821 42.5985 35.6471 42.7457 34.7813C43.3015 31.5103 43.8492 28.2392 44.3928 24.964C44.5072 24.2738 44.217 23.5959 43.6407 23.2774C42.7416 22.7792 41.3765 22.8895 41.1231 24.4658C40.9228 25.7154 40.7185 26.965 40.5141 28.2106C40.1831 30.2525 39.8398 32.2943 39.5169 34.3403C39.3657 35.3245 40.1381 36.1943 41.1272 36.1862ZM23.0338 23.0446C21.8731 22.8976 21.2968 24.1799 21.4644 25.062C21.7791 26.7363 22.0366 28.4229 22.3145 30.1014C22.576 31.6695 22.8294 33.2418 23.1074 34.8059C23.2831 35.786 24.1169 36.3413 25.0773 36.1576C25.9274 35.9942 26.4669 35.1326 26.2953 34.1974C26.1767 33.5562 26.0296 32.9151 25.9438 32.2739C25.6005 29.6481 25.0937 27.0467 24.7095 24.429C24.5828 23.5592 23.9289 23.0446 23.0338 23.0446ZM31.2733 29.5827C31.2815 29.5827 31.2856 29.5827 31.2937 29.5827C31.2937 31.2203 31.2856 32.8538 31.2978 34.4914C31.306 35.4878 31.9763 36.1821 32.9081 36.1902C33.84 36.1984 34.547 35.5083 34.5511 34.5241C34.5675 31.3428 34.5756 28.1616 34.5634 24.9763C34.5634 24.5556 34.5429 24.1105 34.2855 23.7348C33.8849 23.1467 33.0757 22.869 32.3482 23.0936C31.7024 23.2897 31.2978 23.8532 31.2856 24.621C31.2529 26.2708 31.2733 27.9247 31.2733 29.5827Z" fill="#70A42F"/>
</svg>
