<svg width="26" height="24" viewBox="0 0 26 24" fill="none" xmlns="http://www.w3.org/2000/svg">
<path d="M25.0322 4.42486C25.0322 4.5582 25.0322 4.68659 25.0322 4.81993C25.0029 4.894 24.9639 4.96314 24.9443 5.04215C24.0117 8.33598 23.0791 11.6298 22.1514 14.9236C21.9609 15.6002 21.79 15.7335 21.1016 15.7335C16.8047 15.7335 12.5078 15.7335 8.21582 15.7335C7.73731 15.7335 7.41016 16.0397 7.40527 16.4693C7.40039 16.899 7.73242 17.2051 8.20605 17.215C8.26953 17.215 8.33789 17.215 8.40137 17.215C12.6494 17.215 16.8975 17.215 21.1406 17.215C21.2285 17.215 21.3213 17.2101 21.4092 17.2199C21.7119 17.2496 21.9316 17.4027 22.0439 17.6841C22.2441 18.1829 21.8877 18.6866 21.3262 18.6965C20.9697 18.7014 20.6133 18.6965 20.2568 18.6965C21.3799 18.9483 22.1807 19.9459 22.0928 21.0224C22 22.2125 21.1455 23.0669 19.9736 23.136C18.9531 23.1953 17.9375 22.3854 17.752 21.3632C17.6396 20.7409 17.752 20.1681 18.1084 19.6496C18.46 19.1409 18.9531 18.8446 19.5537 18.7064C16.3506 18.7064 13.1523 18.7064 9.89551 18.7064C11.2627 18.9977 11.8779 20.099 11.7803 21.0866C11.6631 22.2817 10.75 23.1311 9.60742 23.1409C8.49414 23.1508 7.57129 22.3162 7.4248 21.1557C7.30273 20.2076 7.85449 19.0274 9.25586 18.7064C8.88965 18.6965 8.52832 18.7064 8.16211 18.6965C7.22461 18.6669 6.5166 18.2372 6.13574 17.3681C5.77441 16.5483 5.88672 15.7483 6.46289 15.0619C6.67773 14.8051 6.9707 14.6175 7.24902 14.3804C6.37988 10.4101 5.50098 6.41005 4.62207 2.40017C4.51465 2.40017 4.42676 2.40017 4.33887 2.40017C3.23047 2.40017 2.12695 2.38536 1.01855 2.40511C0.564453 2.41499 0.227539 2.28659 0.0322266 1.85696C0.0322266 1.72363 0.0322266 1.59523 0.0322266 1.4619C0.188477 1.1656 0.383789 0.923626 0.75 0.923626C2.22949 0.918687 3.71387 0.918687 5.19336 0.923626C5.58398 0.923626 5.83789 1.16066 5.93555 1.55079C5.97461 1.70881 6.00391 1.87177 6.03809 2.03474C6.1748 2.64708 6.31152 3.26437 6.44824 3.88659C6.57031 3.88659 6.66309 3.88659 6.76074 3.88659C12.5225 3.88659 18.2842 3.89153 24.0459 3.88165C24.5 3.87672 24.8369 4.00017 25.0322 4.42486Z" fill="white"/>
</svg>
