<svg width="1440" height="877" viewBox="0 0 1440 877" fill="none" xmlns="http://www.w3.org/2000/svg">
<path d="M0 53.9989C0.55542 53.9101 1.12329 53.8108 1.70288 53.7031C9.66736 52.2783 17.5558 50.7205 25.4209 49.1673L25.4225 49.1669C44.1565 45.4672 62.7571 41.7939 81.9321 40.0077C108.868 37.4715 136.384 37.7251 163.03 40.2613C192.283 43.0511 220.668 41.783 249.921 38.9932C256.149 38.4611 262.139 37.2313 268.14 35.9991C273.58 34.8821 279.031 33.763 284.677 33.16C295.973 31.8919 307.269 32.9064 317.985 35.9498C321.751 36.9643 325.371 38.2958 328.991 39.6273C332.612 40.9588 336.232 42.2903 339.998 43.3047C342.604 44.0656 345.211 44.5728 347.818 44.3192C352.127 43.9762 355.244 41.5452 358.423 39.066C359.945 37.8793 361.481 36.6814 363.168 35.6962C369.54 31.8919 376.492 28.5949 383.733 26.3123C390.081 24.1867 395.828 24.3802 401.827 24.5821C405.133 24.6935 408.515 24.8073 412.117 24.537C418.107 24.0453 423.371 21.6469 428.613 19.2586C431.482 17.9513 434.344 16.6472 437.315 15.6603C446.584 12.8705 457.01 13.1241 466.569 13.3778C477.135 13.4387 487.701 13.4119 498.267 13.3851C531.725 13.3003 565.184 13.2154 598.642 15.9139L598.643 15.914L598.644 15.9141H598.645C607.333 16.6749 616.021 17.4358 624.71 18.4501C629.052 18.9255 633.509 18.9059 638.007 18.886C640.709 18.8741 643.426 18.8622 646.143 18.9574C654.454 19.3433 662.765 19.7892 671.077 20.2351C700.997 21.8402 730.918 23.4453 760.839 22.2544C779.665 21.4936 798.202 19.4646 816.449 15.1531C822.831 13.6627 829.097 11.7958 835.36 9.92972L835.364 9.92868L835.366 9.92833C846.153 6.71413 856.933 3.50199 868.293 2.21854C889.147 -0.317614 910.291 -0.317614 931.434 0.443203C948.233 0.950491 965.032 1.71131 981.541 4.24752C991.772 5.84718 1001.43 8.65769 1011.09 11.4698L1011.09 11.4701L1011.09 11.4715C1016.74 13.1172 1022.4 14.7634 1028.17 16.1676C1055.4 23.0153 1083.78 24.2834 1111.88 23.2689C1156.15 21.9705 1200.42 19.5868 1244.58 17.2092L1244.58 17.2092C1260.8 16.3359 1277.01 15.4634 1293.19 14.6459C1322.65 13.1284 1351.53 13.3763 1380.99 13.6292L1381.24 13.6314C1393.4 13.6314 1404.99 14.8995 1416.28 19.4646C1424.35 22.826 1433.17 22.5119 1442 21.9175V877H0V53.9989Z" fill="#FFF8F2"/>
</svg>
