<svg width="123" height="123" viewBox="0 0 123 123" fill="none" xmlns="http://www.w3.org/2000/svg">
<path d="M0.0809177 64.1334C0.283212 63.4852 0.445047 62.837 0.647342 62.2293C2.14432 57.6512 6.31158 54.4506 11.1262 54.248C13.0277 54.167 14.9698 54.2075 16.8713 54.2075C33.7427 54.2075 50.614 54.2075 67.4854 54.2075C72.5427 54.2075 76.4268 56.2737 78.6115 60.8518C79.3803 62.4723 79.7444 64.4575 79.7444 66.2806C79.8658 75.7204 79.8253 85.1601 79.7848 94.5998C79.7444 101.73 74.8084 106.632 67.6877 106.632C55.9141 106.632 44.1001 106.632 32.3266 106.632C31.3556 106.632 30.5869 106.916 29.8586 107.605C25.0036 112.264 20.1485 116.882 15.253 121.501C14.6461 122.068 13.9178 122.514 13.23 123C12.7445 123 12.259 123 11.7735 123C9.8315 121.866 9.46737 121.136 9.87196 118.908C10.1552 117.328 10.4384 115.748 10.7216 114.168C11.1666 111.697 11.6117 109.266 12.0163 106.835C11.8544 106.754 11.814 106.713 11.7735 106.713C11.5712 106.713 11.3689 106.673 11.1666 106.673C6.79709 106.389 3.47946 104.364 1.41606 100.515C0.768718 99.2994 0.485506 97.9219 0 96.585C0.0809177 85.7678 0.0809177 74.9506 0.0809177 64.1334ZM13.7155 118.017C14.2415 117.531 14.5247 117.247 14.8484 116.963C19.0561 112.953 23.2638 108.982 27.4311 104.971C28.7662 103.675 30.3037 103.067 32.1648 103.067C43.8978 103.108 55.6714 103.067 67.4044 103.067C72.9473 103.067 76.184 99.8261 76.184 94.2757C76.184 86.497 76.184 78.7589 76.184 70.9802C76.184 69.0761 76.2245 67.1314 76.1435 65.2273C75.9413 61.8241 73.5946 58.9881 70.3175 58.1374C69.3465 57.8943 68.2541 57.8538 67.2426 57.8538C49.0361 57.8538 30.8701 57.8538 12.6636 57.8538C12.259 57.8538 11.8544 57.8538 11.4499 57.8538C6.95892 58.0563 3.68176 61.419 3.6413 65.9565C3.60084 75.6393 3.60084 85.3221 3.6413 95.0049C3.6413 99.583 7.12076 103.027 11.6926 103.108C15.0102 103.148 16.1431 104.607 15.4957 107.848C14.9293 111.129 14.3629 114.452 13.7155 118.017ZM0.0809177 25.4832C0.121377 25.6453 0.202294 25.7668 0.242753 25.9289C1.33514 30.3449 3.56038 32.0464 8.09177 32.0464C11.8544 32.0464 15.6171 32.087 19.3798 32.0059C20.3508 32.0059 20.8768 32.33 21.3218 33.1808C22.8188 35.8953 24.4371 38.5692 25.9746 41.2836C27.8357 44.4842 30.6678 44.5247 32.4885 41.3241C34.0663 38.6097 35.6847 35.8953 37.2221 33.0998C37.6672 32.2895 38.1527 31.9654 39.0832 32.0059C43.1291 32.0464 47.175 32.0464 51.1804 32.0059C55.2668 31.9654 58.0584 29.17 58.2607 25.0781C58.3012 24.3488 58.2607 23.6196 58.2607 22.9308C58.2607 17.7451 58.3012 12.5188 58.2607 7.333C58.2203 3.11957 55.3882 0.0405138 51.4636 0C36.6153 0 21.8073 0 6.95892 0.0405138C3.72221 0.0405138 1.01147 2.39032 0.323671 5.59091C0.242753 5.87451 0.161835 6.19862 0.0809177 6.48221C0.0809177 6.96838 0.0809177 7.45455 0.0809177 7.94071C0.485506 8.91304 1.09239 9.72332 2.30615 9.48024C3.51992 9.23715 3.72221 8.30534 3.76267 7.21146C3.84359 4.82115 5.17873 3.60573 7.64672 3.60573C21.9692 3.60573 36.2916 3.60573 50.5736 3.60573C53.3652 3.60573 54.6194 4.82115 54.6194 7.6166C54.6194 13.2075 54.6194 18.8389 54.6194 24.4298C54.6194 27.2253 53.4057 28.4407 50.5736 28.4407C46.5681 28.4407 42.5627 28.4812 38.5977 28.4407C36.6557 28.4002 35.2801 29.1294 34.3091 30.9121C32.6907 33.8696 30.951 36.746 29.2113 39.7441C28.9281 39.2984 28.7258 38.9743 28.5639 38.6502C27.067 36.0978 25.5295 33.5455 24.1135 30.9526C23.1425 29.1294 21.7264 28.4002 19.7439 28.4407C15.8599 28.4812 11.9758 28.4407 8.09177 28.4407C4.89552 28.4407 3.76267 27.3063 3.72221 24.1057C3.72221 21.5128 3.72221 18.92 3.72221 16.2866C3.72221 15.3547 3.31763 14.6255 2.34661 14.4229C1.41606 14.2204 0.6878 14.585 0.283212 15.4358C0.202294 15.5573 0.121377 15.6789 0.0404588 15.8409C0.0809177 19.082 0.0809177 22.2826 0.0809177 25.4832ZM122.995 68.671C122.752 60.8113 122.954 52.9921 122.954 45.1324C122.954 38.2451 118.585 33.8696 111.747 33.8291C106.609 33.8291 101.43 33.8291 96.2921 33.8291C85.1254 33.8291 73.9992 33.8696 62.8326 33.8291C58.9485 33.8291 55.8332 35.2876 53.5675 38.4476C51.5041 41.3241 51.585 44.6057 51.7873 47.9279C51.8278 48.8597 52.5965 49.4269 53.5675 49.3864C54.579 49.3459 55.2263 48.7787 55.3072 47.7253C55.3882 46.834 55.3477 45.9832 55.3477 45.0919C55.3477 40.2708 58.1394 37.4753 62.9135 37.4753C69.9129 37.4753 76.9123 37.4753 83.9116 37.4753C93.3386 37.4753 102.765 37.4753 112.233 37.4753C116.279 37.4753 119.354 40.3113 119.394 44.1601C119.475 52.83 119.435 61.5405 119.394 70.2105C119.394 73.1275 117.331 75.7609 114.579 76.5711C113.689 76.8142 112.678 76.8547 111.747 76.8953C109.724 77.0168 108.43 78.5968 108.753 80.5415C108.915 81.4733 109.118 82.4457 109.279 83.3775C109.643 85.4032 110.008 87.4289 110.412 89.7381C109.886 89.252 109.603 89.0089 109.32 88.7253C105.719 85.3221 102.118 81.919 98.5173 78.4753C97.3844 77.3814 96.0898 76.8547 94.5119 76.8953C92.0034 76.9358 89.4545 76.8953 86.9461 76.8953C85.6109 76.8953 84.8422 77.5435 84.8017 78.6374C84.7613 79.7717 85.5705 80.4605 86.9461 80.501C89.2927 80.501 91.6797 80.5415 94.0264 80.501C94.9974 80.4605 95.6852 80.7441 96.373 81.4328C100.662 85.5652 104.991 89.6571 109.32 93.749C109.846 94.2352 110.534 94.7619 111.221 94.8834C113.325 95.329 114.741 93.5464 114.337 91.1561C113.689 87.6719 113.082 84.1472 112.435 80.582C119.475 80.0958 123.157 74.667 122.995 68.671ZM63.6822 44.9298C63.2776 44.9298 62.873 44.8893 62.4685 44.9704C61.4974 45.0919 60.9715 45.6996 60.8906 46.6719C60.8501 47.5632 61.3356 48.2115 62.1852 48.4545C62.5898 48.5761 63.0349 48.5356 63.4799 48.5356C79.3398 48.5356 95.2401 48.5356 111.1 48.5356C111.505 48.5356 111.909 48.5761 112.273 48.4545C113.204 48.2115 113.73 47.5632 113.649 46.6314C113.608 45.6996 113.042 45.0919 112.071 44.9704C111.666 44.9298 111.262 44.9298 110.857 44.9298C103.008 44.9298 95.1997 44.9298 87.3506 44.9298C79.5016 44.9298 71.5717 44.9298 63.6822 44.9298ZM111.505 59.8389C112.921 59.8389 113.73 59.1502 113.73 58.0563C113.73 56.9625 112.88 56.2737 111.505 56.2332C103.615 56.2332 95.6852 56.2332 87.7957 56.2332C86.3392 56.2332 85.4895 56.9625 85.53 58.1374C85.5705 59.2312 86.3796 59.8389 87.8362 59.8389C91.7607 59.8389 95.6447 59.8389 99.5692 59.8389C103.534 59.8389 107.54 59.8794 111.505 59.8389ZM46.8918 13.7342C48.1865 13.7342 48.9957 13.0049 48.9957 11.9516C48.9957 10.8982 48.1865 10.169 46.8918 10.1285C46.6895 10.1285 46.4872 10.1285 46.2849 10.1285C34.916 10.1285 23.5066 10.1285 12.1377 10.1285C11.6117 10.1285 11.0857 10.1285 10.6002 10.2905C9.30554 10.7362 8.98186 12.4377 10.1147 13.248C10.5598 13.5721 11.2071 13.6937 11.7735 13.6937C17.5591 13.7342 23.3448 13.6937 29.1708 13.6937C35.0778 13.7342 40.9848 13.7342 46.8918 13.7342ZM11.6521 19.2036C10.2361 19.2036 9.42691 19.8518 9.42691 20.9862C9.42691 22.1206 10.2361 22.8093 11.6117 22.8093C17.3164 22.8093 23.0211 22.8093 28.7662 22.8093C30.1418 22.8093 30.9915 22.1206 30.9915 21.0267C30.9915 19.9328 30.1823 19.2441 28.7662 19.2441C25.9341 19.2441 23.102 19.2441 20.2699 19.2441C17.4378 19.2036 14.5247 19.163 11.6521 19.2036ZM16.3049 79.0425C15.9408 79.0425 15.5767 79.002 15.2125 79.0425C14.2011 79.164 13.5942 79.7312 13.5537 80.7441C13.5133 81.7569 14.1201 82.3646 15.0911 82.5672C15.4553 82.6482 15.8194 82.6077 16.1835 82.6077C32.0434 82.6077 47.9437 82.6077 63.8036 82.6077C64.2082 82.6077 64.6128 82.6482 64.9769 82.5267C65.867 82.2836 66.393 81.6759 66.3525 80.663C66.2716 79.6907 65.7052 79.1235 64.7746 79.002C64.4105 78.9615 64.0463 78.9615 63.6822 78.9615C55.7523 78.9615 47.8628 78.9615 39.9329 78.9615C32.0434 79.0425 24.1944 79.0425 16.3049 79.0425ZM63.5204 71.2638C64.0464 71.2638 64.5723 71.2638 65.0578 71.1423C65.9479 70.8992 66.3525 70.251 66.312 69.3597C66.2716 68.5089 65.8265 67.9417 64.9769 67.7391C64.5319 67.6581 64.0868 67.6581 63.6822 67.6581C47.9033 67.6581 32.1243 67.6581 16.3049 67.6581C14.4033 67.6581 13.4728 68.2658 13.5133 69.4812C13.5537 70.6966 14.4033 71.2233 16.2645 71.2233C24.1539 71.2233 32.0029 71.2233 39.8924 71.2233C47.7819 71.2638 55.6714 71.2638 63.5204 71.2638ZM39.5687 93.9516C40.9444 93.9516 41.794 93.2628 41.794 92.169C41.794 91.0751 40.9444 90.3864 39.5283 90.3864C31.6388 90.3864 23.7089 90.3864 15.8194 90.3864C14.4033 90.3864 13.5942 91.0751 13.5537 92.169C13.5133 93.3034 14.3629 93.9921 15.8599 93.9921C19.7844 93.9921 23.6684 93.9921 27.5929 93.9921C31.5579 93.9921 35.5633 93.9921 39.5687 93.9516Z" fill="#672900"/>
</svg>
