<svg width="99" height="141" viewBox="0 0 99 141" fill="none" xmlns="http://www.w3.org/2000/svg">
<path d="M37.5758 73.9674C44.8609 73.9674 52.0693 74.0444 59.3543 73.8903C62.5751 73.8133 63.6487 75.2001 63.6487 78.2051C63.572 86.9116 63.572 95.6182 63.6487 104.325C63.6487 107.253 62.4984 108.485 59.5077 108.485C45.0143 108.408 30.4442 108.408 15.9507 108.485C12.96 108.485 11.5797 107.484 11.6564 104.248C11.8098 95.5411 11.8098 86.8346 11.6564 78.128C11.5797 74.969 12.5766 73.8133 15.7974 73.8903C23.0824 74.1215 30.2908 73.9674 37.5758 73.9674ZM37.3458 103.939C43.6339 103.939 49.8454 103.862 56.1336 103.939C58.1274 103.939 58.8175 103.323 58.8175 101.32C58.7408 94.6165 58.7408 87.9903 58.8175 81.287C58.8175 79.3608 58.2807 78.5133 56.2102 78.5133C43.7106 78.5903 31.211 78.5903 18.7114 78.5133C16.871 78.5133 16.2575 79.1296 16.2575 80.9788C16.3342 87.7592 16.3342 94.5395 16.2575 101.397C16.2575 103.477 17.0243 104.017 18.9415 103.939C25.0762 103.862 31.211 103.939 37.3458 103.939Z" fill="#FFBF60"/>
<path d="M73.0039 69.4984C70.6266 69.4984 70.7033 71.6557 70.6267 73.5049C70.6267 74.2754 70.6267 75.0459 70.6267 75.8164C70.6267 89.9164 70.6267 104.016 70.6267 118.116C70.6267 124.666 70.6267 124.666 64.2618 124.666C48.5414 124.666 32.8211 124.589 17.1774 124.743C15.2603 124.743 11.7328 123.202 11.8861 126.977C12.0395 130.367 15.337 129.134 17.3308 129.134C33.818 129.212 50.3052 129.211 66.7157 129.211C67.7893 129.211 69.323 128.595 69.8598 129.828C70.3199 131.215 70.55 132.833 69.6298 134.22C68.3261 136.223 66.409 136.3 64.3385 136.3C46.471 136.3 28.6034 136.3 10.7359 136.3C4.98451 136.3 4.5244 135.838 4.5244 129.905C4.5244 101.782 4.60109 73.7361 4.44772 45.6131C4.44772 42.1459 5.06119 39.141 7.20837 36.3672C9.12548 33.9016 11.0426 31.282 12.5763 28.5082C14.0333 25.8115 16.0271 24.8869 19.0178 25.118C22.3153 25.3492 25.6894 25.1951 28.9868 25.1951C30.7506 25.1951 32.2076 24.3475 32.2076 22.6525C32.2076 20.9574 30.5972 20.6492 29.0635 20.6492C27.2998 20.7262 25.4593 20.6492 23.6956 20.6492C15.7204 20.6492 15.7204 20.6492 16.3339 12.559C16.3339 12.4049 16.3339 12.3279 16.3339 12.1738C16.1805 10.6328 16.9473 10.1705 18.4043 10.1705C31.134 10.1705 43.9404 10.1705 56.67 10.1705C57.6669 10.1705 58.5872 10.1705 58.9706 11.5574C61.0411 18.5689 58.2804 22.1131 51.1487 21.3426C49.9985 21.1885 48.6181 20.1869 48.4648 22.4213C48.3881 24.1934 49.4617 25.041 50.9954 25.118C53.2959 25.1951 55.5964 25.1951 57.897 25.118C59.2006 25.118 60.3509 25.1951 61.1944 26.582C63.495 30.2033 66.0256 33.6705 68.3261 37.1377C67.5593 38.2934 66.4857 38.0623 65.7188 38.3705C64.5686 38.8328 64.2618 39.7574 64.4152 40.8361C64.5686 41.8377 65.182 42.6853 66.1789 42.5312C70.7033 41.7607 71.1634 44.3803 71.0101 47.9246C70.9334 49.0033 71.6236 50.3902 73.0039 50.3131C74.4609 50.2361 75.2277 49.1574 75.2277 47.6935C75.3811 43.0705 75.2277 38.8328 72.3137 34.6721C68.0194 28.5082 61.8846 22.9607 63.495 14.023C63.8784 11.7115 63.495 9.7082 66.7924 9.93935C67.9427 10.0164 69.3997 9.47705 69.2463 7.70492C69.093 6.08689 67.866 5.70164 66.5624 5.54754C65.6422 5.47049 64.7986 5.54754 63.8784 5.54754C56.9768 5.54754 50.0751 5.47049 43.1735 5.54754C40.9497 5.54754 39.416 5.31639 39.646 2.46557C39.7227 1.54098 39.646 0 37.7289 0C35.8118 0 35.1983 1.30984 35.275 2.77377C35.505 5.54754 34.048 5.85574 31.8242 5.85574C24.3857 5.77869 17.024 5.85574 9.58559 5.77869C7.89853 5.77869 5.90473 5.70164 5.90473 8.01312C5.90473 9.8623 7.51511 10.4787 9.20217 10.3246C11.2727 10.2475 11.6561 11.0951 11.7328 13.0213C11.9628 18.5689 11.8095 23.8852 7.43842 28.2C5.59799 30.0492 4.44772 32.5148 2.91402 34.7492C1.15027 37.2918 0 39.9115 0 43.2246C0.0766848 72.8115 0 102.475 0.0766848 132.062C0.0766848 137.918 3.14407 140.923 9.0488 140.923C28.0666 140.923 47.0844 140.923 66.1022 140.923C71.8536 140.923 75.1511 137.764 75.1511 131.985C75.2277 112.492 75.1511 92.9984 75.1511 73.5049C75.1511 71.8098 75.5345 69.4984 73.0039 69.4984Z" fill="#87522F"/>
<path d="M88.2642 68.7279C85.8103 70.3459 84.7367 69.4213 83.3564 68.0344C79.9823 64.4902 76.4548 60.9459 73.3874 57.2475C65.3355 47.6164 56.9768 38.4475 48.6949 29.1246C45.6275 25.6574 42.9435 21.882 39.2627 18.9541C38.5725 18.4147 37.4989 17.4131 36.6554 18.5688C35.9652 19.4934 35.1217 20.7262 36.502 21.959C37.0388 22.4213 37.4989 23.1147 38.0357 23.6541C52.2224 39.6033 66.4091 55.6295 80.6724 71.6557C82.0528 73.2738 83.203 74.7377 82.8196 77.0492C82.2061 80.5934 87.1906 84.677 90.7948 84.5229C94.9358 84.3689 98.9234 80.6705 99.0001 76.5098C99.1535 71.1164 92.4052 66.0311 88.2642 68.7279ZM90.1813 79.9C89.1844 79.6688 87.9575 79.3607 89.1844 77.9738C89.7212 77.3574 89.8746 76.6639 89.8746 75.8934C89.8746 74.8148 87.344 72.8885 90.6414 72.8115C92.7886 72.7344 94.1689 73.9672 94.399 75.7393C94.5524 78.359 92.3285 80.3623 90.1813 79.9Z" fill="#87522F"/>
<path d="M11.8099 40.4509C11.7332 42.6853 13.5737 42.8394 15.3374 42.8394C19.9385 42.8394 24.5396 42.8394 29.1407 42.8394C33.9718 42.8394 38.803 42.8394 43.7108 42.8394C45.4745 42.8394 46.8549 42.223 46.7782 40.3738C46.7015 38.6787 45.1678 38.2935 43.6341 38.3705C34.2019 38.3705 24.7697 38.3705 15.3374 38.3705C13.7271 38.3705 11.9633 38.5246 11.8099 40.4509Z" fill="#87522F"/>
</svg>
