<svg width="26" height="26" viewBox="0 0 26 26" fill="none" xmlns="http://www.w3.org/2000/svg">
<g clip-path="url(#clip0)">
<path d="M25.2098 13.268C25.2098 6.30648 19.5664 0.663086 12.6049 0.663086C5.6434 0.663086 0 6.30648 0 13.268C0 19.5593 4.6094 24.7741 10.6354 25.7197V16.9116H7.43492V13.268H10.6354V10.491C10.6354 7.33186 12.5173 5.58687 15.3964 5.58687C16.7751 5.58687 18.218 5.83306 18.218 5.83306V8.93505H16.6286C15.0628 8.93505 14.5744 9.90676 14.5744 10.9046V13.268H18.0703L17.5114 16.9116H14.5744V25.7197C20.6004 24.7741 25.2098 19.5593 25.2098 13.268Z" fill="white"/>
</g>
<defs>
<clipPath id="clip0">
<rect width="25.2098" height="25.2098" fill="white" transform="translate(0 0.663086)"/>
</clipPath>
</defs>
</svg>
