<svg width="98" height="122" viewBox="0 0 98 122" fill="none" xmlns="http://www.w3.org/2000/svg">
<path d="M0.0319194 119.582C0.606469 118.628 1.46829 118.373 2.55355 118.373C15.5448 118.405 4.16545 118.405 17.1247 118.405C17.6035 118.405 18.0823 118.405 18.6569 118.405C18.4015 115.797 18.1461 113.283 17.8589 110.77C17.1566 104.089 16.4225 97.4405 15.7522 90.7599C15.4011 87.2605 17.6993 84.7791 21.2104 84.7154C22.9021 84.6836 24.6258 84.7154 26.3814 84.7154C26.3814 81.0888 26.3814 77.653 26.3814 74.2172C26.2856 74.1536 26.2218 74.1218 26.2218 74.1218C21.6573 76.1578 16.9013 77.8757 12.5603 80.2935C8.09153 82.7749 6.08061 87.0696 6.04869 92.1278C5.98485 98.8085 6.04869 105.457 6.01677 112.138C6.01677 112.52 6.04869 112.933 5.98485 113.315C5.82525 114.206 5.21878 114.874 4.35696 114.747C3.71857 114.651 3.08018 114.11 2.63331 113.601C2.37796 113.315 2.4418 112.711 2.4418 112.233C2.4418 105.68 2.37796 99.1266 2.4418 92.605C2.50563 84.5246 6.30405 78.8301 13.7413 75.5534C16.3267 74.4081 18.9122 73.3265 21.4977 72.1812C21.785 72.054 22.0403 71.8949 22.4872 71.704C21.9765 71.4813 21.6254 71.3541 21.2742 71.195C12.5922 67.5684 9.59175 56.6566 15.3372 49.1806C17.7631 46.0311 19.774 42.7544 20.189 38.746C20.4443 36.4237 20.3805 34.0695 20.3486 31.7472C20.3167 27.357 20.4763 23.0305 21.9446 18.8312C26.1579 6.93323 38.1596 -0.956331 50.5763 0.0934898C63.7271 1.20694 74.2605 10.6553 76.2395 23.4122C76.7821 26.9116 76.6863 30.5383 76.6863 34.1013C76.7182 37.4099 76.7182 40.7184 78.1865 43.7724C78.8888 45.2676 79.6229 46.8264 80.7082 48.0671C87.8262 56.0203 84.347 68.2046 74.5797 71.6722C75.1542 71.9585 75.6649 72.1812 76.1437 72.4039C78.7611 73.5492 81.4423 74.5672 84.0278 75.8079C90.699 79.021 94.242 84.3973 94.3697 91.7779C94.5293 100.176 94.4016 108.607 94.4016 117.005C94.4016 117.419 94.4016 117.864 94.4016 118.373C95.7422 118.596 97.4339 117.992 97.9447 119.869C98.2 120.887 97.5297 121.491 96.7956 122C56.4175 122 40.378 122 0 122C0.0319194 121.173 0.0319194 120.378 0.0319194 119.582ZM76.3671 118.342C76.431 118.055 76.4948 117.769 76.5267 117.451C76.7182 115.637 76.9098 113.824 77.1013 112.011C77.8673 104.948 78.6334 97.8859 79.3676 90.8235C79.5591 88.8829 78.9526 88.2785 77.0374 88.2785C58.588 88.2785 40.1705 88.2785 21.7211 88.2785C19.7421 88.2785 19.1676 88.8511 19.3591 90.7917C20.0294 97.2497 20.6997 103.739 21.4019 110.197C21.6892 112.902 22.0084 115.606 22.2957 118.342C40.3621 118.342 58.3008 118.342 76.3671 118.342ZM64.9081 9.79638C56.8963 21.917 45.7564 29.234 31.5523 31.7472C31.5204 32.0653 31.4885 32.2244 31.5204 32.3834C31.5204 36.9009 31.4565 41.4183 31.5523 45.9675C31.7119 52.3619 36.0529 57.8973 42.373 59.0425C45.8522 59.6788 49.491 59.4561 53.066 59.3607C55.7153 59.297 58.0773 58.12 60.1202 56.4657C62.7056 54.3979 64.3974 51.7256 65.1315 48.3535C63.2802 49.5623 61.5565 50.6758 59.8648 51.821C59.386 52.1392 58.9072 52.6164 58.6199 53.0936C57.7262 54.7478 56.4494 55.8931 54.5662 56.0521C52.6191 56.1794 50.672 56.243 48.7249 56.0203C46.1075 55.734 44.2562 53.2844 44.3839 50.7394C44.5116 48.0035 46.6182 45.8721 49.3633 45.7448C50.4486 45.6812 51.5019 45.7766 52.5872 45.713C55.0769 45.5539 57.1517 46.1902 58.5242 48.5443C61.3969 47.1764 63.5994 45.1722 64.9719 42.3727C65.2273 41.8318 65.4507 41.1956 65.4826 40.5911C65.5465 37.9189 65.4826 35.2784 65.5145 32.6061C65.5145 31.9063 65.2592 31.6517 64.5889 31.3972C62.2268 30.4747 59.8967 29.4885 57.6624 28.3114C55.9706 27.4207 55.6195 26.3072 56.3217 25.2892C56.9921 24.2712 58.0135 24.303 59.6414 25.3528C63.759 28.0569 68.2915 29.0113 73.271 28.4705C73.0794 20.9627 70.3663 14.8228 64.9081 9.79638ZM24.0512 28.2478C36.9786 29.5839 53.9278 21.3444 61.9076 7.63311C55.9706 3.30658 45.7884 1.875 37.202 6.3606C28.2646 11.0689 23.7959 20.2628 24.0512 28.2478ZM70.5259 84.7154C72.7602 84.7154 74.8988 84.7154 77.0374 84.7154C81.0912 84.7154 83.3256 87.1332 82.9425 91.1734C82.2403 98.2677 81.4104 105.362 80.6763 112.456C80.4528 114.397 80.2932 116.369 80.1017 118.31C83.8044 118.31 87.3155 118.31 90.8585 118.31C90.8585 109.052 91.0501 99.8901 90.7947 90.7281C90.6351 85.5108 87.7943 81.5342 83.0702 79.2436C79.1122 77.3349 74.9946 75.7442 70.9089 73.9945C70.8132 73.9627 70.6855 73.9945 70.5897 73.9945C70.5259 77.5576 70.5259 81.057 70.5259 84.7154ZM56.3217 62.4783C51.055 63.3691 45.8841 63.3691 40.6812 62.5101C40.6174 62.6056 40.5536 62.701 40.5217 62.7964C39.4364 66.8367 36.8509 69.5408 32.9887 71.1314C29.9563 72.3721 29.9882 72.4357 30.0521 75.7124C30.0521 76.4759 30.3394 76.7304 31.0097 76.8895C42.4049 79.7845 53.7682 79.7845 65.1315 76.7304C67.0786 76.1896 66.6956 76.6986 66.919 74.4717C67.0786 72.6902 66.4402 71.8949 64.7804 71.3223C60.4713 69.8907 57.4708 67.0912 56.3217 62.4783ZM23.9874 32.0017C23.9874 32.9243 23.9555 33.7832 23.9874 34.6422C24.3066 40.8775 22.2638 46.2856 18.3696 51.1212C14.8265 55.5431 15.2734 61.7148 19.2633 65.6278C23.0298 69.3181 29.6052 69.9861 34.2335 66.3595C35.6699 65.2142 36.5956 63.6872 37.0744 61.9057C37.234 61.3012 37.1063 60.9195 36.5317 60.5377C30.8182 56.9429 27.9773 51.7892 27.9773 45.0449C27.9773 41.132 27.9773 37.1872 27.9773 33.2742C27.9773 32.8606 27.9773 32.4153 27.9773 31.9699C26.541 32.0017 25.328 32.0017 23.9874 32.0017ZM69.0257 32.1289C69.0257 32.7334 69.0257 33.1469 69.0257 33.5923C69.0257 37.4417 69.0576 41.291 69.0257 45.1404C68.9618 51.7892 66.1529 56.9747 60.4713 60.5377C59.8329 60.9513 59.7371 61.3331 59.9286 62.0011C60.4713 63.8145 61.365 65.4051 62.961 66.4231C65.1953 67.9183 67.5574 68.9681 70.4301 68.7454C74.835 68.3955 78.0908 66.3913 79.9102 62.3829C81.7296 58.4063 81.3146 54.5251 78.5377 51.0894C74.8031 46.4765 72.9837 41.291 73.1752 35.342C73.2071 34.2604 73.1752 33.1469 73.1752 32.0971C71.7388 32.1289 70.462 32.1289 69.0257 32.1289ZM30.1478 84.5882C42.4049 84.5882 54.5981 84.5882 66.8232 84.5882C66.8232 83.0294 66.8232 81.5978 66.8232 80.0072C54.5981 83.3475 42.4368 83.4429 30.1478 80.3571C30.1478 81.8841 30.1478 83.2202 30.1478 84.5882ZM51.7254 49.276C51.0231 49.276 50.289 49.2442 49.5868 49.276C48.5973 49.3078 48.0227 49.8487 47.9269 50.803C47.8631 51.7574 48.4057 52.4573 49.3633 52.5209C50.8955 52.6164 52.4595 52.6164 53.9916 52.5209C54.9492 52.4573 55.4918 51.7574 55.3961 50.803C55.3322 49.9123 54.7896 49.3396 53.832 49.3078C53.1617 49.2442 52.4595 49.276 51.7254 49.276ZM49.3633 110.102C45.5649 110.102 42.5326 107.08 42.5645 103.326C42.5645 99.572 45.6607 96.518 49.3952 96.5498C53.0979 96.5816 56.1302 99.6356 56.1621 103.294C56.1941 107.016 53.1617 110.07 49.3633 110.102ZM49.3633 106.507C51.1189 106.507 52.5553 105.076 52.5872 103.326C52.5872 101.608 51.1508 100.113 49.3952 100.081C47.6077 100.049 46.1395 101.544 46.1395 103.358C46.1714 105.139 47.5758 106.507 49.3633 106.507Z" fill="#672900"/>
</svg>
