<svg width="183" height="148" viewBox="0 0 183 148" fill="none" xmlns="http://www.w3.org/2000/svg">
<g clip-path="url(#clip0)">
<path d="M183 65.6916C183 60.5764 180.022 57.6312 174.903 57.6002C171.77 57.6002 168.606 57.6002 165.411 57.6002C163.239 49.1059 157.996 44.0217 149.31 42.6576C150.024 39.9295 148.969 38.8755 146.27 39.5575C144.843 39.9295 143.478 40.4565 141.958 40.9526C141.958 40.3325 141.958 39.8985 141.958 39.4335C141.958 38.9065 141.958 38.4105 141.958 37.8834C141.896 36.3954 141.213 35.5583 140.034 35.5583C138.856 35.5583 138.111 36.3954 138.08 37.8524C138.049 38.9065 138.08 39.9605 138.08 41.0766C136.498 40.5495 135.164 40.0225 133.768 39.6195C130.852 38.8135 129.89 39.7125 130.418 42.6576C122.228 44.0837 116.923 48.6719 114.689 56.7322C114.596 57.0732 114.1 57.5072 113.79 57.5382C112.425 57.6312 111.06 57.5692 109.447 57.5692C109.881 56.8872 110.129 56.4532 110.439 56.0192C113.262 51.896 116.085 47.7418 118.939 43.6187C124.834 35.0003 130.759 26.413 136.622 17.7636C139.879 12.9584 138.297 6.91318 133.21 4.52608C129.177 2.63501 124.647 3.96806 121.949 7.90522C116.085 16.4616 110.222 25.0489 104.328 33.5743C103.925 34.1633 103.149 34.7213 102.436 34.8763C98.5267 35.8373 94.8971 37.4184 91.5467 39.6195C91.1435 39.8985 90.7091 40.1465 90.2128 40.4255C87.8241 36.0234 84.5667 32.6442 80.3477 30.2261C80.0375 30.0401 79.8824 29.5131 79.7893 29.1101C79.5101 27.622 78.4864 26.847 77.1214 27.467C75.7254 28.087 74.4535 27.994 73.0885 27.622C72.344 27.436 71.5685 27.343 70.7929 27.281C66.2947 26.816 61.9516 27.591 57.7015 29.4821C56.3055 25.7309 53.3584 24.0259 49.8219 23.0648C48.8292 22.7858 47.8675 22.3828 46.8748 22.1038C44.5791 21.3908 43.2762 19.8407 42.7798 17.5156C41.8492 13.1134 40.8875 8.74225 39.9568 4.34007C39.4294 1.95298 38.809 1.54996 36.3582 2.07698C30.8053 3.28603 25.2523 4.49508 19.6993 5.70413C17.2796 6.23115 16.8763 6.85118 17.4037 9.26927C18.3654 13.7025 19.3271 18.1356 20.3198 22.5998C20.8161 24.8009 20.2887 26.661 18.5825 28.211C17.2486 29.4201 15.9146 30.6601 14.6427 31.9312C12.192 34.3183 11.2923 37.2014 11.9748 40.5495C12.5642 43.3707 13.1847 46.1918 13.8051 49.0439C14.3945 51.865 15.015 54.6551 15.6664 57.6932C12.8124 57.6932 10.1755 57.6622 7.56964 57.6932C3.44369 57.7552 0.403516 60.5764 0.124317 64.6995C0.0002278 66.4356 0.0002278 68.2027 0.124317 69.9697C0.372494 74.1549 3.47471 77.007 7.66271 77.038C8.59338 77.038 9.52404 77.038 10.6719 77.038C10.796 78.4331 10.889 79.6731 10.9821 80.9132C12.3781 98.5219 13.8361 116.131 15.2011 133.739C15.5424 138.266 17.4657 141.831 21.0643 144.528C24.3527 146.977 28.1374 148.093 32.2323 148.093C72.8093 148.093 113.386 148.093 153.994 148.093C164.449 148.093 170.933 141.738 171.181 131.383C171.615 113.775 172.08 96.1658 172.546 78.5571C172.546 78.0921 172.608 77.658 172.67 77.069C173.787 77.069 174.81 77.1 175.834 77.069C179.774 76.976 182.907 73.9379 183.031 70.0007C183.031 68.4817 183 67.0866 183 65.6916ZM132.868 46.6258C132.248 47.3698 131.596 48.0208 131.131 48.7649C130.697 49.4469 130.2 50.2839 130.262 51.028C130.324 51.741 130.852 52.671 131.472 53.043C132.372 53.5701 133.303 53.105 133.799 52.144C136.498 46.6258 142.951 47.3698 145.774 51.803C146.673 53.2291 147.79 53.6011 148.814 52.919C149.775 52.268 149.868 51.059 149.062 49.7569C148.721 49.1989 148.286 48.6409 147.852 48.1449C147.449 47.7108 146.952 47.3388 146.394 46.8738C152.226 45.3237 159.485 50.5319 161.285 57.5692C147.014 57.5692 132.868 57.5692 118.753 57.5692C119.125 52.857 124.927 46.1298 132.868 46.6258ZM125.702 9.36228C127.284 7.3162 130.138 7.03718 132.248 8.49424C134.295 9.9203 135.102 12.6484 133.861 14.7875C132.496 17.0816 130.914 19.2207 129.363 21.5458C126.571 19.6237 123.934 17.8256 121.173 15.9345C122.693 13.6405 124.089 11.4394 125.702 9.36228ZM118.939 19.1277C121.7 21.0187 124.368 22.8478 127.098 24.7079C126.757 25.2349 126.478 25.6689 126.199 26.103C119.312 36.1784 112.425 46.2228 105.569 56.2982C104.917 57.2592 104.266 57.6932 103.056 57.6622C99.7056 57.5692 96.3552 57.6312 92.6015 57.6312C101.474 44.6417 110.16 31.9312 118.939 19.1277ZM92.2603 43.8667C94.649 42.4096 97.0997 41.0146 99.5194 39.5885C99.6435 39.7435 99.7366 39.9295 99.8607 40.0845C97.5961 43.3707 95.3315 46.6878 92.9738 50.1599C92.5705 48.2379 92.1672 46.5638 91.888 44.8897C91.826 44.5797 92.0121 44.0217 92.2603 43.8667ZM70.3276 31.2182C68.9936 33.5433 67.7217 35.8063 66.2947 38.2864C65.364 37.9764 64.2162 37.6044 63.0684 37.1704C61.9826 36.7674 61.0519 37.0464 60.5866 38.0694C60.0902 39.1545 60.3694 40.1775 61.4862 40.6735C66.1706 42.7196 70.917 43.3087 75.6944 40.9526C77.1524 40.2395 77.6798 39.0925 77.0904 38.0074C76.563 36.9844 75.4772 36.8294 73.9882 37.4804C73.0265 37.9144 72.0028 38.1934 70.6378 38.6895C71.6305 35.9924 73.0265 34.1323 75.0429 32.7992C75.3842 32.5822 76.0356 32.6132 76.47 32.7992C85.3733 36.2404 90.8332 47.1528 88.4756 56.4842C88.1964 57.6312 87.5759 57.6312 86.7073 57.6312C77.3696 57.6312 68.0009 57.6312 58.6632 57.6312C55.623 57.6312 52.5518 57.6002 49.5117 57.6312C48.6741 57.6312 48.2397 57.4452 47.9916 56.5462C44.455 43.1226 56.6468 29.2651 70.3276 31.2182ZM36.3272 6.01414C37.0718 9.45528 37.7853 12.7724 38.5608 16.2756C33.4732 17.3916 28.6337 18.4146 23.6081 19.4997C22.8636 16.0896 22.1501 12.8034 21.3745 9.26927C26.3691 8.18423 31.2706 7.13019 36.3272 6.01414ZM17.2796 34.6903C18.3344 33.6983 19.3271 32.6442 20.4439 31.7142C23.0187 29.5751 24.4767 26.909 24.3837 23.3438C26.6483 22.8478 28.9129 22.3208 31.1465 21.8248C33.4732 21.3288 35.7999 20.8327 38.0955 20.3057C38.9331 20.1197 39.4915 20.1197 39.9258 21.0808C40.9806 23.3438 42.8109 24.8009 45.1686 25.6069C46.8748 26.196 48.612 26.692 50.2872 27.374C51.1248 27.715 51.9934 28.18 52.6449 28.8001C54.3821 30.4431 54.2581 31.2802 52.5208 32.8302C51.2179 33.9773 50.008 35.2793 48.7051 36.5504C48.4569 36.2714 48.2708 35.8063 47.9295 35.6823C47.3091 35.4653 46.4715 35.1863 45.9441 35.4033C45.4167 35.6203 45.1375 36.4574 44.7963 37.0464C44.7342 37.1394 44.7653 37.3564 44.8273 37.5114C46.0062 40.5185 45.0755 43.3087 44.2379 46.2228C43.1521 49.9119 43.4313 53.6631 44.1138 57.4142C41.8802 57.9722 41.7561 57.9102 41.3218 55.8952C40.143 50.5009 38.9641 45.1067 37.7542 39.7125C37.382 38.0694 36.5134 37.3564 35.2415 37.6354C34.0936 37.9144 33.6283 38.9065 33.9695 40.4875C35.0863 45.5717 36.2031 50.687 37.2889 55.7712C37.413 56.3292 37.4751 56.8562 37.6302 57.6312C35.2415 57.6312 32.9768 57.6932 30.7432 57.5692C30.433 57.5692 30.0297 56.8252 29.9056 56.3602C28.8509 51.741 27.8582 47.0908 26.8344 42.4406C26.7414 42.0376 26.6793 41.6346 26.5242 41.2316C26.1209 40.2395 25.3764 39.7745 24.3216 39.9915C23.2669 40.2085 22.7085 40.9836 22.8326 42.0376C22.9877 43.2777 23.2979 44.4557 23.5461 45.6647C24.2906 49.1369 25.0662 52.609 25.8107 56.1122C25.9038 56.5462 25.9348 57.0112 25.9968 57.6002C23.9804 57.6002 22.057 57.6312 20.1647 57.5692C19.8544 57.5692 19.4201 57.0732 19.3271 56.7322C18.0552 50.997 16.7832 45.2307 15.5734 39.4955C15.3252 37.6044 15.9456 35.9924 17.2796 34.6903ZM168.141 96.9098C167.83 108.566 167.489 120.254 167.21 131.91C167.055 138.576 163.146 143.04 156.476 143.939C155.452 144.094 154.429 144.156 153.374 144.156C113.2 144.156 73.0575 144.187 32.8838 144.094C30.5261 144.094 28.0133 143.598 25.8107 142.699C21.7468 141.056 19.296 137.955 18.9548 133.398C18.1172 122.424 17.2176 111.449 16.3489 100.506C15.7595 93.1897 15.1701 85.8734 14.6117 78.5881C14.5807 78.1231 14.5496 77.658 14.5186 77.069C65.8604 77.069 117.171 77.069 168.606 77.069C168.482 83.7963 168.296 90.3686 168.141 96.9098ZM179.122 69.5977C178.967 71.7368 177.664 73.0079 175.524 73.1009C174.965 73.1319 174.376 73.1009 173.818 73.1009C146.363 73.1009 118.908 73.1009 91.4537 73.1009C63.906 73.1009 36.3272 73.1009 8.77951 73.1009C4.9948 73.1009 3.90903 72.0468 3.90903 68.2027C3.90903 67.1796 3.878 66.1256 3.90903 65.1025C3.97107 62.8704 5.39809 61.5064 7.66271 61.4444C7.97293 61.4444 8.28316 61.4444 8.59338 61.4444C63.8129 61.4444 119.032 61.4444 174.252 61.4444C178.037 61.4444 179.122 62.5604 179.122 66.3426C179.153 67.4276 179.216 68.5127 179.122 69.5977Z" fill="#87522F"/>
<path d="M72.7161 22.6311C73.926 22.7551 74.6395 22.042 74.8256 20.833C74.8876 20.368 74.9497 19.903 75.0117 19.4379C75.6322 15.6248 76.718 11.9666 79.0756 8.86651C81.9297 5.11536 85.7144 3.41029 90.4608 3.99931C94.0594 4.43333 97.2857 5.82839 100.047 8.06048C102.932 10.3856 105.507 13.0517 108.205 15.6248C109.136 16.4928 110.067 16.8028 111.091 15.9658C112.021 15.1598 111.99 14.1057 111.246 13.2067C106.592 7.68846 101.35 3.03828 94.3076 0.868188C87.1414 -1.3329 80.4406 0.713181 76.1285 6.35541C72.9643 10.4476 71.6613 15.2528 71.0409 19.965C70.9168 21.546 71.4132 22.4761 72.7161 22.6311Z" fill="#87522F"/>
<path d="M97.8439 19.9339C93.811 20.3059 90.0883 21.6079 86.7379 23.902C85.2488 24.9251 85.2178 26.8161 86.7069 27.3432C87.3894 27.5912 88.4441 27.3432 89.0956 26.9401C92.508 24.77 96.2307 23.747 100.233 23.654C100.636 23.654 101.07 23.654 101.473 23.654C102.745 23.685 103.614 23.127 103.645 21.7939C103.676 20.4609 102.807 19.8408 101.535 19.8408C100.326 19.8408 99.0847 19.8098 97.8439 19.9339Z" fill="#87522F"/>
<path d="M76.6865 91.4846C72.4675 91.4536 69.4894 94.3987 69.4894 98.6769C69.4584 102.614 69.4894 106.52 69.4894 110.457C69.4894 114.333 69.4894 118.208 69.4894 122.083C69.5204 126.392 72.4675 129.368 76.6555 129.337C80.7505 129.306 83.6976 126.33 83.6976 122.114C83.6976 114.302 83.6976 106.52 83.6976 98.7079C83.6665 94.4607 80.8125 91.5156 76.6865 91.4846ZM79.7888 121.959C79.7888 124.222 78.6099 125.431 76.5624 125.431C74.515 125.431 73.3672 124.191 73.3672 121.897C73.3361 114.209 73.3361 106.489 73.3672 98.8009C73.3672 96.5998 74.6391 95.2668 76.6245 95.2978C78.6099 95.2978 79.8198 96.6308 79.8198 98.8629C79.8508 102.676 79.8198 106.52 79.8198 110.333C79.7888 114.209 79.8198 118.084 79.7888 121.959Z" fill="#70B65F"/>
<path d="M46.5951 91.4848C42.4692 91.5158 39.6151 94.43 39.5841 98.7081C39.5531 102.583 39.5841 106.458 39.5841 110.334C39.5841 114.209 39.5841 118.084 39.5841 121.959C39.5841 122.021 39.5841 122.052 39.5841 122.114C39.6461 126.361 42.5002 129.337 46.5951 129.337C50.7831 129.368 53.7612 126.423 53.7612 122.083C53.7923 114.302 53.7923 106.489 53.7612 98.7081C53.7612 94.368 50.7831 91.4228 46.5951 91.4848ZM49.9145 121.897C49.9145 124.16 48.7667 125.4 46.7192 125.431C44.6097 125.462 43.3998 124.191 43.3998 121.835C43.3998 114.209 43.3998 106.582 43.3998 98.9252C43.3998 96.6311 44.6717 95.267 46.6882 95.267C48.6736 95.267 49.9145 96.6621 49.9145 98.9562C49.9145 102.831 49.9145 106.706 49.9145 110.551C49.9145 114.364 49.9145 118.146 49.9145 121.897Z" fill="#70B65F"/>
<path d="M113.572 98.6769C113.541 94.3987 110.687 91.4846 106.53 91.4846C102.311 91.4536 99.3951 94.3987 99.3641 98.7389C99.3331 106.52 99.3331 114.333 99.3641 122.114C99.3951 126.423 102.373 129.368 106.561 129.337C110.656 129.306 113.51 126.33 113.541 122.083C113.572 118.208 113.541 114.333 113.541 110.457C113.572 106.52 113.603 102.614 113.572 98.6769ZM109.757 121.711C109.757 124.16 108.578 125.462 106.437 125.431C104.359 125.4 103.273 124.129 103.273 121.711C103.273 114.116 103.273 106.551 103.273 98.9559C103.273 96.6618 104.514 95.2668 106.499 95.2668C108.516 95.2668 109.757 96.6618 109.757 98.9559C109.757 102.769 109.757 106.582 109.757 110.395C109.757 114.209 109.757 117.96 109.757 121.711Z" fill="#70B65F"/>
<path d="M143.508 98.5839C143.477 94.3987 140.468 91.4536 136.342 91.4846C132.185 91.5156 129.331 94.4297 129.3 98.6769C129.269 102.552 129.3 106.427 129.3 110.302C129.3 114.271 129.269 118.239 129.3 122.238C129.331 126.361 132.247 129.306 136.28 129.368C140.406 129.399 143.477 126.454 143.508 122.3C143.57 114.395 143.539 106.489 143.508 98.5839ZM139.63 121.866C139.63 124.16 138.514 125.4 136.497 125.431C134.388 125.462 133.178 124.222 133.178 121.866C133.147 114.178 133.147 106.489 133.178 98.8009C133.178 96.5998 134.45 95.2668 136.404 95.2668C138.358 95.2668 139.599 96.5998 139.63 98.8009C139.661 102.676 139.63 106.551 139.63 110.395C139.63 114.24 139.63 118.053 139.63 121.866Z" fill="#70B65F"/>
</g>
<defs>
<clipPath id="clip0">
<rect width="183" height="148" fill="white"/>
</clipPath>
</defs>
</svg>
