<svg width="91" height="90" viewBox="0 0 91 90" fill="none" xmlns="http://www.w3.org/2000/svg">
<path d="M45.043 90C69.8958 90 90.043 69.8528 90.043 45C90.043 20.1472 69.8958 0 45.043 0C20.1902 0 0.0429688 20.1472 0.0429688 45C0.0429688 69.8528 20.1902 90 45.043 90Z" fill="#EDE7F6"/>
<path d="M45.0432 89.9998C55.9339 89.9998 65.8566 86.3998 73.8432 80.3998C72.3911 62.1598 53.9978 58.7998 53.9978 58.7998L45.0432 60.7198L36.0885 58.7998C36.0885 58.7998 17.6953 62.1598 16.2432 80.3998C24.2297 86.3998 34.1524 89.9998 45.0432 89.9998Z" fill="#673AB7"/>
<path d="M45.2826 73.1998C52.7226 73.1998 58.7226 67.6798 59.4426 60.4798C57.2826 59.5198 55.6026 59.0398 54.6426 58.7998C54.6426 64.0798 50.3226 68.1598 45.0426 68.1598C39.7626 68.1598 35.4426 63.8398 35.4426 58.7998C34.4826 59.0398 32.8026 59.5198 30.6426 60.4798C31.8426 67.6798 37.8426 73.1998 45.2826 73.1998Z" fill="#311B92"/>
<path d="M64.2428 38.3998C64.2428 40.3198 62.5628 41.9998 60.6428 41.9998C58.7228 41.9998 57.0428 40.3198 57.0428 38.3998C57.0428 36.4798 58.7228 34.7998 60.6428 34.7998C62.5628 34.7998 64.2428 36.4798 64.2428 38.3998ZM33.0428 38.3998C33.0428 36.4798 31.3628 34.7998 29.4428 34.7998C27.5228 34.7998 25.8428 36.4798 25.8428 38.3998C25.8428 40.3198 27.5228 41.9998 29.4428 41.9998C31.3628 41.9998 33.0428 40.3198 33.0428 38.3998Z" fill="#FFA726"/>
<path d="M45.0434 68.4002C35.4434 68.4002 35.4434 58.8002 35.4434 58.8002V49.2002H54.6434V58.8002C54.6434 58.8002 54.6434 68.4002 45.0434 68.4002Z" fill="#FF9800"/>
<path d="M61.8432 29.2422C61.8432 15.0625 28.2432 20.1095 28.2432 29.2422V39.8169C28.2432 48.9496 35.6832 56.3999 45.0432 56.3999C54.4032 56.3999 61.8432 48.9496 61.8432 39.8169V29.2422Z" fill="#FFB74D"/>
<path d="M45.0428 10.7998C33.2828 10.7998 25.8428 21.1198 25.8428 30.4798V34.7998L30.6428 39.5998V29.9998L52.7228 22.7998L59.4428 29.9998V39.5998L64.2428 34.7998V32.8798C64.2428 25.1998 62.3228 16.5598 52.7228 14.6398L50.8028 10.7998H45.0428Z" fill="#424242"/>
<path d="M49.8434 37.1998C49.8434 35.7598 50.8034 34.7998 52.2434 34.7998C53.6834 34.7998 54.6434 35.7598 54.6434 37.1998C54.6434 38.6398 53.6834 39.5998 52.2434 39.5998C50.8034 39.5998 49.8434 38.6398 49.8434 37.1998ZM35.4434 37.1998C35.4434 38.6398 36.4034 39.5998 37.8434 39.5998C39.2834 39.5998 40.2434 38.6398 40.2434 37.1998C40.2434 35.7598 39.2834 34.7998 37.8434 34.7998C36.4034 34.7998 35.4434 35.7598 35.4434 37.1998Z" fill="#672900"/>
</svg>
