<svg width="91" height="91" viewBox="0 0 91 91" fill="none" xmlns="http://www.w3.org/2000/svg">
<path d="M45.335 90.3931C70.1878 90.3931 90.335 70.2459 90.335 45.3931C90.335 20.5403 70.1878 0.393066 45.335 0.393066C20.4821 0.393066 0.334961 20.5403 0.334961 45.3931C0.334961 70.2459 20.4821 90.3931 45.335 90.3931Z" fill="#EDE7F6"/>
<path d="M58.5352 32.793H31.5352V62.793H58.5352V32.793Z" fill="#3E2723"/>
<path d="M45.035 90.3932C55.1316 90.3932 64.3308 87.0009 71.735 81.347C70.3887 64.6116 54.0098 60.9932 54.0098 60.9932H36.0602C36.0602 60.9932 19.6812 64.6116 18.335 81.347C25.7392 87.0009 34.9383 90.3932 45.035 90.3932Z" fill="#FF1744"/>
<path d="M45.3352 69.9934C42.2152 69.9934 37.5352 61.4434 37.5352 61.4434V50.1934H53.1352V61.4434C53.1352 61.4434 48.4552 69.9934 45.3352 69.9934Z" fill="#FF9800"/>
<path d="M60.9348 43.01C60.9348 51.3729 53.439 58.8317 45.0348 58.8317C36.6305 58.8317 29.1348 51.3729 29.1348 43.01V29.4486C29.1348 21.0858 60.9348 16.5653 60.9348 29.4486V43.01ZM45.0348 72.3931C51.6219 72.3931 52.9848 61.0919 52.9848 61.0919C52.9848 61.0919 48.6691 67.8726 45.0348 67.8726C41.4005 67.8726 37.0848 61.0919 37.0848 61.0919C37.0848 61.0919 38.4476 72.3931 45.0348 72.3931Z" fill="#FFB74D"/>
<path d="M49.835 40.893C49.835 39.633 50.735 38.793 52.085 38.793C53.435 38.793 54.335 39.633 54.335 40.893C54.335 42.153 53.435 42.993 52.085 42.993C50.735 42.993 49.835 42.153 49.835 40.893ZM36.335 40.893C36.335 42.153 37.235 42.993 38.585 42.993C39.935 42.993 40.835 42.153 40.835 40.893C40.835 39.633 39.935 38.793 38.585 38.793C37.235 38.793 36.335 39.633 36.335 40.893Z" fill="#672900"/>
<path d="M45.0348 15.9932C34.622 15.9932 20.1348 20.7332 20.1348 54.3646L31.4529 62.9417V38.5646L51.8257 27.2789L58.6166 36.3074V63.3932L69.9348 52.1074C69.9348 45.336 69.2557 19.3789 51.8257 19.3789L49.562 15.9932H45.0348Z" fill="#795548"/>
</svg>
