<svg width="131" height="26" viewBox="0 0 131 26" fill="none" xmlns="http://www.w3.org/2000/svg">
<path d="M11.3355 3.0299C11.6292 2.09694 12.9495 2.09694 13.2432 3.0299L14.8186 8.03401C14.9497 8.45047 15.3358 8.73373 15.7724 8.73373H20.936C21.897 8.73373 22.3048 9.95721 21.5359 10.5338L17.3047 13.7066C16.9652 13.9612 16.8234 14.4022 16.9508 14.8069L18.554 19.8997C18.8458 20.8266 17.7777 21.583 17.0002 21L12.8893 17.9173C12.5338 17.6507 12.045 17.6507 11.6894 17.9173L7.57849 21C6.80104 21.583 5.7329 20.8266 6.0247 19.8997L7.62795 14.8069C7.75536 14.4022 7.6135 13.9612 7.27403 13.7066L3.04284 10.5338C2.27395 9.95721 2.68172 8.73373 3.64277 8.73373H8.80631C9.24292 8.73373 9.62905 8.45047 9.76016 8.03401L11.3355 3.0299Z" fill="#B7774C"/>
<path d="M37.7125 3.0299C38.0062 2.09694 39.3265 2.09694 39.6202 3.0299L41.1955 8.03401C41.3266 8.45047 41.7128 8.73373 42.1494 8.73373H47.3129C48.274 8.73373 48.6817 9.95721 47.9128 10.5338L43.6817 13.7066C43.3422 13.9612 43.2003 14.4022 43.3277 14.8069L44.931 19.8997C45.2228 20.8266 44.1546 21.583 43.3772 21L39.2663 17.9173C38.9107 17.6507 38.4219 17.6507 38.0664 17.9173L33.9554 21C33.178 21.583 32.1099 20.8266 32.4017 19.8997L34.0049 14.8069C34.1323 14.4022 33.9904 13.9612 33.651 13.7066L29.4198 10.5338C28.6509 9.95721 29.0587 8.73373 30.0197 8.73373H35.1833C35.6199 8.73373 36.006 8.45047 36.1371 8.03401L37.7125 3.0299Z" fill="#B7774C"/>
<path d="M64.0894 3.0299C64.3831 2.09694 65.7034 2.09694 65.9971 3.0299L67.5725 8.03401C67.7036 8.45047 68.0897 8.73373 68.5263 8.73373H73.6899C74.6509 8.73373 75.0587 9.95721 74.2898 10.5338L70.0586 13.7066C69.7191 13.9612 69.5773 14.4022 69.7047 14.8069L71.3079 19.8997C71.5997 20.8266 70.5316 21.583 69.7542 21L65.6432 17.9173C65.2877 17.6507 64.7989 17.6507 64.4433 17.9173L60.3324 21C59.5549 21.583 58.4868 20.8266 58.7786 19.8997L60.3819 14.8069C60.5093 14.4022 60.3674 13.9612 60.0279 13.7066L55.7967 10.5338C55.0279 9.95721 55.4356 8.73373 56.3967 8.73373H61.5602C61.9968 8.73373 62.383 8.45047 62.5141 8.03401L64.0894 3.0299Z" fill="#B7774C"/>
<path d="M90.4664 3.0299C90.7601 2.09694 92.0804 2.09694 92.3741 3.0299L93.9494 8.03401C94.0805 8.45047 94.4667 8.73373 94.9033 8.73373H100.067C101.028 8.73373 101.436 9.95721 100.667 10.5338L96.4356 13.7066C96.0961 13.9612 95.9542 14.4022 96.0816 14.8069L97.6849 19.8997C97.9767 20.8266 96.9086 21.583 96.1311 21L92.0202 17.9173C91.6646 17.6507 91.1758 17.6507 90.8203 17.9173L86.7093 21C85.9319 21.583 84.8638 20.8266 85.1556 19.8997L86.7588 14.8069C86.8862 14.4022 86.7444 13.9612 86.4049 13.7066L82.1737 10.5338C81.4048 9.95721 81.8126 8.73373 82.7736 8.73373H87.9372C88.3738 8.73373 88.7599 8.45047 88.891 8.03401L90.4664 3.0299Z" fill="#B7774C"/>
<path d="M116.842 3.0299C117.136 2.09694 118.456 2.09694 118.75 3.0299L120.325 8.03401C120.457 8.45047 120.843 8.73373 121.279 8.73373H126.443C127.404 8.73373 127.812 9.95721 127.043 10.5338L122.812 13.7066C122.472 13.9612 122.33 14.4022 122.458 14.8069L124.061 19.8997C124.353 20.8266 123.285 21.583 122.507 21L118.396 17.9173C118.041 17.6507 117.552 17.6507 117.196 17.9173L113.085 21C112.308 21.583 111.24 20.8266 111.532 19.8997L113.135 14.8069C113.262 14.4022 113.12 13.9612 112.781 13.7066L108.55 10.5338C107.781 9.95721 108.189 8.73373 109.15 8.73373H114.313C114.75 8.73373 115.136 8.45047 115.267 8.03401L116.842 3.0299Z" fill="#C4C4C4"/>
</svg>
