<svg width="14" height="12" viewBox="0 0 14 12" fill="none" xmlns="http://www.w3.org/2000/svg">
<path d="M1.44265 6.35688L6.76552 11.2421L6.76556 11.2421C6.78951 11.2641 6.80149 11.2751 6.81276 11.2834C6.90519 11.3512 7.03402 11.3512 7.12645 11.2834C7.13772 11.2751 7.1497 11.2641 7.17367 11.2421L7.17369 11.2421L12.4966 6.35688C13.7411 5.21463 13.8932 3.36777 12.8507 2.05504L12.7167 1.88635C11.2232 0.00567591 8.16276 0.315534 7.11851 2.45315C7.05963 2.57367 6.87958 2.57367 6.8207 2.45315C5.77645 0.315534 2.716 0.00567776 1.22249 1.88635L1.08853 2.05504C0.046047 3.36778 0.198077 5.21463 1.44265 6.35688Z" fill="#D3D3D3"/>
</svg>
