<svg width="26" height="26" viewBox="0 0 26 26" fill="none" xmlns="http://www.w3.org/2000/svg">
<g clip-path="url(#clip0)">
<path d="M12.6986 2.82699C16.0665 2.82699 16.4653 2.84177 17.7898 2.90085C19.0208 2.95501 19.6855 3.16181 20.1286 3.33415C20.7146 3.56064 21.138 3.83637 21.5762 4.27459C22.0194 4.71773 22.2902 5.13625 22.5167 5.72218C22.689 6.16532 22.8958 6.83496 22.95 8.06098C23.0091 9.3904 23.0238 9.78923 23.0238 13.1522C23.0238 16.52 23.0091 16.9189 22.95 18.2434C22.8958 19.4743 22.689 20.139 22.5167 20.5822C22.2902 21.1681 22.0145 21.5915 21.5762 22.0298C21.1331 22.4729 20.7146 22.7437 20.1286 22.9702C19.6855 23.1425 19.0159 23.3493 17.7898 23.4035C16.4604 23.4626 16.0616 23.4774 12.6986 23.4774C9.33078 23.4774 8.93195 23.4626 7.60745 23.4035C6.3765 23.3493 5.71179 23.1425 5.26865 22.9702C4.68272 22.7437 4.25927 22.468 3.82106 22.0298C3.37792 21.5866 3.10711 21.1681 2.88061 20.5822C2.70828 20.139 2.50148 19.4694 2.44732 18.2434C2.38823 16.9139 2.37346 16.5151 2.37346 13.1522C2.37346 9.78431 2.38823 9.38548 2.44732 8.06098C2.50148 6.83003 2.70828 6.16532 2.88061 5.72218C3.10711 5.13625 3.38284 4.71281 3.82106 4.27459C4.2642 3.83145 4.68272 3.56064 5.26865 3.33415C5.71179 3.16181 6.38143 2.95501 7.60745 2.90085C8.93195 2.84177 9.33078 2.82699 12.6986 2.82699ZM12.6986 0.557129C9.27661 0.557129 8.84824 0.5719 7.50405 0.630986C6.16478 0.690071 5.24403 0.906718 4.44638 1.21692C3.61426 1.54189 2.91016 1.97026 2.21098 2.67436C1.50688 3.37353 1.07851 4.07764 0.753537 4.90483C0.443339 5.70741 0.226692 6.62323 0.167607 7.9625C0.108521 9.31162 0.09375 9.73999 0.09375 13.162C0.09375 16.5841 0.108521 17.0124 0.167607 18.3566C0.226692 19.6959 0.443339 20.6166 0.753537 21.4143C1.07851 22.2464 1.50688 22.9505 2.21098 23.6497C2.91016 24.3489 3.61426 24.7822 4.44145 25.1022C5.24403 25.4124 6.15986 25.6291 7.49913 25.6881C8.84332 25.7472 9.27169 25.762 12.6937 25.762C16.1158 25.762 16.5441 25.7472 17.8883 25.6881C19.2276 25.6291 20.1483 25.4124 20.946 25.1022C21.7732 24.7822 22.4773 24.3489 23.1765 23.6497C23.8756 22.9505 24.3089 22.2464 24.629 21.4192C24.9392 20.6166 25.1558 19.7008 25.2149 18.3615C25.274 17.0173 25.2888 16.589 25.2888 13.1669C25.2888 9.74492 25.274 9.31655 25.2149 7.97235C25.1558 6.63308 24.9392 5.71233 24.629 4.91468C24.3188 4.07764 23.8904 3.37353 23.1863 2.67436C22.4871 1.97518 21.783 1.54189 20.9558 1.22184C20.1533 0.911642 19.2374 0.694995 17.8982 0.635909C16.549 0.5719 16.1207 0.557129 12.6986 0.557129Z" fill="white"/>
<path d="M12.6984 6.68701C9.12374 6.68701 6.22363 9.58712 6.22363 13.1618C6.22363 16.7365 9.12374 19.6366 12.6984 19.6366C16.2731 19.6366 19.1732 16.7365 19.1732 13.1618C19.1732 9.58712 16.2731 6.68701 12.6984 6.68701ZM12.6984 17.3618C10.3793 17.3618 8.49842 15.4809 8.49842 13.1618C8.49842 10.8427 10.3793 8.9618 12.6984 8.9618C15.0175 8.9618 16.8984 10.8427 16.8984 13.1618C16.8984 15.4809 15.0175 17.3618 12.6984 17.3618Z" fill="white"/>
<path d="M20.9412 6.43104C20.9412 7.26808 20.2617 7.94264 19.4296 7.94264C18.5925 7.94264 17.918 7.26316 17.918 6.43104C17.918 5.59399 18.5975 4.91943 19.4296 4.91943C20.2617 4.91943 20.9412 5.59892 20.9412 6.43104Z" fill="white"/>
</g>
<defs>
<clipPath id="clip0">
<rect width="25.2098" height="25.2098" fill="white" transform="translate(0.09375 0.557129)"/>
</clipPath>
</defs>
</svg>
