<svg width="111" height="71" viewBox="0 0 111 71" fill="none" xmlns="http://www.w3.org/2000/svg">
<path fill-rule="evenodd" clip-rule="evenodd" d="M32.6243 23.867C32.6243 23.867 32.7456 23.867 32.8062 23.8086C33.1094 23.692 33.4732 23.2253 33.5945 22.992C33.8371 22.7003 34.1403 22.292 34.2009 22.0003C34.3828 21.0086 33.1094 20.892 32.4424 21.1836C30.7445 21.8253 29.7742 24.042 29.4104 25.1503C28.9253 26.6086 28.9253 27.9503 28.4402 29.4086C27.8944 31.042 27.1667 30.867 26.9848 30.1086C26.7423 29.4086 27.1061 28.417 26.4997 27.892C25.7114 27.892 25.2869 28.6503 25.0444 29.2336C24.3167 31.3336 26.2571 33.4336 27.5306 34.8336C28.8646 36.292 29.2285 37.0503 29.7742 38.742C29.9561 39.3836 30.1987 39.967 30.32 40.6086C30.3806 41.017 30.6232 42.1253 31.0477 42.3003C31.0477 42.3003 31.1083 42.3003 31.1689 42.3003V42.3586V42.4753C31.1689 43.0003 33.6552 45.4503 34.6254 45.392C34.6254 45.3336 34.6254 45.3336 34.5647 45.217C34.5041 45.1586 34.5041 45.1586 34.4435 45.1003C33.6552 44.2836 32.9881 43.992 32.3211 42.3586C32.2604 42.242 32.1998 41.9503 32.1392 41.8336C31.8966 41.3086 32.1392 41.892 31.7147 41.6003C31.836 41.3086 31.8966 41.542 31.8966 41.192L31.4115 39.1503C31.2296 38.3336 31.3509 38.6836 31.1083 38.5086C31.3509 38.217 31.2902 38.742 31.1083 37.6336C30.987 36.7003 30.6232 35.417 30.6232 34.6003C30.5625 31.042 32.9275 30.2253 32.8062 28.8253C32.6849 27.542 31.6541 28.242 31.2902 27.6003C30.9264 26.9586 31.7147 25.3836 32.1392 24.742C32.8062 23.7503 32.6243 24.2753 32.6243 23.867ZM32.6243 21.4753C32.3817 21.4753 32.4424 21.5336 32.4424 21.3586C32.7456 21.242 32.5636 21.417 32.6243 21.4753ZM32.1392 23.8086C31.9573 23.867 32.0785 23.8086 31.9573 23.7503C32.1392 23.517 32.1392 23.6336 32.2604 23.692C32.1998 23.7503 32.3211 23.692 32.1392 23.8086ZM30.3806 25.792C30.1381 25.8503 30.32 25.967 30.0774 25.7336C30.32 25.5586 30.2593 25.5586 30.3806 25.792ZM32.0785 29.117C32.1392 29.117 32.2604 28.942 32.1998 29.2336C31.8966 29.1753 32.0785 29.1753 32.0785 29.117ZM29.653 26.2586C29.5317 26.5503 29.5923 26.3753 29.5317 26.3753C29.5923 26.2003 29.2285 26.3753 29.5923 26.2586C29.8955 26.142 29.4104 26.142 29.653 26.2586ZM29.7136 27.6003C29.4104 27.717 29.5923 27.7753 29.4104 27.542C29.653 27.4253 29.471 27.4253 29.7136 27.6003ZM30.0774 29.117C30.2593 29.1753 30.0774 28.8253 30.1987 29.2336V29.292L30.0774 29.1753C30.0774 29.1753 30.0774 29.1753 30.0774 29.117ZM25.3476 29.3503C25.4688 29.292 25.4082 29.2336 25.5295 29.3503C25.6507 29.467 25.5901 29.3503 25.5901 29.467C25.4082 29.5253 25.5901 29.5836 25.4082 29.467C25.2263 29.3503 25.4082 29.5253 25.3476 29.3503ZM30.987 39.442C30.987 39.442 30.987 39.5586 30.8051 39.5586C30.7445 39.5586 30.6838 39.5003 30.6838 39.442C30.7445 39.092 30.9264 39.267 30.987 39.442ZM31.9573 42.0086C32.2604 42.1253 32.0785 42.1253 31.9573 42.3003C31.7753 41.892 31.8966 42.1253 31.9573 42.0086ZM29.7742 32.7336C29.5317 32.5003 29.2891 33.2003 29.653 32.5003C29.653 32.5003 29.7136 32.442 29.7742 32.442V32.7336ZM31.4721 30.7503C30.987 30.692 31.2902 30.8086 31.1083 30.4003C31.6541 30.5753 31.2902 30.4003 31.4721 30.7503ZM31.6541 29.642C31.1083 29.5253 31.4115 29.7003 31.2902 29.292C32.0179 29.5836 31.2296 29.292 31.6541 29.642ZM29.5923 31.6836C29.7136 31.3336 29.5923 31.4503 29.8349 31.2753C30.2593 31.6253 30.0774 31.567 29.5923 31.6836ZM30.6838 36.7586C30.4413 37.1086 30.3806 37.0503 30.0168 37.2253C30.0774 36.7586 29.9561 36.992 30.1987 36.7586C30.7445 36.3503 30.4413 36.642 30.6838 36.7586ZM28.804 34.892L28.9253 33.6086C29.471 33.842 29.7742 34.017 29.5923 34.8336L28.804 34.892ZM31.4721 41.717C31.6541 41.7753 31.4115 41.4836 31.5328 41.7753V41.892C31.4721 41.8336 31.4721 42.1836 31.4721 41.717Z" fill="#672900"/>
<path d="M32.6243 23.867C32.6243 23.867 32.7456 23.867 32.8062 23.8086C33.1094 23.692 33.4732 23.2253 33.5945 22.992C33.8371 22.7003 34.1403 22.292 34.2009 22.0003C34.3828 21.0086 33.1094 20.892 32.4424 21.1836C30.7445 21.8253 29.7742 24.042 29.4104 25.1503C28.9253 26.6086 28.9253 27.9503 28.4402 29.4086C27.8944 31.042 27.1667 30.867 26.9848 30.1086C26.7423 29.4086 27.1061 28.417 26.4997 27.892C25.7114 27.892 25.2869 28.6503 25.0444 29.2336C24.3167 31.3336 26.2571 33.4336 27.5306 34.8336C28.8646 36.292 29.2285 37.0503 29.7742 38.742C29.9561 39.3836 30.1987 39.967 30.32 40.6086C30.3806 41.017 30.6232 42.1253 31.0477 42.3003C31.0477 42.3003 31.1083 42.3003 31.1689 42.3003V42.3586V42.4753C31.1689 43.0003 33.6552 45.4503 34.6254 45.392C34.6254 45.3336 34.6254 45.3336 34.5647 45.217C34.5041 45.1586 34.5041 45.1586 34.4435 45.1003C33.6552 44.2836 32.9881 43.992 32.3211 42.3586C32.2604 42.242 32.1998 41.9503 32.1392 41.8336C31.8966 41.3086 32.1392 41.892 31.7147 41.6003C31.836 41.3086 31.8966 41.542 31.8966 41.192L31.4115 39.1503C31.2296 38.3336 31.3509 38.6836 31.1083 38.5086C31.3509 38.217 31.2902 38.742 31.1083 37.6336C30.987 36.7003 30.6232 35.417 30.6232 34.6003C30.5625 31.042 32.9275 30.2253 32.8062 28.8253C32.6849 27.542 31.6541 28.242 31.2902 27.6003C30.9264 26.9586 31.7147 25.3836 32.1392 24.742C32.8062 23.7503 32.6243 24.2753 32.6243 23.867ZM32.6243 21.4753C32.3817 21.4753 32.4424 21.5336 32.4424 21.3586C32.7456 21.242 32.5636 21.417 32.6243 21.4753ZM32.1392 23.8086C31.9573 23.867 32.0785 23.8086 31.9573 23.7503C32.1392 23.517 32.1392 23.6336 32.2604 23.692C32.1998 23.7503 32.3211 23.692 32.1392 23.8086ZM30.3806 25.792C30.1381 25.8503 30.32 25.967 30.0774 25.7336C30.32 25.5586 30.2593 25.5586 30.3806 25.792ZM32.0785 29.117C32.1392 29.117 32.2604 28.942 32.1998 29.2336C31.8966 29.1753 32.0785 29.1753 32.0785 29.117ZM29.653 26.2586C29.5317 26.5503 29.5923 26.3753 29.5317 26.3753C29.5923 26.2003 29.2285 26.3753 29.5923 26.2586C29.8955 26.142 29.4104 26.142 29.653 26.2586ZM29.7136 27.6003C29.4104 27.717 29.5923 27.7753 29.4104 27.542C29.653 27.4253 29.471 27.4253 29.7136 27.6003ZM30.0774 29.117C30.2593 29.1753 30.0774 28.8253 30.1987 29.2336V29.292L30.0774 29.1753C30.0774 29.1753 30.0774 29.1753 30.0774 29.117ZM25.3476 29.3503C25.4688 29.292 25.4082 29.2336 25.5295 29.3503C25.6507 29.467 25.5901 29.3503 25.5901 29.467C25.4082 29.5253 25.5901 29.5836 25.4082 29.467C25.2263 29.3503 25.4082 29.5253 25.3476 29.3503ZM30.987 39.442C30.987 39.442 30.987 39.5586 30.8051 39.5586C30.7445 39.5586 30.6838 39.5003 30.6838 39.442C30.7445 39.092 30.9264 39.267 30.987 39.442ZM31.9573 42.0086C32.2604 42.1253 32.0785 42.1253 31.9573 42.3003C31.7753 41.892 31.8966 42.1253 31.9573 42.0086ZM29.7742 32.7336C29.5317 32.5003 29.2891 33.2003 29.653 32.5003C29.653 32.5003 29.7136 32.442 29.7742 32.442V32.7336ZM31.4721 30.7503C30.987 30.692 31.2902 30.8086 31.1083 30.4003C31.6541 30.5753 31.2902 30.4003 31.4721 30.7503ZM31.6541 29.642C31.1083 29.5253 31.4115 29.7003 31.2902 29.292C32.0179 29.5836 31.2296 29.292 31.6541 29.642ZM29.5923 31.6836C29.7136 31.3336 29.5923 31.4503 29.8349 31.2753C30.2593 31.6253 30.0774 31.567 29.5923 31.6836ZM30.6838 36.7586C30.4413 37.1086 30.3806 37.0503 30.0168 37.2253C30.0774 36.7586 29.9561 36.992 30.1987 36.7586C30.7445 36.3503 30.4413 36.642 30.6838 36.7586ZM28.804 34.892L28.9253 33.6086C29.471 33.842 29.7742 34.017 29.5923 34.8336L28.804 34.892ZM31.4721 41.717C31.6541 41.7753 31.4115 41.4836 31.5328 41.7753V41.892C31.4721 41.8336 31.4721 42.1836 31.4721 41.717Z" fill="#672900"/>
<path fill-rule="evenodd" clip-rule="evenodd" d="M65.4912 24.333C64.7029 22.2913 65.3093 21.183 66.7646 20.2497C67.8561 19.4913 70.0391 18.8497 71.6158 19.0247C70.4636 19.083 67.9774 19.958 67.1285 20.5413C65.9763 21.2997 65.3699 22.408 65.4912 24.333ZM68.5838 23.9247C68.2806 24.2163 67.6742 24.6247 67.0072 24.683C66.2189 24.7413 65.9763 24.333 65.855 23.7497C67.0072 24.3913 67.1891 24.2163 68.5838 23.9247ZM59.7304 26.958C60.0336 25.7913 61.2464 25.4413 61.9135 26.3163C61.489 26.1997 61.1858 26.258 60.7007 26.433L59.7304 26.958ZM60.7613 26.4913C61.6709 26.258 62.0954 26.3747 62.0954 27.133C62.0954 27.7163 61.7922 28.008 61.5496 28.2413C61.8528 27.5413 61.9135 27.308 61.6103 26.6663L61.4283 27.483L60.7613 26.4913ZM61.9135 28.2997C61.4283 29.1163 60.7007 29.2913 59.6698 29.233L61.9135 28.2997ZM59.7911 27.5413C60.0943 27.8913 60.2762 28.4163 60.64 28.708L59.5485 28.883L59.7911 27.5413ZM78.8925 34.0747L79.0744 32.9663C79.1957 31.9747 79.5595 31.0413 79.7415 30.0497C78.5287 30.808 77.0127 32.733 76.1637 33.958C75.9212 34.2497 75.4967 34.9497 75.3754 35.2413C75.3754 35.0663 75.9818 33.433 76.1031 33.1413C76.4669 32.6747 77.4978 30.1663 80.2266 27.3663C80.8936 26.6663 82.1064 25.7913 83.016 25.0913C84.0469 24.333 85.1384 23.983 86.1693 23.283C82.0458 22.2913 77.3765 25.3247 74.4052 25.2663C72.3434 25.208 72.1615 24.6247 70.8881 23.983C69.9179 24.6247 69.1296 25.6163 67.4923 25.908C65.855 26.1997 64.6422 25.1497 63.2475 24.9747C65.5518 24.508 65.9157 27.308 69.6147 23.983C71.1307 22.583 73.1318 20.658 72.8892 18.208C71.1307 17.683 67.5529 16.7497 65.9763 18.208C65.6125 18.558 65.3699 18.8497 65.1274 19.3163C63.7933 21.7663 63.005 20.4247 60.7613 20.0163C61.0645 20.833 61.5496 21.4163 61.7315 22.4663C61.2464 21.5913 60.7613 20.4247 59.6092 20.5413C59.0634 21.1247 58.9421 22.5247 58.2751 23.458C57.4261 24.6247 57.0623 24.4497 56.941 26.4913C56.8804 28.2413 57.0623 28.5913 56.0921 29.8747C55.1825 31.158 54.6974 31.683 54.758 33.3163L54.8793 34.0163C55.1825 34.308 56.0921 35.9413 56.3346 36.4663C57.2442 37.5747 57.9113 38.5663 58.2145 40.0247C58.457 41.3663 58.1538 42.0663 57.7293 43.058C58.6389 42.6497 60.4581 40.783 61.1251 39.908C61.489 39.4413 61.7922 39.033 62.156 38.6247C61.7315 39.9663 60.5188 41.483 59.7304 42.2413C58.8208 43.1747 57.3049 43.9913 56.941 45.7413C57.9719 46.733 60.822 49.2413 61.1251 50.2913L67.8561 50.6997L67.9168 48.5997C67.6136 45.2163 66.3401 41.9497 69.736 40.4913C71.07 39.908 72.6467 39.6163 74.1626 39.3247C78.1648 38.6247 78.2861 37.3997 78.8925 34.0747ZM64.2784 31.9747L64.339 32.6747L64.5816 34.4247L64.521 37.108C64.0358 39.383 63.005 39.908 61.7922 41.9497C61.4283 42.533 61.2464 43.233 60.8826 43.6413C61.1858 41.133 63.5507 39.1497 63.9752 37.2247L64.0965 36.6997V34.9497V34.308L63.9146 32.6163L63.7933 31.6247C63.7933 30.633 63.4901 29.5247 63.9146 28.7663L64.2784 31.9747Z" fill="#672900"/>
<path fill-rule="evenodd" clip-rule="evenodd" d="M36.2624 19.5497C38.1422 19.4331 40.022 19.6664 41.4167 20.5414C42.5082 21.2414 43.6604 22.9914 42.7508 24.5664C42.5689 19.3747 38.1422 20.2497 36.2624 19.5497ZM39.2943 24.3914C40.4465 24.7414 41.3561 25.0331 42.0837 24.2164C41.8412 25.8497 40.0826 24.9747 39.2943 24.3914ZM49.1179 34.9497C49.4818 34.2497 49.8456 33.6081 49.9669 32.6747V32.1497C49.7243 29.9914 48.5722 28.9997 48.4509 26.4331C48.3903 24.2164 48.5115 22.1747 47.2381 20.6581C45.904 21.0664 45.8434 21.8247 44.9944 22.7581L45.3583 21.4164L42.8114 19.3747C41.9018 18.6164 41.2348 17.9164 39.5975 17.7997C38.2635 17.6831 36.6262 17.7414 35.4134 18.0914C32.3814 18.9081 35.474 24.2164 39.2943 25.7914C41.9018 26.8414 45.237 23.4581 46.2072 27.3081C45.7828 26.7247 45.3583 26.3164 44.388 25.9664C44.5093 26.7247 44.5093 26.5497 45.2976 26.8414L44.9944 28.0664C44.9338 27.7747 44.8732 27.4247 44.7519 27.3081C44.8732 27.8331 44.8732 27.7164 44.8732 28.1247V28.8247C44.8732 28.8247 44.8732 28.8831 44.8732 28.9414L45.7828 29.4081C45.2976 29.6414 45.237 29.2914 44.9338 29.4664C45.1764 29.9914 45.4796 30.5747 45.7221 31.1581C46.1466 32.2664 46.3285 34.4247 46.6317 35.7664C46.753 36.6414 46.8743 38.0997 47.2987 38.7997L47.8445 36.9914L48.0264 36.3497H48.269C48.5722 35.533 48.8754 35.5914 49.1179 34.9497ZM45.8434 29.1164C46.1466 28.9414 46.2679 28.5331 46.4498 28.2997L46.6317 29.4081L45.8434 29.1164Z" fill="#672900"/>
<path fill-rule="evenodd" clip-rule="evenodd" d="M70.403 8.81693C71.1307 9.45859 72.6466 9.86693 73.6775 10.5669C77.9829 13.3669 80.2872 15.1169 83.7437 19.0836L85.3809 21.6503C85.6841 22.0586 86.7756 22.0003 87.3214 22.0586C86.8363 20.4836 83.8649 17.2169 83.016 16.2836C78.2255 11.0919 77.0127 10.9753 70.8275 8.05859C70.4636 8.23359 70.0998 8.52526 70.403 8.81693Z" fill="#672900"/>
<path fill-rule="evenodd" clip-rule="evenodd" d="M49.7246 15.9339C50.4523 16.2256 51.18 16.8089 51.18 17.9756C51.18 19.0256 50.3916 19.4339 50.5736 20.8339C50.7555 22.0006 52.7566 25.0339 54.03 24.4506C54.5758 23.9839 54.6364 23.3423 55.0002 22.7589C56.395 20.2506 57.6077 21.0673 57.0014 18.2089L56.8194 16.8673L55.3034 16.9256C56.8801 16.2839 57.1833 16.7506 58.4567 15.5256C58.4567 15.5256 58.3961 15.4089 58.3961 15.4673L57.6077 15.0006C54.7577 13.8339 50.7555 14.4173 49.7246 15.9339Z" fill="#672900"/>
<path fill-rule="evenodd" clip-rule="evenodd" d="M86.2901 24.684C86.8358 27.2506 87.6241 27.8923 88.0486 31.9756C88.2912 34.659 88.1699 37.459 87.6241 40.084C86.9571 43.234 85.5624 46.909 83.7432 49.534C83.3794 50.059 83.1368 50.409 82.773 50.8756C82.4091 51.3423 82.0453 51.6923 81.8027 52.2756L83.6219 52.7423C85.9869 50.6423 88.7763 43.7006 89.322 40.1423C89.8071 37.284 89.9284 34.484 89.5646 31.5673C89.322 29.6423 88.5337 25.559 87.5635 24.334L86.2901 24.684Z" fill="#672900"/>
<path fill-rule="evenodd" clip-rule="evenodd" d="M47.2386 40.0835C46.5109 41.6585 47.1779 45.9168 52.6355 45.7418C54.576 45.6835 55.7281 45.1001 56.5771 43.9335C57.426 42.7668 57.7292 40.8418 56.8196 39.6751C57.0622 41.6001 56.4558 43.9335 54.3334 43.1168C53.6057 40.4918 56.0313 41.7168 56.3951 39.1501C52.1504 39.3251 52.8174 39.9085 47.6024 39.0918C48.0875 41.4835 50.3918 41.3668 49.4822 42.9418C49.1184 43.5835 47.3599 43.7001 47.2386 40.0835Z" fill="#672900"/>
<path fill-rule="evenodd" clip-rule="evenodd" d="M46.2078 20.5999C47.7238 20.0749 46.4504 18.3249 46.7536 17.7415C46.9962 17.2749 47.6026 17.2165 48.5122 16.5749L48.9973 16.1665C49.0579 16.1082 49.0579 16.1082 49.1185 16.0499C49.1185 16.0499 49.1792 15.9915 49.2398 15.9332C47.7238 16.1665 46.4504 16.3415 45.0557 15.7582C44.4493 15.5249 44.0855 15.3499 43.661 14.8832C43.2365 14.4749 43.1152 14.1249 42.7514 13.6582C41.9024 16.5165 44.5706 17.7415 45.9046 18.6749C46.5717 19.1999 46.511 19.8999 46.2078 20.5999Z" fill="#672900"/>
<path fill-rule="evenodd" clip-rule="evenodd" d="M59.002 15.583L59.6083 16.108C59.669 16.1663 60.2147 16.3997 60.3967 16.458C61.0637 16.6913 61.5488 16.7497 62.0946 17.0413L61.6701 18.6747C62.0339 19.258 62.1552 19.3747 62.7616 19.608C62.4584 19.0247 62.3978 19.1413 62.3978 18.2663C63.6105 17.4497 65.1872 16.2247 65.4904 14.883V13.4247C65.3691 13.0163 65.3691 13.133 65.2478 12.958C64.3382 14.0663 64.6414 14.4163 63.1254 15.1163C61.7307 15.8747 60.5786 15.758 59.002 15.583Z" fill="#672900"/>
<path fill-rule="evenodd" clip-rule="evenodd" d="M48.7539 36.5251L48.9965 36.6418C48.9965 36.2335 48.8752 36.4668 49.1784 36.2335L49.4209 36.0001C49.6635 35.4168 49.9061 35.3585 50.2699 34.7751C50.5731 34.3085 50.5731 33.9001 50.8156 33.3751V32.9668V32.2668V31.8001C50.5731 31.2168 50.5731 30.6335 50.2093 30.0501L50.0273 29.7585C49.7848 29.5251 49.9667 29.7001 49.7241 29.4668C50.1486 31.1585 50.5731 31.5085 50.2699 33.4335C49.9667 34.8918 49.1784 35.1835 48.7539 36.5251Z" fill="#672900"/>
<path fill-rule="evenodd" clip-rule="evenodd" d="M55.0004 45.7422C52.0291 46.2672 52.5142 46.2089 49.6035 45.7422L49.7854 45.9172C50.4525 46.4422 51.4833 46.6172 52.2716 46.6172C52.9993 46.6172 53.7876 46.5005 54.394 46.2089C54.4547 46.2089 54.6972 46.0339 54.6972 46.0339C54.9398 45.8589 54.8185 45.8589 55.0004 45.7422Z" fill="#672900"/>
<path fill-rule="evenodd" clip-rule="evenodd" d="M54.5146 42.4751L55.4849 42.5918L56.2126 40.8418C55.303 41.0751 54.5146 41.5418 54.5146 42.4751Z" fill="#672900"/>
<path fill-rule="evenodd" clip-rule="evenodd" d="M49.3606 42.4754C49.3606 41.4837 48.8149 41.1337 47.9053 40.9004C48.1478 41.7171 48.1478 42.8254 49.3606 42.4754Z" fill="#672900"/>
<path fill-rule="evenodd" clip-rule="evenodd" d="M44.7525 9.45852C45.0557 9.63352 44.8131 9.57518 45.0557 9.57518C45.6621 9.51685 45.177 9.51685 45.2376 9.34185C44.9344 9.28352 45.3589 8.99185 44.7525 9.45852ZM47.0568 7.65018C47.0568 7.70852 46.511 7.82518 47.2994 8.00018C47.36 7.24185 47.1174 7.65018 47.0568 7.65018ZM50.392 7.24185C50.392 7.82518 50.8165 6.95018 50.2707 7.41685C49.7249 7.88352 50.4526 7.47518 50.0281 7.35852C50.1494 7.30018 49.6643 7.18352 50.392 7.24185ZM61.7922 7.70852C61.489 7.47518 61.5496 7.65018 61.7316 7.24185C61.8528 7.35852 62.338 7.30018 61.7922 7.70852ZM51.7867 7.12518C51.5441 6.54185 51.5441 6.95018 51.908 6.54185C52.1505 7.00852 52.2112 6.83352 51.7867 7.12518ZM57.0017 5.95852C57.0017 5.66685 56.7591 5.84185 57.0623 5.60852C57.3655 5.37518 57.1836 5.55018 57.4262 5.55018C57.3655 5.84185 57.5474 5.90018 57.0017 5.95852ZM41.6599 9.57518C41.4173 9.75018 38.6279 11.0335 40.2045 11.3835L40.5684 11.4418C40.5684 11.3835 40.5684 11.3252 40.5077 11.2085C40.3865 10.8002 40.4471 11.1502 40.6897 10.9168C40.8716 11.0335 40.8109 10.8002 40.9322 11.1502C40.9929 11.5002 40.9929 11.2085 40.7503 11.4418C40.629 11.3835 40.629 11.4418 40.629 11.4418H40.6897C39.7194 12.0835 36.0811 15.4085 36.7481 16.8085C37.9609 16.8668 38.3247 16.1668 39.6588 14.5918C40.9322 13.1335 40.2045 13.6585 42.0844 11.8502C46.0259 8.05852 54.8187 7.12518 59.2453 7.94185C61.1858 8.29185 68.1593 8.46685 69.554 8.46685C68.887 6.48352 63.1869 6.36685 60.9432 5.72518C59.1847 5.20018 59.7305 5.72518 59.3666 4.85018C57.9113 4.50018 54.758 6.01685 53.7878 5.02518C52.8176 3.97518 55.4857 1.70018 54.8793 1.05851C54.5155 0.708514 53.7878 0.941848 53.242 1.23351C52.6963 1.52518 52.3931 1.81685 52.0899 2.16685C51.2409 3.15851 50.4526 6.48352 48.3909 6.13352C48.2696 6.13352 48.209 6.07518 48.1483 6.07518C48.027 6.25018 47.9058 6.25018 47.7845 6.36685C47.5419 5.90018 47.4813 6.07518 47.7238 5.95852C47.2994 5.55018 47.1781 4.85018 46.0259 5.20018C45.6621 6.01685 46.0259 7.18352 45.3589 7.94185C44.4493 8.93352 43.1152 7.88352 42.6908 7.65018C41.6599 7.06685 40.3865 7.00852 40.0833 7.94185C39.7801 8.81685 41.1141 9.34185 41.6599 9.57518Z" fill="#672900"/>
<path d="M44.7525 9.45852C45.0557 9.63352 44.8131 9.57518 45.0557 9.57518C45.6621 9.51685 45.177 9.51685 45.2376 9.34185C44.9344 9.28352 45.3589 8.99185 44.7525 9.45852ZM47.0568 7.65018C47.0568 7.70852 46.511 7.82518 47.2994 8.00018C47.36 7.24185 47.1174 7.65018 47.0568 7.65018ZM50.392 7.24185C50.392 7.82518 50.8165 6.95018 50.2707 7.41685C49.7249 7.88352 50.4526 7.47518 50.0281 7.35852C50.1494 7.30018 49.6643 7.18352 50.392 7.24185ZM61.7922 7.70852C61.489 7.47518 61.5496 7.65018 61.7316 7.24185C61.8528 7.35852 62.338 7.30018 61.7922 7.70852ZM51.7867 7.12518C51.5441 6.54185 51.5441 6.95018 51.908 6.54185C52.1505 7.00852 52.2112 6.83352 51.7867 7.12518ZM57.0017 5.95852C57.0017 5.66685 56.7591 5.84185 57.0623 5.60852C57.3655 5.37518 57.1836 5.55018 57.4262 5.55018C57.3655 5.84185 57.5474 5.90018 57.0017 5.95852ZM41.6599 9.57518C41.4173 9.75018 38.6279 11.0335 40.2045 11.3835L40.5684 11.4418C40.5684 11.3835 40.5684 11.3252 40.5077 11.2085C40.3865 10.8002 40.4471 11.1502 40.6897 10.9168C40.8716 11.0335 40.8109 10.8002 40.9322 11.1502C40.9929 11.5002 40.9929 11.2085 40.7503 11.4418C40.629 11.3835 40.629 11.4418 40.629 11.4418H40.6897C39.7194 12.0835 36.0811 15.4085 36.7481 16.8085C37.9609 16.8668 38.3247 16.1668 39.6588 14.5918C40.9322 13.1335 40.2045 13.6585 42.0844 11.8502C46.0259 8.05852 54.8187 7.12518 59.2453 7.94185C61.1858 8.29185 68.1593 8.46685 69.554 8.46685C68.887 6.48352 63.1869 6.36685 60.9432 5.72518C59.1847 5.20018 59.7305 5.72518 59.3666 4.85018C57.9113 4.50018 54.758 6.01685 53.7878 5.02518C52.8176 3.97518 55.4857 1.70018 54.8793 1.05851C54.5155 0.708514 53.7878 0.941848 53.242 1.23351C52.6963 1.52518 52.3931 1.81685 52.0899 2.16685C51.2409 3.15851 50.4526 6.48352 48.3909 6.13352C48.2696 6.13352 48.209 6.07518 48.1483 6.07518C48.027 6.25018 47.9058 6.25018 47.7845 6.36685C47.5419 5.90018 47.4813 6.07518 47.7238 5.95852C47.2994 5.55018 47.1781 4.85018 46.0259 5.20018C45.6621 6.01685 46.0259 7.18352 45.3589 7.94185C44.4493 8.93352 43.1152 7.88352 42.6908 7.65018C41.6599 7.06685 40.3865 7.00852 40.0833 7.94185C39.7801 8.81685 41.1141 9.34185 41.6599 9.57518Z" fill="#672900"/>
<path d="M100.358 58.6917L101.45 57.4667C102.541 56.3 103.39 55.425 104.057 54.8417C104.724 54.2583 105.27 53.85 105.816 53.6167C106.301 53.3833 106.847 53.2083 107.393 53.2083C108.241 53.2083 108.848 53.4417 109.212 53.85C109.576 54.3167 109.757 55.075 109.757 56.125C109.757 56.5917 109.697 57.2333 109.636 58.1083C109.515 59.275 109.394 60.3833 109.394 61.4333C109.394 62.6 109.454 63.5333 109.576 64.2333C109.636 64.7 109.757 65.1083 109.939 65.575C110.061 65.9833 110.121 66.275 110.121 66.45C110.121 66.625 110.061 66.8 109.879 66.9167C109.515 67.2083 109.03 67.5 108.423 67.7333C107.817 67.9667 107.271 68.0833 106.847 68.0833C106.18 68.0833 105.513 67.85 104.967 67.3833C104.421 66.9167 103.997 66.275 103.693 65.5167C103.39 64.7 103.208 63.825 103.208 62.775C103.208 62.1333 103.269 61.3167 103.451 60.3833L103.39 60.325C102.905 60.9083 102.481 61.3167 102.117 61.6667C101.814 61.9583 101.51 62.3083 101.207 62.6C99.8732 64.0583 98.7211 65.4 97.8115 66.625C97.4476 67.0917 97.1444 67.5 96.8412 67.85C96.4168 68.2583 95.871 68.4917 95.3252 68.4917C94.5369 68.4917 93.9305 68.2 93.4454 67.675C92.9603 67.15 92.7178 66.3917 92.7178 65.5167C92.7178 64.9917 92.7784 64.2917 92.8997 63.5333C93.0209 62.7167 93.2029 61.9 93.4454 61.025C93.688 60.15 93.9305 59.2167 94.2337 58.225C94.5369 57.2917 94.9008 56.3583 95.2646 55.5417C95.8104 54.1417 96.4774 53.0333 97.2657 52.2167C97.8115 51.6917 98.4785 51.4583 99.2668 51.4583C100.54 51.4583 101.147 52.2167 101.147 53.7917C101.147 54.9583 100.904 56.5917 100.358 58.6917ZM83.8644 62.775V62.8333L83.8037 62.775C82.7122 64.0583 81.6814 65.05 80.7111 65.8667C79.8015 66.6833 78.9526 67.2667 78.1643 67.675C77.376 68.0833 76.6483 68.2583 75.9813 68.2583C74.6472 68.2583 73.5557 67.85 72.6461 66.975C71.7971 66.1 71.312 64.9917 71.312 63.65C71.312 62.8333 71.5546 61.8417 71.979 60.7333C72.4035 59.625 73.0099 58.5167 73.7376 57.4083C75.011 55.6583 76.5876 54.1417 78.4675 52.9167C80.4079 51.6333 82.3484 51.05 84.1676 51.05C85.6836 51.05 86.957 51.3417 87.9272 51.9833C88.8975 52.5667 89.3826 53.3833 89.3826 54.2583C89.3826 54.9583 89.14 55.6583 88.6549 56.4167C89.3219 56.4167 89.6858 56.475 89.8677 56.5917C90.0496 56.7083 90.1103 57.0583 90.1103 57.525C90.1103 57.4667 90.0496 57.7 90.0496 58.225C89.989 59.3917 89.9283 60.4417 89.9283 61.4333C89.9283 61.9583 89.9283 62.3667 89.9283 62.6C89.9283 62.8917 89.989 63.1833 89.989 63.5333C90.0496 63.8833 90.0496 64.175 90.1103 64.35C90.2315 64.875 90.3528 65.4583 90.5954 65.9833C89.8677 66.6833 89.2007 67.15 88.5336 67.5C87.8666 67.7917 87.1996 67.9667 86.5325 67.9667C84.7133 67.9667 83.7431 66.45 83.7431 63.475C83.8644 63.2417 83.8644 63.0083 83.8644 62.775ZM84.9559 58.8083L84.5921 58.925C83.7431 59.1583 83.1367 59.275 82.7122 59.275C82.2271 59.275 81.9846 59.1583 81.9846 58.925C81.9846 58.8667 82.1058 58.6333 82.2878 58.2833C82.9548 57.2917 83.3186 56.3583 83.3186 55.4833C83.3186 54.9583 83.1974 54.55 83.0761 54.1417C82.8942 53.7333 82.7122 53.5 82.4697 53.5C82.2878 53.5 81.9846 53.675 81.6207 54.0833C80.5292 55.25 79.6196 56.475 78.9526 57.7C78.2856 58.925 77.9824 60.0333 77.9824 60.9667C77.9824 61.6083 78.1036 62.1333 78.4068 62.5417C78.6494 62.95 79.0132 63.1833 79.4377 63.1833C79.8015 63.1833 80.4079 62.8333 81.3782 62.1333C82.3484 61.4333 83.3793 60.4417 84.5921 59.275L85.0772 58.8667L84.9559 58.8083ZM63.5502 62.775V62.8333L63.4895 62.775C62.398 64.0583 61.3671 65.05 60.3969 65.8667C59.4873 66.6833 58.6384 67.2667 57.8501 67.675C57.0617 68.0833 56.3341 68.2583 55.667 68.2583C54.333 68.2583 53.2415 67.85 52.3319 66.975C51.4829 66.1 50.9978 64.9917 50.9978 63.65C50.9978 62.8333 51.2404 61.8417 51.6648 60.7333C52.0893 59.625 52.6957 58.5167 53.4234 57.4083C54.6968 55.6583 56.2734 54.1417 58.1533 52.9167C60.0937 51.6333 62.0342 51.05 63.8534 51.05C65.3694 51.05 66.6428 51.3417 67.613 51.9833C68.5832 52.5667 69.0684 53.3833 69.0684 54.2583C69.0684 54.9583 68.8258 55.6583 68.3407 56.4167C69.0077 56.4167 69.3716 56.475 69.5535 56.5917C69.7354 56.7083 69.796 57.0583 69.796 57.525C69.796 57.4667 69.7354 57.7 69.7354 58.225C69.6748 59.3917 69.6141 60.4417 69.6141 61.4333C69.6141 61.9583 69.6141 62.3667 69.6141 62.6C69.6141 62.8917 69.6748 63.1833 69.6748 63.5333C69.7354 63.8833 69.7354 64.175 69.796 64.35C69.9173 64.875 70.0386 65.4583 70.2812 65.9833C69.5535 66.6833 68.8864 67.15 68.2194 67.5C67.5524 67.7917 66.8853 67.9667 66.2183 67.9667C64.3991 67.9667 63.4289 66.45 63.4289 63.475C63.4895 63.2417 63.5502 63.0083 63.5502 62.775ZM64.6417 58.8083L64.2778 58.925C63.4289 59.1583 62.8225 59.275 62.398 59.275C61.9129 59.275 61.6703 59.1583 61.6703 58.925C61.6703 58.8667 61.7916 58.6333 61.9735 58.2833C62.6406 57.2917 63.0044 56.3583 63.0044 55.4833C63.0044 54.9583 62.8831 54.55 62.7619 54.1417C62.5799 53.7333 62.398 53.5 62.1555 53.5C61.9735 53.5 61.6703 53.675 61.3065 54.0833C60.215 55.25 59.3054 56.475 58.6384 57.7C57.9713 58.925 57.6681 60.0333 57.6681 60.9667C57.6681 61.6083 57.7894 62.1333 58.0926 62.5417C58.3352 62.95 58.699 63.1833 59.1235 63.1833C59.4873 63.1833 60.0937 62.8333 61.0639 62.1333C62.0342 61.4333 63.065 60.4417 64.2778 59.275L64.763 58.8667L64.6417 58.8083ZM40.0827 68.6083C40.8104 68.55 41.4168 68.2583 42.0232 67.6167C42.6296 66.975 42.8721 66.275 42.8721 65.575C42.8721 65.05 42.6902 64.6417 42.3264 64.35C41.9625 64 41.1136 63.65 39.8401 63.3C37.9603 62.775 36.6869 62.1917 36.1411 61.4917C35.5954 60.9667 35.3528 60.325 35.3528 59.5667C35.3528 58.225 35.8379 56.8833 36.8688 55.5417C37.8997 54.2 39.1731 53.0917 40.6891 52.275C42.2657 51.4 43.8423 50.9917 45.419 50.9917C46.2073 50.9917 46.8743 51.1667 47.602 51.5167C48.269 51.8667 48.8148 52.3333 49.1786 52.9167C49.6031 53.5 49.785 54.1417 49.785 54.7833C49.785 55.425 49.5424 56.125 49.118 56.825C48.6935 57.525 48.1477 58.1083 47.4807 58.575C46.8137 59.0417 46.2073 59.275 45.6009 59.275C45.237 59.275 44.9945 59.2167 44.7519 59.0417C44.5094 58.925 44.3881 58.75 44.3881 58.575C44.3881 58.4 44.4487 58.1667 44.5094 57.875C44.7519 56.8833 44.9338 56.0083 44.9338 55.25C44.9338 54.4917 44.6913 53.85 44.2668 53.15C43.6604 53.5583 43.2966 53.85 43.1147 54.0833C42.6295 54.6083 42.3264 55.1917 42.0232 55.8333C41.72 56.475 41.5987 57.1167 41.5987 57.7C41.5987 58.1083 41.72 58.4583 41.9019 58.6917C42.0838 58.925 42.4476 59.1583 42.8721 59.3333C43.2966 59.5083 44.0243 59.6833 44.9338 59.9167C46.4498 60.2667 47.5413 60.6167 48.1477 60.9667C48.269 61.025 48.5116 61.2 48.8148 61.4917C49.2393 61.9583 49.4818 62.6 49.4818 63.3583C49.4818 64.175 49.2393 64.9917 48.6935 65.8083C48.1477 66.625 47.3594 67.4417 46.3286 68.3167C45.1764 69.25 44.0243 69.95 42.8721 70.3583C41.72 70.7667 40.4465 70.9417 39.1125 70.9417C37.7784 70.9417 36.7475 70.7083 35.9592 70.1833C35.1709 69.6583 34.8071 68.9583 34.8071 68.0833C34.8071 67.4417 35.0496 66.8 35.5347 66.1583C36.0198 65.5167 36.6869 64.9917 37.4146 64.5833C38.1422 64.175 38.9305 64 39.5976 64C40.1433 64 40.3859 64.1167 40.3859 64.35C40.3859 64.4667 40.3252 64.6417 40.1433 64.9333C39.6582 65.75 39.4763 66.5083 39.4763 67.2083C39.5369 67.675 39.7189 68.1417 40.0827 68.6083ZM32.1996 50.525C31.0474 50.525 30.5017 49.825 30.5017 48.5417C30.5017 47.9 30.6836 47.1417 30.9868 46.325C31.29 45.5083 31.7144 44.8667 32.1389 44.4583C32.3815 44.225 32.5634 44.05 32.806 43.9917C33.0485 43.875 33.2911 43.875 33.6549 43.875C34.2613 43.875 34.6858 43.9917 34.989 44.2833C35.2922 44.575 35.4135 45.0417 35.4135 45.6833C35.4135 46.5 35.2922 47.3167 34.989 48.0167C34.6858 48.775 34.3219 49.3583 33.8368 49.825C33.2911 50.2917 32.7453 50.525 32.1996 50.525ZM28.1367 68.025C27.591 67.9667 27.1058 67.7333 26.6814 67.325C26.2569 66.8583 25.9537 66.3333 25.7111 65.8083C25.5292 65.2833 25.4079 64.5833 25.4079 63.7083C25.4079 61.7833 25.7718 59.625 26.4994 57.2333C27.2271 54.8417 28.0761 53.0917 28.9857 51.9833C29.3495 51.5167 29.8953 51.2833 30.5017 51.2833C31.1687 51.2833 31.7751 51.575 32.1996 52.2167C32.624 52.8583 32.8666 53.6167 32.8666 54.6083C32.8666 56.0667 32.624 57.8167 32.1996 59.8C31.7751 61.7833 31.1687 63.825 30.3804 65.9833C30.0772 66.8583 29.7133 67.4417 29.2282 67.7333C28.9857 67.9083 28.6218 68.025 28.1367 68.025ZM11.0364 52.8583L14.6748 49.0667C15.7056 48.1333 16.4333 47.4333 16.9791 46.9667C17.5248 46.5 18.1918 46.0333 19.0408 45.5083C20.4355 44.575 21.7696 44.1083 22.9217 44.1083C23.8313 44.1083 24.2558 44.4 24.2558 45.0417C24.2558 45.5083 24.1345 46.0333 23.892 46.5C23.6494 46.9667 23.3462 47.4333 22.9217 47.8417C22.194 48.5417 20.7993 49.5333 18.7376 50.7C17.161 51.6333 15.9482 52.45 15.0386 53.15C15.1599 54.025 15.3418 54.7833 15.5237 55.4833C15.7056 56.1833 15.8875 56.7667 16.1301 57.2917C16.3727 57.8167 16.6759 58.4583 17.0397 59.2167C17.4642 60.0333 17.9493 60.7917 18.495 61.4917C19.7685 63.1833 21.1025 64.2917 22.376 64.8167C22.8004 64.9917 22.9824 65.1667 22.9824 65.3417C22.9824 65.6333 22.8004 65.925 22.376 66.275C21.8302 66.8583 21.1632 67.2667 20.3749 67.5583C19.5865 67.85 18.7982 68.025 18.0099 68.025C16.5546 68.025 15.2205 67.675 14.0684 66.9167C12.9162 66.1583 12.0066 65.1083 11.4002 63.7667C10.6725 62.25 10.1874 60.3833 10.0055 58.225C9.94487 57.8167 9.94487 57.4083 9.94487 57H9.88423C9.39912 57.7 9.03528 58.225 8.79272 58.6917C8.55017 59.1 8.24697 59.8583 7.76185 60.9667C7.2161 62.3667 6.73098 63.475 6.24587 64.2333C5.76075 64.9917 5.27563 65.6333 4.66924 66.1C4.12348 66.5667 3.51709 66.975 2.85005 67.2667C2.18302 67.5583 1.63727 67.7333 1.15215 67.7333C0.848953 67.7333 0.545755 67.6167 0.363837 67.3833C0.121279 67.2083 0 66.9167 0 66.5667C0 66.3333 0 66.2167 0.0606395 66.1C0.606395 63.9417 1.21279 61.725 1.87982 59.45C2.54686 57.175 3.21389 55.075 3.94157 53.0917C4.6086 51.1083 5.27563 49.4167 5.88203 48.0167C6.48842 46.6167 6.9129 45.7417 7.27674 45.3917C7.64057 44.9833 8.24697 44.6333 8.97464 44.3417C9.70232 44.05 10.5513 43.9333 11.3396 43.9333C12.0673 43.9333 12.613 44.05 12.9162 44.225C13.2194 44.4 13.4013 44.75 13.4013 45.1583C13.4013 45.7417 12.7343 47.725 11.5215 51.1083C11.4609 51.3417 11.2789 51.75 11.097 52.2167C10.9151 52.7417 10.7332 53.0917 10.6725 53.325L10.7332 53.4417L11.0364 52.8583Z" fill="#0C461B"/>
</svg>
