<svg width="101" height="115" viewBox="0 0 101 115" fill="none" xmlns="http://www.w3.org/2000/svg">
<path d="M100.97 86.546C100.97 86.1258 100.97 85.7056 100.97 85.2854C100.97 85.1053 100.97 84.9252 100.97 84.7451C100.97 82.2238 100.97 79.7326 100.97 77.2114C100.97 76.9713 100.97 76.7311 100.97 76.491C100.97 68.1469 100.97 59.8028 101 51.4287C101 50.3181 100.7 49.5077 99.8911 48.7574C95.8752 44.7954 91.9191 40.7734 87.9032 36.7815C87.2738 36.1511 87.0341 35.5208 87.0341 34.6204C87.064 23.9051 87.064 13.1898 87.064 2.50457C87.064 0.523591 86.5845 0.0133399 84.6365 0.0133399C77.2339 0.0133399 69.8014 0.0133399 62.3989 0.0133399C59.9114 0.0133399 57.3939 0.0133399 54.9064 0.0133399C54.6667 0.0133399 54.4269 -0.0166749 54.1872 0.0133399C51.7596 0.0133399 49.3021 0.0133399 46.8745 0.0133399C46.6348 -0.0166749 46.365 0.0133399 46.1253 0.0133399C42.6488 0.0133399 39.2022 0.0133399 35.7257 0.0133399C29.2822 0.0133399 22.8687 0.0133399 16.4552 0.0133399C14.4172 0.0133399 13.9377 0.493577 13.9377 2.50457C13.9377 13.2499 13.9377 23.9952 13.9377 34.7404C13.9377 35.5508 13.7279 36.1211 13.1585 36.6914C9.11255 40.6834 5.12657 44.7354 1.08064 48.7273C0.331397 49.4477 -0.0282408 50.2281 0.00172903 51.2786C0.0316988 58.8723 0.0316988 66.4661 0.0316988 74.0898C0.0316988 74.2999 0.0316988 74.5401 0.0316988 74.7502C0.0316988 77.2714 0.0316988 79.8227 0.0316988 82.3439C0.0316988 82.464 0.0316988 82.614 0.0316988 82.7341C0.0316988 84.595 0.0316988 86.4559 0.0316988 88.2868C0.0316988 96.3908 0.0316988 104.525 0.00172903 112.629C0.00172903 113.649 0.271457 114.46 1.14058 115C34.0474 115 66.9543 115 99.8612 115C100.76 114.46 101 113.649 101 112.629C100.94 103.955 100.97 95.2503 100.97 86.546ZM87.124 41.1036C90.3008 44.2852 93.4776 47.4667 96.6244 50.5883C93.5075 53.6798 90.3008 56.8614 87.124 60.0129C87.124 53.7698 87.124 47.4067 87.124 41.1036ZM17.3243 3.40501C17.9536 3.40501 18.4032 3.40501 18.8527 3.40501C24.4871 3.40501 30.0914 3.40501 35.7257 3.40501C39.1723 3.40501 42.5888 3.40501 46.0354 3.40501C46.3051 3.40501 46.6048 3.43503 46.8745 3.40501C49.332 3.40501 51.7596 3.40501 54.2171 3.40501C54.4869 3.43503 54.7865 3.40501 55.0563 3.40501C55.6856 3.40501 56.315 3.40501 56.9144 3.40501C65.3659 3.40501 73.8474 3.40501 82.2988 3.40501C82.7184 3.40501 83.168 3.40501 83.7074 3.40501C83.7074 3.88525 83.7074 4.21541 83.7074 4.54557C83.7074 23.9651 83.7074 43.4147 83.6775 62.8343C83.6775 63.4046 83.3478 64.1249 82.9282 64.5451C78.193 69.3475 73.4278 74.0898 68.6626 78.8622C68.4228 79.1023 68.1831 79.3124 67.8534 79.6126C67.4638 79.1924 67.0742 78.8322 66.7745 78.412C65.8154 77.1213 64.5567 76.7912 62.9683 76.7912C55.1462 76.8512 47.354 76.9112 39.5319 76.7612C37.0144 76.7011 34.8866 77.0913 33.4181 79.2824C33.3581 79.3724 33.2383 79.4325 33.1483 79.4925C33.0584 79.4325 32.9386 79.4025 32.8786 79.3124C27.8437 74.2999 22.8088 69.2575 17.8338 64.215C17.5341 63.9148 17.3842 63.2845 17.3842 62.8043C17.3243 43.4147 17.3243 24.0252 17.3243 4.63562C17.3243 4.21541 17.3243 3.82522 17.3243 3.40501ZM13.9077 41.2236C13.9077 47.4067 13.9077 53.7398 13.9077 59.9229C10.7909 56.8013 7.61406 53.6498 4.55714 50.5582C7.55412 47.5568 10.7609 44.3452 13.9077 41.2236ZM3.38832 88.3469C3.38832 86.576 3.38832 84.7751 3.38832 83.0042C3.38832 82.7341 3.41829 82.464 3.38832 82.1938C3.38832 79.7326 3.38832 77.2714 3.38832 74.8102C3.41829 74.5701 3.38832 74.2999 3.38832 74.0598C3.38832 71.1184 3.38832 68.2069 3.38832 65.2655C3.38832 62.204 3.38832 59.1425 3.38832 56.081C3.38832 55.6908 3.38832 55.3006 3.38832 54.9704C12.4692 64.0649 21.4601 73.0693 30.2712 81.8637C21.3103 90.8081 12.3193 99.8425 3.38832 108.787C3.38832 108.607 3.38832 108.217 3.38832 107.796C3.38832 101.283 3.38832 94.8 3.38832 88.3469ZM51.4299 111.158C50.9204 111.398 50.0813 111.398 49.5718 111.158C44.7167 108.757 42.0494 104.795 41.7796 99.3623C41.6298 96.4509 41.7197 93.5394 41.7796 90.598C41.7796 90.2078 42.1693 89.8176 42.379 89.4274C42.409 89.3674 42.4989 89.3373 42.5589 89.3073C44.5668 87.5365 46.8745 86.7861 49.5418 87.1463C50.2012 87.2363 50.8905 87.2363 51.5498 87.1463C54.307 86.696 56.5847 87.6865 58.5927 89.4274C58.8924 89.6975 59.1921 90.1778 59.1921 90.598C59.2521 92.1287 59.2221 93.6595 59.2221 95.1902C59.282 95.1902 59.342 95.1902 59.4019 95.2203C59.1921 97.5914 59.2221 100.023 58.7126 102.334C57.8135 106.416 55.2061 109.357 51.4299 111.158ZM56.9743 111.638C57.304 111.278 57.5438 111.008 57.7835 110.768C60.9304 107.496 62.5787 103.594 62.6386 99.0321C62.6686 95.8205 62.6386 92.5789 62.6686 89.3674C62.6686 88.4369 62.3689 87.7766 61.5897 87.3264C61.5298 87.2963 61.4698 87.2363 61.4099 87.2063C58.2331 84.3549 54.5468 83.6045 50.2911 83.6646C46.5149 83.7246 43.2482 84.3249 40.2512 86.7261C38.9925 87.7466 38.3032 88.647 38.3631 90.2978C38.5129 93.0592 38.3931 95.8506 38.3931 98.6119C38.3931 103.474 40.1013 107.586 43.5179 111.008C43.6677 111.158 43.8176 111.308 44.0574 111.578C31.2902 111.578 18.7029 111.578 5.93575 111.578C6.26542 111.218 6.47521 110.948 6.71497 110.708C16.635 100.773 26.555 90.8681 36.445 80.9032C36.9845 80.3629 37.5239 80.1228 38.3032 80.1228C46.4549 80.1528 54.6067 80.1228 62.7585 80.1528C63.298 80.1528 63.9573 80.3629 64.317 80.7231C74.4168 90.7781 84.4866 100.863 94.5565 110.948C94.7063 111.098 94.8562 111.278 95.1259 111.578C82.2988 111.638 69.7115 111.638 56.9743 111.638ZM97.5834 108.967C88.5026 99.8725 79.5116 90.8681 70.6406 81.9837C79.5416 73.0693 88.5625 64.0349 97.5834 55.0004C97.5834 55.3306 97.5834 55.7208 97.5834 56.111C97.5834 61.2435 97.5834 66.376 97.5834 71.5086C97.5834 73.1594 97.5834 74.8102 97.5834 76.431C97.5834 76.7011 97.5535 76.9412 97.5834 77.2114C97.5834 79.6726 97.5834 82.1638 97.5834 84.625C97.5535 84.8651 97.5834 85.1353 97.5834 85.4054C97.5834 85.7656 97.5834 86.1558 97.5834 86.516C97.5834 93.6295 97.5834 100.743 97.5834 107.886C97.5834 108.277 97.5834 108.667 97.5834 108.967ZM73.0681 57.5817C73.0382 58.6923 72.229 59.2625 70.4907 59.2625C57.1542 59.2625 43.7876 59.2625 30.4511 59.2625C28.7428 59.2625 27.9036 58.7223 27.9036 57.5817C27.8737 56.4111 28.7428 55.8709 30.541 55.8709C37.2242 55.8709 43.9375 55.8709 50.6207 55.8709C57.2441 55.8709 63.8674 55.8709 70.4608 55.8709C72.229 55.8409 73.0981 56.4111 73.0681 57.5817ZM73.0681 36.5714C73.0981 37.7119 72.2589 38.2822 70.5507 38.2822C63.8674 38.2822 57.1542 38.2822 50.4709 38.2822C43.8176 38.2822 37.1643 38.2822 30.511 38.2822C30.0914 38.2822 29.6718 38.3122 29.2822 38.2222C28.4131 38.1021 27.8437 37.4718 27.9636 36.6914C28.0535 36.0911 28.563 35.4908 29.0425 35.0706C29.3422 34.8305 29.9715 34.8905 30.4511 34.8905C43.7876 34.8905 57.1542 34.8905 70.4907 34.8905C72.229 34.8905 73.0382 35.4608 73.0681 36.5714ZM73.0382 64.5451C73.0382 65.4156 72.5287 66.0159 71.5996 66.1659C71.21 66.226 70.7904 66.226 70.3709 66.226C63.7475 66.226 57.1242 66.226 50.5308 66.226C43.8476 66.226 37.1343 66.226 30.4511 66.226C30.0315 66.226 29.6119 66.226 29.2223 66.1659C28.3232 65.9858 27.8737 65.3555 27.9036 64.4851C27.9336 63.6747 28.4131 63.0744 29.2822 62.9544C29.6419 62.8943 30.0315 62.8943 30.3911 62.8943C43.7876 62.8943 57.1542 62.8943 70.5507 62.8943C70.8803 62.8943 71.24 62.8943 71.5696 62.9243C72.5287 63.0144 73.0681 63.6147 73.0382 64.5451ZM73.0681 50.5282C73.0981 51.6988 72.2589 52.2391 70.4608 52.2391C63.8075 52.2391 57.1542 52.2391 50.5009 52.2391C43.8476 52.2391 37.1943 52.2391 30.541 52.2391C28.7428 52.2391 27.9036 51.6688 27.9336 50.5282C27.9636 49.3877 28.7728 48.8774 30.511 48.8774C43.8476 48.8774 57.2141 48.8774 70.5507 48.8774C72.229 48.8774 73.0382 49.4177 73.0681 50.5282ZM27.9336 43.5948C27.9036 42.7544 28.3532 42.1541 29.1923 41.974C29.552 41.884 29.9416 41.884 30.3012 41.884C43.7577 41.884 57.2141 41.884 70.6706 41.884C71.0901 41.884 71.6296 41.7939 71.8693 42.034C72.3489 42.4543 72.9183 43.0245 73.0082 43.6248C73.1281 44.4052 72.5886 45.0355 71.7195 45.1856C71.27 45.2756 70.8204 45.2456 70.3709 45.2456C63.7176 45.2456 57.0643 45.2456 50.411 45.2456C43.7876 45.2456 37.1643 45.2456 30.5709 45.2456C30.1514 45.2456 29.7318 45.2456 29.3422 45.1856C28.4131 45.0956 27.9336 44.4652 27.9336 43.5948ZM66.0852 29.668C66.0552 30.6284 65.3959 31.2887 64.317 31.2887C62.3689 31.3188 60.4209 31.2887 58.4728 31.2887C54.6667 31.2887 50.8605 31.2887 47.0244 31.2887C41.42 31.2887 35.8157 31.2887 30.2113 31.2887C29.7018 31.2887 29.0724 31.2887 28.7128 31.0186C28.2932 30.6885 27.8737 30.0281 27.9336 29.5479C27.9935 29.0376 28.503 28.4674 28.9526 28.1372C29.2822 27.8971 29.8816 27.9571 30.3612 27.9571C41.42 27.9571 52.4789 27.9571 63.5377 27.9571C63.8075 27.9571 64.0772 27.9571 64.317 27.9571C65.4258 28.0171 66.1151 28.7375 66.0852 29.668ZM34.8866 15.6811C34.8566 14.7806 35.3961 14.2103 36.2652 14.0002C36.6848 13.9102 37.1643 13.9402 37.6138 13.9402C46.2751 13.9402 54.9364 13.9402 63.6276 13.9402C63.9873 13.9402 64.3769 13.9102 64.7365 14.0002C65.6057 14.2103 66.1151 14.7806 66.1151 15.6811C66.0852 16.6115 65.5457 17.2118 64.5867 17.3019C64.257 17.3319 63.9273 17.3319 63.5677 17.3319C59.1921 17.3319 54.8165 17.3319 50.4409 17.3319C46.0953 17.3319 41.7797 17.3319 37.434 17.3319C37.1044 17.3319 36.7447 17.3619 36.4151 17.3019C35.456 17.2118 34.9166 16.6115 34.8866 15.6811ZM27.9036 15.621C27.9336 14.7506 28.6828 13.9702 29.552 13.9702C30.481 13.9402 31.2303 14.7506 31.2303 15.6811C31.2303 16.5815 30.511 17.3019 29.6119 17.3019C28.6529 17.3319 27.8737 16.5515 27.9036 15.621ZM69.7415 15.7411C69.7115 14.7806 70.4608 14.0002 71.3898 14.0002C72.3189 14.0002 73.0981 14.8106 73.0681 15.7411C73.0382 16.6415 72.2889 17.3619 71.3898 17.3619C70.4907 17.3319 69.7715 16.6415 69.7415 15.7411ZM56.1951 94.4699C56.7646 95.1602 56.7046 95.9406 56.1951 96.6309C54.7566 98.5519 53.2881 100.443 51.8495 102.334C49.9614 104.795 49.5119 104.825 47.354 102.664C46.5748 101.884 45.7956 101.133 45.0763 100.353C44.2971 99.5124 44.2372 98.5519 44.8965 97.8615C45.6158 97.1112 46.5748 97.1412 47.4439 98.0116C48.0433 98.6119 48.6128 99.2722 49.332 100.053C50.7406 98.2217 51.9694 96.5709 53.2281 94.9801C53.4978 94.6199 53.7975 94.2598 54.1872 94.0497C54.9064 93.6895 55.6557 93.8096 56.1951 94.4699Z" fill="#672900"/>
</svg>
