<svg width="24" height="20" viewBox="0 0 24 20" fill="none" xmlns="http://www.w3.org/2000/svg">
<path fill-rule="evenodd" clip-rule="evenodd" d="M0.00105629 5.81118C0 6.08101 0 6.36576 0 6.6665V13.3332C0 16.1616 0 17.5758 0.87868 18.4545C1.75736 19.3332 3.17157 19.3332 6 19.3332H18C20.8284 19.3332 22.2426 19.3332 23.1213 18.4545C24 17.5758 24 16.1616 24 13.3332V6.6665C24 6.36576 24 6.08101 23.9989 5.81118L12.9713 11.9377C12.3672 12.2732 11.6328 12.2732 11.0287 11.9377L0.00105629 5.81118ZM0.075847 3.66928C0.21551 3.67981 0.355178 3.72 0.485643 3.79248L12 10.1893L23.5144 3.79248C23.6448 3.72 23.7845 3.67981 23.9242 3.66928C23.8284 2.69266 23.6117 2.03553 23.1213 1.54518C22.2426 0.666504 20.8284 0.666504 18 0.666504H6C3.17157 0.666504 1.75736 0.666504 0.87868 1.54518C0.388329 2.03553 0.17162 2.69266 0.075847 3.66928Z" fill="white"/>
</svg>
