<svg width="15" height="16" viewBox="0 0 15 16" fill="none" xmlns="http://www.w3.org/2000/svg">
<path fill-rule="evenodd" clip-rule="evenodd" d="M8.78577 3.94746C10.3381 5.4998 10.3381 8.01664 8.78577 9.56898C7.23343 11.1213 4.71659 11.1213 3.16425 9.56898C1.61192 8.01664 1.61192 5.4998 3.16425 3.94746C4.71659 2.39512 7.23343 2.39512 8.78577 3.94746ZM10.6936 10.4247C12.5198 8.08057 12.3552 4.68848 10.2 2.53324C7.8666 0.199856 4.08343 0.199856 1.75004 2.53324C-0.583347 4.86663 -0.583347 8.6498 1.75004 10.9832C3.98567 13.2188 7.55214 13.3125 9.89928 11.2642C9.85661 11.5649 9.95092 11.8813 10.1822 12.1126L12.993 14.9233C13.3835 15.3138 14.0166 15.3138 14.4072 14.9233C14.7977 14.5328 14.7977 13.8996 14.4072 13.5091L11.5964 10.6983C11.3511 10.4531 11.0101 10.3618 10.6936 10.4247Z" fill="#672900"/>
</svg>
