<svg width="1440" height="764" viewBox="0 0 1440 764" fill="none" xmlns="http://www.w3.org/2000/svg">
<path fill-rule="evenodd" clip-rule="evenodd" d="M21.6 28.7147L0 30.8905V46V57V764H1440V57V46V43.9452L1418.4 38.5057C1396.8 33.0663 1352.4 22.1873 1309.2 18.9236C1281.67 16.8435 1253.64 17.8569 1225.76 18.8654C1209.89 19.4393 1194.07 20.0115 1178.4 20.0115C1134 20.0115 1090.8 15.6599 1047.6 10.2205C1042.07 9.54255 1036.55 8.84773 1031.05 8.15497C992.432 3.28917 954.616 -1.47522 916.8 0.429406C884.275 2.02327 852.394 8.28741 820.685 14.5177C809.108 16.7924 797.554 19.0627 786 21.0994C741.6 28.7147 698.4 33.0663 654 31.9784C618.826 31.0926 583.652 26.6007 547.83 22.0261C539.656 20.9823 531.449 19.9342 523.2 18.9236C480 13.4842 436.8 9.13257 392.4 12.3963C372.47 13.9019 352.54 17.0285 332.492 20.1734C309.084 23.8455 285.516 27.5427 261.6 28.7147C234.953 30.0568 207.85 28.0875 180.853 26.126C164.082 24.9076 147.353 23.6921 130.8 23.2752C87.6 22.1873 43.2 26.5389 21.6 28.7147Z" fill="#FFF8F2"/>
</svg>
