<svg width="25" height="26" viewBox="0 0 25 26" fill="none" xmlns="http://www.w3.org/2000/svg">
<g clip-path="url(#clip0)">
<path d="M7.66639 23.4036C16.8601 23.4036 21.8902 15.5221 21.8902 8.68939C21.8902 8.46781 21.8854 8.24132 21.8759 8.01975C22.8544 7.28772 23.6988 6.381 24.3695 5.34219C23.4582 5.76162 22.4906 6.03555 21.4999 6.15462C22.5431 5.50775 23.3241 4.49155 23.6984 3.29439C22.717 3.89606 21.6437 4.32048 20.5246 4.54946C19.7706 3.72064 18.7736 3.17186 17.6879 2.98797C16.6021 2.80408 15.488 2.99532 14.5178 3.53213C13.5477 4.06894 12.7755 4.92141 12.3206 5.95775C11.8658 6.99409 11.7536 8.15657 12.0015 9.26547C10.0143 9.16231 8.07029 8.6283 6.29543 7.69805C4.52056 6.7678 2.95449 5.46209 1.69872 3.86555C1.06048 5.00391 0.865173 6.35095 1.1525 7.63292C1.43983 8.91488 2.18824 10.0356 3.24561 10.7672C2.4518 10.7412 1.67538 10.5201 0.98049 10.1222V10.1862C0.979779 11.3808 1.379 12.5388 2.1103 13.4634C2.8416 14.3879 3.85984 15.022 4.99193 15.2577C4.25659 15.4658 3.48482 15.4962 2.73633 15.3463C3.05578 16.3737 3.67732 17.2723 4.51421 17.9167C5.3511 18.561 6.36157 18.919 7.4046 18.9407C5.63384 20.3796 3.44643 21.1601 1.19467 21.1564C0.795345 21.1558 0.396409 21.1305 0 21.0806C2.28754 22.5988 4.94856 23.4051 7.66639 23.4036Z" fill="white"/>
</g>
<defs>
<clipPath id="clip0">
<rect width="24.3695" height="25.2098" fill="white" transform="translate(0 0.557129)"/>
</clipPath>
</defs>
</svg>
