<svg width="34" height="24" viewBox="0 0 34 24" fill="none" xmlns="http://www.w3.org/2000/svg">
<path d="M32.0257 2.8289C30.4453 3.07225 28.928 3.65019 27.474 4.56274C26.02 5.47529 25.293 6.60076 25.293 7.93917C25.293 8.60837 25.4826 9.06464 25.8619 9.30799C26.178 9.55133 26.7154 9.79468 27.474 10.038C31.52 11.1331 33.543 13.4144 33.543 16.8821C33.543 18.8897 32.9108 20.5627 31.6464 21.9011C30.3188 23.3004 28.5487 24 26.3361 24C24.2499 24 22.4798 23.27 21.0257 21.8099C19.5717 20.4106 18.8447 18.1597 18.8447 15.057C18.8447 11.2243 19.9826 7.87833 22.2585 5.01901C24.5343 2.22053 27.6637 0.54753 31.6464 1.65802e-07L32.0257 2.8289ZM13.724 2.92015C12.2068 3.10266 10.7211 3.65019 9.26711 4.56274C7.74987 5.53612 6.99125 6.69202 6.99125 8.03042C6.99125 8.69962 7.1809 9.1559 7.56021 9.39924C7.8763 9.64259 8.41366 9.88593 9.17228 10.1293C13.2183 11.2243 15.2412 13.4753 15.2412 16.8821C15.2412 18.8897 14.6091 20.5627 13.3447 21.9011C12.0171 23.3004 10.247 24 8.03435 24C5.94814 24 4.17803 23.3004 2.72401 21.9011C1.26998 20.5019 0.542968 18.251 0.542968 15.1483C0.542968 11.2548 1.6809 7.87833 3.95676 5.01902C6.23263 2.22054 9.36194 0.547531 13.3447 1.76579e-06L13.724 2.92015Z" fill="#672900"/>
</svg>
