<svg width="19" height="16" viewBox="0 0 19 16" fill="none" xmlns="http://www.w3.org/2000/svg">
<path fill-rule="evenodd" clip-rule="evenodd" d="M2.46884 4C1.46494 4 0.651123 4.81382 0.651123 5.81772V10.8571C0.651123 12.8619 0.651123 13.8643 1.11095 14.5961C1.35073 14.9777 1.67342 15.3004 2.05503 15.5402C2.78684 16 3.78922 16 5.79398 16H13.206C15.2107 16 16.2131 16 16.9449 15.5402C17.3265 15.3004 17.6492 14.9777 17.889 14.5961C18.3488 13.8643 18.3488 12.8619 18.3488 10.8571V5.81772C18.3488 4.81382 17.535 4 16.5311 4C15.8382 4 15.2055 3.60605 14.8998 2.98421L14.0883 1.33333L14.0883 1.33329C13.9859 1.12516 13.9348 1.0211 13.8772 0.930206C13.5512 0.415157 13.008 0.0769318 12.4019 0.0115405C12.295 0 12.179 0 11.9471 0H7.05289C6.82095 0 6.70497 0 6.59801 0.0115405C5.99194 0.0769318 5.44879 0.415157 5.12272 0.930206C5.06518 1.0211 5.01401 1.12518 4.91168 1.33333L4.10011 2.98421C3.79441 3.60605 3.16176 4 2.46884 4ZM11.4326 9C11.4326 10.1366 10.5354 11 9.49974 11C8.46407 11 7.56692 10.1366 7.56692 9C7.56692 7.86336 8.46407 7 9.49974 7C10.5354 7 11.4326 7.86336 11.4326 9ZM13.4326 9C13.4326 11.2091 11.6718 13 9.49974 13C7.3277 13 5.56692 11.2091 5.56692 9C5.56692 6.79086 7.3277 5 9.49974 5C11.6718 5 13.4326 6.79086 13.4326 9Z" fill="#757575"/>
</svg>
