<svg width="140" height="27" viewBox="0 0 140 27" fill="none" xmlns="http://www.w3.org/2000/svg">
<path d="M15.0385 4.36261C15.315 3.39583 16.685 3.39583 16.9615 4.36261L18.2623 8.9122C18.3851 9.34141 18.7774 9.63729 19.2238 9.63729H23.6797C24.6173 9.63729 25.0394 10.8115 24.3164 11.4084L20.5007 14.5587C20.1941 14.8118 20.0666 15.2225 20.1759 15.6047L21.5803 20.5162C21.8503 21.4605 20.7395 22.1876 19.9821 21.5623L16.6367 18.8002C16.2671 18.4951 15.7329 18.4951 15.3633 18.8002L12.0179 21.5623C11.2605 22.1876 10.1497 21.4605 10.4197 20.5162L11.8241 15.6048C11.9334 15.2225 11.8058 14.8118 11.4993 14.5587L7.68361 11.4084C6.96061 10.8115 7.3827 9.63729 8.32028 9.63729H12.7762C13.2226 9.63729 13.6149 9.34141 13.7377 8.9122L15.0385 4.36261Z" fill="#FF0A00"/>
<path d="M41.0454 4.06049C41.3374 3.12419 42.6626 3.12419 42.9546 4.06049L44.4751 8.93506C44.6054 9.35279 44.9922 9.63729 45.4298 9.63729H50.4343C51.3931 9.63729 51.8023 10.8561 51.0377 11.4347L46.9197 14.5513C46.5835 14.8057 46.443 15.2438 46.5686 15.6464L48.1248 20.6355C48.4144 21.5641 47.3423 22.3177 46.5667 21.7307L42.6035 18.7313C42.2465 18.4611 41.7535 18.4611 41.3965 18.7313L37.4333 21.7307C36.6577 22.3177 35.5856 21.5641 35.8752 20.6355L37.4314 15.6464C37.557 15.2438 37.4165 14.8057 37.0803 14.5513L32.9623 11.4347C32.1977 10.8561 32.6069 9.63729 33.5657 9.63729H38.5702C39.0078 9.63729 39.3946 9.35279 39.5249 8.93506L41.0454 4.06049Z" fill="#FF7324"/>
<path d="M68.0454 4.06049C68.3374 3.12419 69.6626 3.12419 69.9546 4.06049L71.4751 8.93506C71.6054 9.35279 71.9922 9.63729 72.4298 9.63729H77.4343C78.3931 9.63729 78.8023 10.8561 78.0377 11.4347L73.9197 14.5513C73.5835 14.8057 73.443 15.2438 73.5686 15.6464L75.1248 20.6355C75.4144 21.5641 74.3423 22.3177 73.5667 21.7307L69.6035 18.7313C69.2465 18.4611 68.7535 18.4611 68.3965 18.7313L64.4333 21.7307C63.6577 22.3177 62.5856 21.5641 62.8752 20.6355L64.4314 15.6464C64.557 15.2438 64.4165 14.8057 64.0803 14.5513L59.9623 11.4347C59.1977 10.8561 59.6069 9.63729 60.5657 9.63729H65.5702C66.0078 9.63729 66.3946 9.35279 66.5249 8.93506L68.0454 4.06049Z" fill="#FF9800"/>
<path d="M95.0454 4.06049C95.3374 3.12419 96.6626 3.12419 96.9546 4.06049L98.4751 8.93506C98.6054 9.35279 98.9922 9.63729 99.4298 9.63729H104.434C105.393 9.63729 105.802 10.8561 105.038 11.4347L100.92 14.5513C100.583 14.8057 100.443 15.2438 100.569 15.6464L102.125 20.6355C102.414 21.5641 101.342 22.3177 100.567 21.7307L96.6035 18.7313C96.2465 18.4611 95.7535 18.4611 95.3965 18.7313L91.4333 21.7307C90.6577 22.3177 89.5856 21.5641 89.8752 20.6355L91.4314 15.6464C91.557 15.2438 91.4165 14.8057 91.0803 14.5513L86.9623 11.4347C86.1977 10.8561 86.6069 9.63729 87.5657 9.63729H92.5702C93.0078 9.63729 93.3946 9.35279 93.5249 8.93506L95.0454 4.06049Z" fill="#FFC700"/>
<path d="M122.045 4.06049C122.337 3.12419 123.663 3.12419 123.955 4.06049L125.475 8.93506C125.605 9.35279 125.992 9.63729 126.43 9.63729H131.434C132.393 9.63729 132.802 10.8561 132.038 11.4347L127.92 14.5513C127.583 14.8057 127.443 15.2438 127.569 15.6464L129.125 20.6355C129.414 21.5641 128.342 22.3177 127.567 21.7307L123.603 18.7313C123.247 18.4611 122.753 18.4611 122.397 18.7313L118.433 21.7307C117.658 22.3177 116.586 21.5641 116.875 20.6355L118.431 15.6464C118.557 15.2438 118.417 14.8057 118.08 14.5513L113.962 11.4347C113.198 10.8561 113.607 9.63729 114.566 9.63729H119.57C120.008 9.63729 120.395 9.35279 120.525 8.93506L122.045 4.06049Z" fill="#70A42F"/>
</svg>
